<mxfile host="Electron" modified="2025-02-25T11:04:48.800Z" agent="Mozilla/5.0 (Macintosh; Intel Mac OS X 10_15_7) AppleWebKit/537.36 (KHTML, like Gecko) draw.io/21.6.1 Chrome/112.0.5615.204 Electron/24.6.1 Safari/537.36" etag="G5zW5NJsYYfpMcI1lLwe" version="21.6.1" type="device">
  <diagram name="Page-1" id="iv98gyRuJw_iPgKfsvr-">
    <mxGraphModel dx="1640" dy="1132" grid="1" gridSize="10" guides="1" tooltips="1" connect="1" arrows="1" fold="1" page="1" pageScale="1" pageWidth="1169" pageHeight="827" math="0" shadow="0">
      <root>
        <mxCell id="0" />
        <mxCell id="1" parent="0" />
        <mxCell id="KeBU-kHbTEerPU9ZJ03d-43" value="&lt;font style=&quot;font-size: 40px;&quot;&gt;General System Architechture&lt;/font&gt;" style="rounded=1;whiteSpace=wrap;html=1;fillColor=none;strokeWidth=3;verticalAlign=top;" parent="1" vertex="1">
          <mxGeometry x="35" y="100" width="1845" height="1170" as="geometry" />
        </mxCell>
        <mxCell id="KeBU-kHbTEerPU9ZJ03d-35" value="&lt;font size=&quot;1&quot; style=&quot;&quot;&gt;&lt;b style=&quot;font-size: 20px;&quot;&gt;LoRaWAN&lt;/b&gt;&lt;/font&gt;" style="ellipse;whiteSpace=wrap;html=1;gradientColor=none;fillStyle=auto;fillColor=#99FF99;opacity=10;" parent="1" vertex="1">
          <mxGeometry x="926.25" y="610" width="830" height="552" as="geometry" />
        </mxCell>
        <mxCell id="KeBU-kHbTEerPU9ZJ03d-5" value="" style="shape=image;verticalLabelPosition=bottom;labelBackgroundColor=default;verticalAlign=top;aspect=fixed;imageAspect=0;image=data:image/png,iVBORw0KGgoAAAANSUhEUgAABLAAAASwCAYAAADrIbPPAAAABGdBTUEAALGPC/xhBQAAACBjSFJNAAB6JgAAgIQAAPoAAACA6AAAdTAAAOpgAAA6mAAAF3CculE8AAAABmJLR0QA/wD/AP+gvaeTAAAAB3RJTUUH6AcTCCAOumBPMwAAgABJREFUeNrs3Xm4XVV9P+DPOucmAYIMccAB5xFRCia5l9ESkgDi1KqgtdqqtVgHJDcgalvrrdZWEXKD1LHVaqtWwanFIpAbQgWFJEQsKk7UuU4tQ1CGDPes3x/wa0UZEnLOvfvc877Pw/PgkL3W+qy199n7mz0kAAAAAAAAAAAAAAAAAAAAAAAAAAAAAAAAAAAAAAAAAAAAAAAAAAAAAAAAAAAAAAAAAAAAAAAAAAAAAAAAAAAAAAAAAAAAAAAAAAAAAAAAAAAAAAAAAAAAAAAAAAAAAAAAAAAAAAAAAAAAAAAAAAAAAAAAAAAAAAAAAAAAAAAAAAAAAAAAAAAAAAAAAAAAAAAAAAAAAAAAAAAAAAAAAAAAAAAAAAAAAAAAAAAAAAAAAAAAAAAAAAAAAAAAAAAAAAAAAAAAAAAAAAAAAAAAAAAAAAAAAAAAAAAAAAAAAAAAAAAAAAAAAAAAAAAAAAAAAAAAAAAAAAAAAAAAAAAAAAAAAAAAAAAAAAAAAAAAAAAAAAAAAAAAAAAAAAAAAAAAAAAAAAAAAAAAAAAAAAAAAAAAAAAAAAAAAAAAAAAAAAAAAAAAAAAAAAAAAAAAAAAAAAAAAAAAAAAAAAAAAAAAAAAAAAAAAAAAAAAAAAAAAAAAAAAAAAAAAAAAAAAAAAAAAAAAAAAAAAAAAAAAAAAAAAAAAAAAAAAAAAAAAAAAAAAAAAAAAAAAAAAAAAAAAAAAAAAAAAAAAAAAAAAAAAAAAAAAAAAAAAAAAAAAAAAAAAAAAAAAAAAAAAAAAAAAAAAAAAAAAAAAAAAAAAAAAAAAAAAAAAAAAAAAAAAAAAAAAAAAAAAAAAAAAAAAAAAAAAAAAAAAAAAAAAAAAAAAAAAAAAAAAAAAAAAAAAAAAAAAAAAAAAAAAAAAAAAAAAAAAAAAAAAAAAAAAAAAAAAAAAAAAAAAAAAAAAAAAAAAAAAAAAAAAAAAAAAAAAAAAAAAAAAAAAAAAAAAAAAAAAAAAAAAAAAAAAAAAAAAAAAAAAAAAAAAAAAAAAAAAAAAAAAAAAAAAAAAAAAAAAAAAAAAAAAAAAAAAAAAAAAAAAAAAAAAAAAAAAAAAAAAAAAAAAAAAAAAAAAAAAAAAAAAAAAAAAAAAAAAAAAAAAAAAAAAAAAAAAAAAAAAAAAAAAAAAAAAAAAAAAAAAAAAAAAAAAAAAAAAAAAAAAAAAAAAAAAAAAAAAAAAAAAAAAAAAAAAAAAAAAAAAAAAAAAAAAAAAAAAAAAAAAAAAAAAAAAAAAAAAAAAAAAAAAAAAAAAAAAAAAAAAAAAAAAAAAAAAAAAAAAAAAAAAAAAAAAAAAAAAAAAAAAAAAAAAAAAAAAAAAAAAAAAAAAAAAAAAAAAAAAAAAAAAAAAAAAAAAAAAAAAAAAAAAAAAAAAAAAAAAAAAAAAAAAAAAAAAAAAAAAAAAAAAAAAAAAAAAAAAAAAAAAAAAAAAAAAAAAAAAAAAAAAAAAAAAAAAADAVCsiAABouJPW3CedrQ9IaT84nfrAtOp9U7NnUvZI6h5J9kxy27+XVpK5SWbf9qfnJNnltn/fnOTG2/59U5Kbbvv3m1NzXVKvTcq1KeW6pHPrvyfXplV/lK35QfYc+nHGFm01IQDAVFPAAgCYbiecOydDOz0qqY9JrY9OyWNS8ujU7J3kgUl2akhPJ5P8JKnfT8oPU/KD1HwrpX4ts/L1vG3pRpMJAPSCAhYAwFRatuZhKZ0Dkrp/kgOSPCHJQ5K0Z8Do/ivJ15NclZKrUjsbcuO8/8j7Fmwx8QDAjlDAAgDolVdO3DtzWoekdg5NsiDJ/rn1cb9BsinJFSllfTpZn1rW5YxF30pKtUAAgG2lgAUA0C0nrX5oJvPklHpokkOT7ON86w5dl5J/T6demNK+MONHfE0kAMBdcUIFAHBPHX/OLtl17uGpnaOSHJXksUK5R36aUtek07ow7azK6Yu/LxIA4FcpYAEAbI+Tz394JtvPSnJ0br3LaiehdN1/pORfUzv/mvGlGzxuCAAoYAEA3J0TL3xsWp1nJ3l2kicJZEr9V1LPScq/5MY9VnshPAAMJgUsAIA7MrrmUamd30/ynJT6BIE0wjVJPp7a+WhWLv2iO7MAYHAoYAEA/H+vXbV7tuSZqeWFSRY7V2q0Hyb5dGrnH7LyyC+LAwBmNidlAMBgGxtr5frDjkrqH6bkmfFOq360LrW+Nzfd8rG87+k3iQMAZh4FLABgML121e7ZXJ6bZFmSfQQyI9yQ5GPp5J05Y8mV4gCAmUMBCwAYLCddOD+184rU/F6SnQUyY09z/z2lvju/3ONTXvwOADPgl10EAMDMV0uWr3l66uQpSTlEHgPl+0nGs6n9/rxr0S/FAQD9SQELAJi5jr98Vna97vdSyylJ9hXIQLshyQczq/O2nHrkj8UBAP1FAQsAmHlOPn9uOu2XpWY0yd4C4VfcnNQPpQ69LSsXfU8cANAfFLAAgJlj7KzZ2TjvRUnGkjxAINyFLUn+ISlvyvji/xIHADSbAhYA0P/+71HBNyZ5hEDYDpuTfDBD7Tfm7Yt+Kg4AaCYFLACgj9WSZaufn+QvU/JIebADfpnkHantt2flouvFAQDNooAFAPSn0dXDSR1PcrAw6KJrk7wpu7ffmbFFW8UBAM2ggAUA9Jfl5z84tfWWpLzAuQw9PE3+RmqWZ+Xiz8kCABrwyywCAKAvvGLNrpkz+edJTkyyk0CYorPlz6S2X5PxRVcLAwCm8ycZAKDpll/4jNTO3yZ5sDCYBptScmq2bH5LzjxmkzgAYOopYAEAzXXKBQ/MlvLWpLxQGEy/enVK/ZOsOHK1LABgailgAQDNc+xZ7ew971VJ3pzkXgKhQWpK3p/Zc07JWw+7ThzQBcvPf3DSOjo1+yWtByZ1tyQ3puS/U+tVSb04u3/xSxkb6wgLBpcCFgDQLCde+Ni0Oh9McqAwaLCfpmRZViz5uCjgHjjlkntl6y2vSs1xSfbfhj/x85SsSnJeWpMX5LSjfi5EGCwKWABAM4yNtbLx0BOS/E2SnQVCX6j5eMrWV2T86GuFAdvghHPnZGjWK5LW65N633u4lU6SK1LreWm3P53Tj9ggWJj5FLAAgOl30uqHplP/IckiYdCHfppaX5qVS/9NFHAXlp//4NTW2UkZ6fKWf5DkM2nVs3P6ki8kpQobZh4FLABgei1b9ZKUsjLedUV/qynlb1N3fm3GD75ZHPBrRlcfmdR/TjKvxy19P8kn0mmdnTOOWCt4mDkUsACA6XHr+0/enZrfFwYzyNdT6u9nxdIrRAG3OWnVoemUVUl2muLL3W+k5IMZmvynnHrkj00E9DcFLABg6i1fdUBq+XiSRwuDGWhTktdmfMkZomDgLVu1T0q5JL2/8+qudJJcmFL/Kb+85RN539NvMjHQfxSwAICpNbr6VUk9LckcYTDDfTjtyT/JaUfdKAoG0tianbJx8ktJ9mlQr65N8uGUvDMrlnzLJEH/UMACAKbGyefPzeTQB5J6nDAYIF9La/I5Of2ob4iCgbN81VhqeWNDe9dJcn5qOTN7XHx+xsY6JgyaTQELAOi916x+ZLbWTyd5ojAYQL9M8scZX/IxUTAwXjlx78zOd9MfH+j4VkremS2bP5gzj7nB5EEzKWABAL114qqj0iofzfS+/wSacOr91ux+8Z+504OBMDpxUpLT+qzXv0jyvtStp2fl0T8xidCwX1ERAAC9UUuWX3hKan1LkrY8IEnJZ3JL+4V516JfCoMZbXTi8iTz+7T3m5L6D2l3Ts1pR33XZEJTfkIBALpt7KzZ2bjn3yflhcKA3/DldOozc8bSH4iCGenk8++XyfZPkrT6fCRbk/rPaZW35vQlV5lYmF4tEQAAXbVszR7ZOO88xSu4U/unVdZm+aoDRcGM1Gk9c4Zcaw4l5YXp5CsZnfhElq3ax+TC9FHAAgC656TVD02Z/EKSRcKAu3T/1LImy1Y9SxTMOLU8ZQZeNz87pXwlyyfen+XnP9gkw/TsiAAAO+6kC+enUy9L8nhhwDbZKaWcleUTLxMFM8yTZui42ql5SWr7W1k2cXpOWnMfUw1TxzuwAIAdNzqxJMmnk+wqDLgHav4iK5e8WRD0vbGxVjYeujmD8fGOG1JzWm66+fS87+k3mXzoLQUsAGDHjK56ZlI+nmSOMGCHzszfmd0ueXXGxjrCoG8tW7NHyuR1AzbqH6SUk7Ni8dkWAPTyZxIA4J5aPvGC1PxDkiFhQFdOz8/K7te8MGPHbZYFfekVa3bNnMlfDOjo1yT1xIwv/YqFAN3nHVgAwD0zOvGK1HwoilfQRfW4bJx3VsbOmi0L+tL9/v2mJJsGdPSLkvKljK46M6+7eE+LAbrLHVgAwPZbtvrklPp2QUDPnJPdr32OO7HoS6MT30zymAFP4X9Symuy4ogPJaVaFLDj3IEFAGzvhcmJilfQc0/PxnmfydianURB/ymXyyD3Sa3/kOWrL8ryiceIA3acAhYAsO2WTbwyybggYEo8JRsnP5ETzvWBBPpLzRoh/G8WT07NFRldNZpjz2oLBO45BSwAYNuMThyfkjPjFQQwlZ6aodmf9E4s+sqW+ukkWwTxv3ZJyorsPe+LGV31RHHAPeMEFAC4e8tXvyi1vj/+8gumy8ey+yW/n7GxjijoC6MT/5zkeYL4DVtS8+bs0f6bjC3aKg7Ydk5CAYC7tmzid1Lr3ztvgGn1vGw89Ewx0DdKPTWJgutvmpWSN2Xj5L9ndOIR4oBt50QUALhzy1cdmJKPJPHeDph+r8joxF+Kgb6wYukVqflHQdypg5N8OaMTx4sCto1HCAGAO/bq85+QdvvzSfYUBjTqDP6krFiyQhA03usu3jObNn05yUOEcZc79aeyuR6fdy65RhZwVz9/AAC/btmahyWTX0jJA4UBjdNJLS/IysX/LAoa78TVT06rXpDE1zTv2n8lnd/P+JH/Lgq4Yx4hBABu73UX75kyeZ7iFTT4HL7UD2T56oNFQeOdsfjzSf2DJF5YftcelLQmsnz1a5PqRhO4A3YMAOD/jK0ZysbJzyVZIgxovJ+ntkeyctH3REHjLZ94Wmr+Ocmuwrgbtf5rMvSHWbnoemHA/3EHFgDwf67vvCOKV9Av7pcy+dmccO5uoqDxViz5bCY7T0pyqTDuRinPSCYvz/JVBwgDfmXXEAEAkCQZXf2qpJ4pCOg752X39tMztsgjWvSBWrLswuel1NckUaC5a7ckeVXGl7xfFKCABQAkyejqI5P6b0mGhAH9eFZfzsyKxa8WBH1l2QX7p9U+KrUeleTQJLOEcif79w+vGc3Zx00Kg4HeFUQAAANudOIRSS5PsqcwoI/V8gdZufifBEFfeu2q3bOldWQ69ZiUHJPkfkK5nfMyuz4vb1u6URQMKgUsABhkY2t2ysbJLyR5kjCg792U1AMzvvQroqC/f5vGWtl42IKkPjXJs5PsK5QkyVVJnp7xJd8RBYNIAQsABtnoxN8n+SNBwExRr87sLHCXBjPrt+rCfVMmj00tL0zyiAFP49rU+uysXHqRhcGgUcACgIG9IFj94qR+QBAw407xP5XxI56TlCoLZpSxsVY2HnxY0np+kmMzuI++b04tL/XIMAP36yYCABhAyy/8rdTOpUl2FgbMQLW8JisXnyYIZqwTzp2ToVnPTsorkxw8iHt5ktdkfMnpFgODQgELAAbNyefPzWR7Q5LHCgNmrK3ptA7NGUesFQUz3rIL9k9pvyKpz08yd8BG//aML36tOy4ZBApYADBoRifem+R4QcCM9+1saj8p71r0S1EwEJat2SOtzotS6yuSPHpgxl3zwezR/uOMLdpqETCTtUQAAIN0cr/6KUn+WBAwEB6dnSbHxcDAWLno+qxYvDK7X/K4pDwjyeUDMe6SF2Xj5Kdz/Dm7WATM7KUOAAyG16y5f7Z2rkzqfYUBA6Tmd7NyyWcEwQAu/pLRC5+W1D9NcuAADPjizNrpqTn10F+Ye2YiBSwAGJiT+NXnJHmqLGDg/E/q1v2y8uifiIKBddKqQ9Mpr03ytBk+0i9m6+an5MxjbjDpzDQKWABsv7GzZuf6+z4wpXO/lHKfdOq9Uzr3SWntklrvdesvTNkltc5JLZMp9YYkkynlhnTy///zDUn+K2n/JJnzXxk/+GbB9tDo6j9J6rsFAQPrvIwvPsaLnhl4y1YfkVJPTTJ/Bo9SEYsZSQELgDtRS15z4SMy2dk/teybmkem5OFJHpbkQen+exSvT/LjJN9N8tXU8rUkX8serasytugW87EDlp//4NT2V5PsJgwYaC/K+JIPiQFqyejE7yXlLbed18xEl2br5qMVsZhJFLAAuNUJa/ZOu3NYSufgpDwpyROT3KsBPZtM8p2krE/pXJLa/nzGF13lLoLtMLrq35JyjCBg4F2TTvbNGUt+JgpIcsK5czJr9itT82dJ5s3AEV6W2fXovG3pRpPNTKCABTCoXrPm/tmy9ZiUsijJYUke2ke9/58kX0jJ59Opn8vKpV83oXdi2eoXptR/FASQJKn5eFYueZ4g4Fe87uI9s2nzG5J6QpKhGbbTr82snZd6sTszgQIWwOBctZQsnxhJJ09LKU9JcsAM+h34Vko+k5R/yW4XX5axsY75TnLixF5p5WtJ7i0M4FcuAZ6R8cXnyAF+zbIL9k8p70nKyAzb51dn66an5sxjNplk+noliwBghhu9YEHSel6S45I8eABG/LOkfjolH8qKpZcN9txP/HMSd1oAv+6H2br5Cd6NA3dgbKyVGw55WWr56yR7zKCRfTI/uva5Ofu4SZNMv1LAApiJRlc/KDUvTem8ICmPGuAkvpaSD2TL5n/Kmcf890CNfPnEotRcaGcA7vgqoJyZFYtfLQi4E69Zc/9s7Zye1OfPoKv/v8+Kxcd7jyj9u4QBmBnGxlq54clHp3aOT/K0JG2h/K/NSc5JrX+blUsvmvlrYc1QNk5+Ocm+ph64E1szOXlA3nHUV0UBd+HEVUelVd6fW7/APBO8LeNLXmdi6UcKWAD97hVrds1OnZem1hMzcz8F3UV1bWpOzR5f+MyMfVfW6KrRpKww18DdXAqszvjiJXKAu/G6i/fMpk3vysx5LP/kjC853cTSd79aIgDo11OP8++XTusVqeWEzMxPP/fad5K8I9nlfRk/+OYZM6pbX9z+zSS7m2JgGy4HnpXxxZ+WA2yD5auPTa3vmQHnXTXJ8zO+5GMmlb76xRIBQJ9Zdt4D0hr6s9S8NMkcgeywHyZ5Q3a/5J9mxB1ZoxMfTPKHphXYRt/J7u19M7boFlHANjhhzd4ZmvyHJP1+9+JNSee3M37k5SaVfqGABdAvRs+blzL02tS8KskuAum6K5O8NuNLzuvbESy7YP+U1oYkLdMJbPsVQfnzrFj8FkHAtqoloxPLkvK2JLP6dxj5cSbbIzlz0Y/MKX3xcyUCgIYbW7NTNk4uT3JKPBY2FT+Nq1MnT87KI7/cd10fXXV+Uo40h8B2+mU6eVTOWPIzUcB2WHbBISmtj6e/X/B+RTa1n5x3LfqlCaXp/A0tQJONrn56Nk5+Lclbong1RerilNaGjE68N6dccq++6fbyiUWKV8A9tGta+VMxwHZaeeQXsnXzAalZ1cejOCBztn48x57l69U0njuwAJpo2ap9knJGSpYKY1p9L6X1yqw44txG93JsrJWNh65P8iRTBtxDm9Iqj83pi78vCrr3+7Rmp1y/ac9Mzmln071+lvct2DIjx3nsWe3sPe8tufVu+f68xq75m6xcopBNoylgATTqRO+s2bn+3q9PqX+aZLZAGuNj6WRZYx+vGV31/KR8xDQBO3hl8IGsWPJHguCe/x59ceeUm5+bTj06JYfm9o/W1dT8JCVfSimXpZNLM3vO+px66C9mzvhXPTMpH0p/3jVfk/LMjC8+x0KmuT9TADTkpOeCBUnr/Un2E0Yj/Ty1vCgrF3+uUb0aWzOUjVu/npRHmSJgB21Np/WEnHHEN0XBdjn5/LnZ2np9SnlFkj23409OJvmPpFyQ2jk/e1z3xYwdt7m/z+cu3Dfp/FuSh/Zh76/PUFmQty/+T4uaJlLAAphuY2fNzsZ7/2VST04yJJBGq6kZzx7Xvr4xJ9jLVr8wpf6jqQG6dHlwVsYXP1cObLPlFx6T2nlvkr27sLVfptYLU1qfyZzZn8lbD7uuLzN5zZr7Z3LyX1OzsA97/+Vkl4MzfvDNFjeN+4USAcA0evUFj0679c9J5gujr2xIyfOzYsm3prUXt75z42tJHmtKgC6p6WT/nLHkSlFwN0ulZNnqP0/JWHrzcbAtSSaScnZfFrOOP2eX7LrzR1LzO304t/+Q8aUvscZpGl8hBJguoxN/mHbrS1G86kfzU7MhyyaeM6292HvesVG8ArqrpJ1TxMDdn8esXpmSN/XwmnJWkqck9QPZtOnHWT7x4SxbdXhS++MmjPc9/absdsmzkzLeh4eBF2fZ6pda5DTvBwqAqXXy+XPTab83Nb8vjL5Xk4xlfPGbk1KntOVbvzx4ZZJ9TQPQZVvTnnxMTjvqu6LgDo2ufnNS/3yafnqvTmn9fTbVv887l1zTF3ktW3VCSlmZ/rqB5KbUuiArl37dgqcpFLAApvQEZs3DUiY/k+S3hDGD1Hw8ZZcXT+n7IpavenZq+YTwgR4d2P4240tPkAO/YXT105P6Lw24lrwptXwoncnxvOPIbzc+t+Wr/iC1fCBJu49me0Nu3OOgvG/BFgufJvAIIcBUWbb6iJTJ9VG8mnlKnpvc9PmccsEDp+7aspwseKCHB7aX5OTz7ycHbufk8++X1A+mGTdC7JJSX5526xsZnfhMTrxwpNHZrVj6jynl95L001cW52fu9WMWPk2hgAUwFZatOiGlnp/kPsKYsRZkS+vSLJ94TO/X08RBSQ4UOdDT4sDkkDuwuL1O+y1J5jXwmvaZaXUuy+jEZ3PShc19t+iKxWen5NlJbumjWX9tTlp1qMVPE3iEEKCnasno6rcnOUkWA+Nn6eTInn7Ba3TirCTHihrosevSnnxwTjvqRlGQ0Qv3TTpXpvk3QdSU/Eu2Tr4h7zjqq43s4fILFqe2/iXJ3D6Z/e9m6+b9c+YxN9gRmE7uwALolRPOnZPR1R+N4tWg2SutrOnZowwnrX5okt8VMzAF9sxk2wdHuE09sU+uH0tqfift9pezbOI9jXwUdsWRq1M7RyX5ZZ9M/sPTnn2GfYDppoAF0AuvXbV7hmZ/LsnzhDGQ5qXVmcjyiUVd33KnnpBkSMTAFHmFCMgJ5+6W1Bf0Wa/bKXlZJtvfyuiq1+SEc+c0qncrj/xCanlm+uVxwpIXZdnEc+wMTCcFLIBue93Fe2ZzmUiySBgDbdfUfLar7414xZpdk7xUtMAU+q0su+AQMQy4WXOOSrJzn/Z+96ScmqHZX8my1Uc0qmcrF1+Y0npukq19kWTJe/KaNfe3QzBdFLAAumn0vHnZtGkiyQJhkGSXdMpns+yC/buytdlbj7v1RBxgKq8YWi8XwoCr9akzYBSPTqkTWTbxD3nlxL0b06sVR/xral6UpNMHGd47k1tX2CGYtp8jEQB0yUlr7pMMrU7yJGHwK3ZPaZ3fla8TlvLH4gSmXM1zGvkeIabSATNkHCUlL8rs8vWMrnp+Y3q1cslHUuqrktTmHw/K7+WkiaV2CaaDAhZAN7zu4j3TmVydZH9hcAful5oLcsKave/xFl59/hOSHChKYBrMSaf9R2IYUGNrhpI8bmYNqt43KR/J6OqPZ/S8eY3o0oql707qn/ZFfJ28M2NrdrJzMNUUsAB21OgXd84tm/41yX7C4C48NEOT59/6Itx7oN129xUwjdf7eXFSiyAG0C+yR5LZM3RhH5cMXdmYO4rGl741Ne/tg+AenRu2vs7OwVRTwALYEWNrhlJv/FhKDhUG2+DxGZr94YyNtbZzne2U5AXiA6b1gnX5xIgYBlFn7gwf4IPSyflZtmo8x18+a9p7c9MeJySZaHxqtbyuK69HgO2ggAWwA7/cuWHyvSnlGbJgOzw9Gw9983b9iY2Tv5NknuiAaf7Ze6EQBtDm1uQAjLKklGWZe/2/Z/n5D57WnrxvwZbU9rFJ+UbDM5uTmnfaQZhKClgA99TohX+dmpcIgnvg9Vm2+ve24///fJEBDfC8nHDuHDEMmE33+ln64wt53XBQavuKjE4cPa29WLno+rS3HpPk5w3Pa0mjXobPjKeABXBPLJt4ZVI9+889VVLq32f5qrv/qtPrLt4zyVEiAxpgXtqznyKGAfO+BVuS/HiARnzvJP+W5av/bFrf+3baUd9N8pwkmxp+SnP6PX6/J2wnBSyA7bXsgkNSMi4IdtAuqeWfc/L5d/1ukU2bnpUZ+/JcoO8UjxEOqEsG7jq51r/K6IUfntav7Y0vuTjJKxue1f3TnnWKXYSp2TEB2HYnTuyVtM5KMksYdMFj02mvvJurxd8TE9Ac9al57ard5TBo015WD+jAn5+Nk2tuPf+bJuNL3p/kQ42OqZRlWXbeA+wo9JoCFsC2GlszlFY+lpIHCoPunRvnpVm26ll3+L8tO+8BST1cSECDzMnm4jHCQTO56awkvxjQ0R+YVtZl2ap9pq0HN978itTy1QZnNDcZeqMdhV5TwALYVjds/ZskhwuCrivl73LCmr1/838YelaStoCARqn5HSEMmDOPuSGpHxrgBB6SUi7OiReOTEvr73v6TWlvPTbJL5t7LpM/yokXPtbOQi8pYAFsi2WrnpVaThIEPTIvQ50P/sbLYkt9hmiABl6oPsXXCAfQ1qG3JbllgBO4d1qd1Tlx1fR8WOX0o76R1Jc1OJ+htOpf21HoJQUsgLvzmjX3TynvS1KEQe/UxVk+8X8vRz7lknsl5bflAjTQbmnPOUIMA+bMRT9KHfiP2MxNq/xrRlcdNy2tjy/9aFLf0+Bzmd/N8lUH2lnoFQUsgLszOfnu3PpJZejxeV/rtLxy4ta1tvXmI5O4wwFoplJ/RwgDaI9rx5JsGPAUZifloxmdeN60tL770GiSrzf1yJCUt9lR6BUFLIC7smz173nXB1On3jez69tv/dfydHkADfaMjI25lhg0Y8dtTpn83SQ/GPAk2kk+nGWrp/5LwWOLbknKi5JsbeapTJ6c5RNPs7PQCx6HAbgzJ07slVa+muQ+wmBKT/1KFqeWjyf1vuIAGqvVWpDTj5jZd+OMrRnKLUP3yo1b52ZocvYd/n+2bv5FNk3emPc9/abBOUe68LFpdc5L8rAB3wsmU8sLs3LxP095y8tW/VVK+bNGplKyPiuWDDtI0v2lBcAdG534RJJnC4JpcE08tgo0Xc1rs3LJqX3b/xMn9kq7PDKpj0jNI5L6sKTcL8leSe6f5L7Zvke5a5Jrk/w8Jf+dmh8n+VmS76bkP1Mmr87mye/mzGM2zYj5P/n8+2Wy/Ykkhw34nrA1pfXsrDjiX6e01bGzZmfjvPVJ9mtmpaGzJCuOXO1ASVeXlQgA7sDo6t9N6qcEAQB3omZVVi45svH9PPasdh58nyekUxem1CfedsG/X5J509CbTlK/k5QvJ/U/ktZ/ZNbkhpx65I/7cg0ce1Y7e89bluQvk8wd4L3h5nTK0Tlj8eentNVlF+yf0lqbZLbjA4NAAQvg142dNTsb9/xaUh4lDAC4Uzdl6+Z5jbujaGzNTtk4eWhKnpxaDk7qcJJ7NTzL7yb5QlK+kJSLM37E1/pqJdz62oU/TfKSJLsO6P6wMbVzeFYe+eUpbXXZxBtS8qZGJjIIjxkzpRSwAH7d6KrRpKwQBADc7dXEEVmxZM2092P5xGOSckxqPTLJbyfZpc+T/a+UnJ/kgmzKRN655Jq+6PUJ5+6WWbOee+sHcMqiJDsP2B7xs7QnD8ppR313ylo8/vJZmXv9FUn2bWAen8j4kmMdKOneTw4A/+d1F++ZTZu+He8fAoBtuZz4q4wvfsO0ND164b4pk8emlqclmT+DQ+4k9dKknJ1ZnbP75nHD0S/unNx0SJIlSXlmUh83IDvF11PbB2flouunLuuJw5L8ewOv7zsp2ScrlnzLsZKu/OKIAOBXTwBWr0jqqCAAYJtclvElB01ZayeuekjarRem1j9I8pgBzLuT5Asp+Ug67Y9PaZFkRy2/8LdS6/OS+ntJHjrD5+m8/Ojap+Xs4yanLt9VH00tv9e4JEr+PiuW/LFDJd1ZTgDc6jWrH5mt9ao08UWYANBMm7N7e/eMLbqlZy2MnTU719/72Sn1JUmOSNISe5LkliSfSfKh7H7JBRkb6/RHt2vJslUHp7T+OMlzk+w0M6+0y5lZsfjVU9beKRc8MFta30jz3ve2KSmPzPji/7LLssO7lQgAbjM68U9JXiAIANgONQdn5ZJLe3RB/rIkxye5v6Dv0ndSy7uz0+z3562HXdc/517nzUsZelFqXpnkETNv36h/lJVLPzCF57InJTmtgUm8LeNLXmc3ZUcpYAEkyUmrH5pO/XaSWcIAgO25oiijWbF4Zfcuwlc9MWm9LqnH+l3ebjcl+XBqXZmVS7/eN70+9qx29t7zuUl5bZL9ZtB83JzaOXjKvkzY2Be6l//O7tfsnbHjNttF2RFuvwVIkk4ddZIMAPdArSNd2c6JF45k2ap/Scp/JPX5fpfvkV2SHJ9SvprR1Z/MSRf2x8vtzz5uMuNLP5rxxfsn5RlJrpwh87Fz0vpElq3ZY0pae9+CLWmlge9yrffNxnnPsnuyoxSwAF45ce8kLxUEANwjwzv0p0+6cH6WT5yXVueylPKMeEqkS9d59VnpdC7P8onzsuyCQ/qj26VmfPE52f2SA1LLHyT5ft/PRMkjUyY/mNSpWdenL1mV5MIGJvEyuyU7vjsBDLrRib9I8peCAIB7qD25V0476ufb9WdefcGj027/1W2PCrou6b3PJvVPM770K33T4xPOnZNZc05OrX+aW+8u6+Mr7/qKrFj67ilp68QLR9LqXNqw/aqm09onZxzxTbsi93g3EgEw0I4/Z5fM3eV7Sb2vMADgnl6a1qdl5dJ/26b/7+su3jObN705NcfHY4JTrZPko6ntN2Tlou/1Ta+XrXlYsvWM2+7Q61c3Ju39M77o6ilpbfnEp1PzO806TmRFVi45yW7IPeURQmCwzd3luYpXALCjVxXl7l+8PTbWyujE8dm06Vu3fXVO8Wp6rv9ekDL59SyfeFOOP6c/7mpaueh7Wbn0mak5Nin/3a9nncnWD+bYs9pT0lpt/XmSyUYlUPKHGVuzk92QHTmAAQyyPxQBAOywu/7q2egFC7Lx0HVJ3pvkPuKadjul5g2Zu/M3MrrquL7p9coln0inPjEln+nP2MshefC9T56SpsaP+FpqPtKwAO6dGyafY/fjHu9BIgAG1snnPzyT7f90LASAHXZFxpc86Tf+29Ev7pxy01hqlicZElNjTSR5WcaXfKdvejw68UdJzkyyc59lvSmTkwvyjqO+OkXnut9Mk+52rLkkK5ccZpfjnnAHFjC4JtsvjOIVAHTD437j0agTVz85uek/UnNKFK+abkmSr2T5xPIpe8RtR40veX86OTDJt/os6zlpt94zJV8lPO2o7yb5aKNGX3JoRtc8yi7HPaGABQyoWlLzB3IAgK7YOQ/Y4xFJkrGzZmd04tS06pokjxZN39glNafnwfMuzavPf0Jf9PiMJVdm1k4Lkny6v6Iuh2T5hVPzGotWTk1SmzX8znPtbtyjpSMCYCCNThyW5POCAIAuqfnd1NbX0+p8NMmTBNLXbkkpY9nt4rdnbKzTB4uvZPnEG1PLG/so459nzpzH5a2HXdfzlpat+peGfcHxKxlfsp/djO3lDixgUM+yj5MBAHT1ymI0rc6GKF7NBDul1rdm46HnZ3T1g5rf3VKzYulYkhcl2dwnGd8vmze9eWr2zdbbGjb2J+akicfbzdj+nxmAQVTLU4QAAN38bc2Tk8wVxIyyJKlXZnTVM/uit+NLPpSUpye5sU/2mT/J8lUH9LydFYu/mOTiRo29E48Rst0UsIDBs3ziMSl5pCAAAO7WvKR8OqMTp2ZsTfNfxj+++IKUcmSS6/sg23ZqOXVqmirjDRu7AhbbTQELGDw17r4CANh2JclrcsPk6iw77wGN7+2KxV9MaR2e5Jo+yHZJll+wuOet7N46J8mPGjTux2bZBfvbtdgeCljAIJ6CKWABAGyvmienDF2RZRcc0vi+rjjiP9JqHZVkY/NzLW9Jam8/sDa2aGuSv2vWOXnbXVhsFwUsYLCMfnHn297RAQDA9tsrpbU6y1e/qPE9Pf2IDSn16CS/aHZHy0hGJ3r/lcCh9vuSbGnOuOtze164Y0ZRwAIG7Kh306FJdhYEAMA9Nie1/kNGJ96asbFmX1OuWHpZWnl2GlW4uSPlLTn2rHZPm3j7op8m+UyDBv3wnLj6iXYntvlSTgTAQOlkoRAAALritdl46Kdy/Dm7NLqXpy9ZlVr/pOFZ7psH3/tZPW+llvc0atQlR9uN2FYKWMCgWSACAICueWbm7nRhTlpzn0b3cuXSD6TWtzS6j7We0vscjliT5HuNGXPJUXYhtpUCFjBo5osAAKCbykg6kxM55YIHNrqbK5e8ISmfanAPF2T0gt/u8VzVpHysQWM+NKdcci/7ENtCAQsYHLf+zeBDBAEA0HW/lS2ty3LSxOOb28VSU1t/lJr/bPAl+mt630T9pwYNeHa23HyE3YdtWroiAAZGZ9LjgwAAvfPgdHJZlq1+SmN7uHLR9al5VpKbGtrDYzJ64b49beH0JVcluaIxI64tjxGyTRSwgJnvlEvuleWrDkzJC4QBANBT90qpn8no6t9tbA/PWHJlak5paO9K0hntfTMNugur1KfYbdjGnQNgBnntqt2ztQynU0eSsiDJfkke5ngHADCltiT1BRlfelYzu1dLRifOS8qRDezcLzNrpwfm1EN/0bMWTrnggdnS+lFjzpFbk/vk9KO+YbfhrgyJAOhrJ07slXYOTyeLUnJYNudxSVrqVQAA02pWUj6a5ROzs2LJh5vXvVKT1S9J6pVJ5jWsc7tm683PS/J3PWvh1CN/nNFV65Iy0ogRd9pHJVHA4i4pYAH95fjLZ2WXjYel5GlJPTLJ41NT1KsAABqnnZoPZdmq2Vm59AON69344v/K6OqTk9q8vtXy0vSygJUkpfxLappRwKr1iCRn2GW4yyUrAqDxXrFm18zuPD0lv5PUo5LsLhQAgL7RSckrsmLJe5vXtVqybPXnU3JoA/u2X8aXfqVnm1+2ap+UclUzxlr+O+NH7HXrnXFwJ6tEBEAjjX5x55Sbn5Zaj0vy1CQ7CwUAoG/VJC/O+JIPNe+8c9UTk/KlNO8JpTMyvmRZb8c+8Y0kj23GcNuPzviiq+0q3BlfIQSaZfmqAzM68d7kpp+k1rOSPCeKVwAA/a4k+fssv/CYxvXs1ruc3tXAzJ6XY89q93hW/qU5K2TrwXYT7ooCFjD9Xrtq94xOnJjRia+llkuTHB+PCQIAzDRDqZ2zs3zVgY3r2dbNf5Xkhob1aq88aM/DetpCp36uMaOtOcguwl1RwAKmz/KJx2R04q3ZXL6XZGWSxwsFAGBG2yW1fDbLVu3TqF6decx/p+a05l2xl+f0dPt7XPfFJDc2Y7BFAYu7XiEiAKbc6MRhSX1dUp7iOAQAMJB+kJSDM774vxrTo1es2TVzJv8zyf0alNNPsvsle2dsrNO7c/NV5yflyAaMdTKzdtozpx76C7sHd8QdWMAUqSXLJ56W0VWXJPl8Uo6J4hUAwKB6SFL/LSefP7cxPXrXol+mlBUNy+kB2XjoIT0+TV/dkLG2s+WWEbsGd0YBC+i90Ymjs3z12tSck5RDBAIAQJLfymT775PanL/U3LLp3Umua1RKtT6rp9tvt1Y3Z6zeg8WdU8ACemf0gt++7Y6rz6VmoUAAAPg1z8uyC09qTG/OPOaG1NqsLxKW1tE93f69Pn9FkmubMVbXDNw5BSyg+159waMzOnFW0rrIHVcAANylUt+W0Ymjm9OhyXcm2dKc/tTHZfn5D+7Z5sfGOkm9rCGD3dcOwZ1RwAK6Z9maPTK6ekXara8mOVYgAABs43Xph7NszcMa0ZuVR/8kKZ9uVkRDi3u6+VqaUsB6WKPei0bjDhQAO/yLl+UTL0iZ/EZSR5PMlgkAANvh3imTn8oJ585pyPnt3zbrdDtLe7r9UtY2ZKStTJZ97A7c8eIA2BEnnf+4jK5enZp/SrKXQAAAuIcOSHv2XzeiJ+OLL0nq1c2Jpi7u6cvua2tdkk4zxtryGCF3vDJEANwjY2uGMrrqdem0v5xkkUAAANhhJcuybPURDehITco/NSiZvTK65vE92/rKRdcn+WZDxqqAxR1SwAK230kTj8/GyS8k5W+SzBEIAABdu0Yt9YN53cV7TntP2pP/lKQ2Jpk6OdLjFtY1ZKAKWNzJwQFg239MSkZXjaaTLyUZlgcAAD3w4Gy+5Z3T3ovTjvpuSi5vTiylt+ffJVc2ZJyPtwtwRxSwgG1z8vn3y+jqc5KyIu66AgCgl2r5vYyuen4DetKcrxGWjPQ48682ZKQPzSmX3MtOwK9TwALu3ujE0ZlsfyXJU4UBAMDUKGfmhHPvO71dmPx0gwJ5Qo4/Z5eebX3WZFMKWCWbbnmc9c+vU8AC7kItWb76tUn+Lcn95AEAwBSal1mz3zqtPTj9qG8k+W5D8hjKvXZ6Us+2fuqRP05yTSNGWvJQy59fp4AF3LHXXbxnRlefk1rf6lgBAMC0qHlxTlp16PR2okw0Jo/JHNDjsTbjLqxSH2zx8+tclAK/6aTzH5dNt6yLRwYBAJheJZ3yroytGZq+HtTVzbmCL4/t6fZrrmrIQBWw+M1VIQLgdk6aWJpO+9KkPEoYAAA0wBOzcfLEaWt9Mhc1JolaevtuqNJpyOOS7sDiNylgAf9n+aqXp5Nzk+whDAAAGmQso6sfNC0tn7HkZ2nMe7Bqj+/AKgpYNJYCFnCr5atfm1relWRIGAAANMyuSf2LaWu91MsaksOD8oo1u/Zs6+1WMwpYtShg8RsUsGDQHXtWO6MT773tZe0AANBUL8mrL3j0tLRcs74hGZTs3MO7sDqbv9uQUd4/x18+y5LnVylgwSAbO2t29p738STHCwMAgIYbSrv1pmlpubS/2ZgUJjsP79m2x4++NsnGBoyylV1+8SBLntsvCmAwnXDunGyc98kkzxYGAAB94rgsX3XAlLday7eaE0F9QI8b+EEjhlkmPUbI7ShgwSA64dw5GZp9dpKnCQMAgL66hq3lLVPe6u75XpLNzYig9LiAVX7eiGHWel/Lndvv/MBgOeHcOWnPPifJ04UBAEAfekqWTRw0pS2OLdqalO80YvQlD+xtA/W/mzHO1u6WOr9KAQsGybFntTM0+59SslQYAAD0rVJOnvpG67ebMfieP0LYjDuwShSwuB0FLBgUY2Ot7D3vg0mOFQYAAP2t/s40fJGwGe/Bqq3BuAMrnT2sc36VAhYMio2Hjid5gSAAAJgR17LtsnyK2/xJI0Ze6p693X5pRgGrtnazzLn9Tg/MfKMTJyV5tSAAAJg5yh/mhHOn7kXftWxsyMB37enWO7mmGcN0Bxa3p4AFM93y1ccmOVUQAADMMDtn1qxXTllrpXNDQ8Y9t8cDvbEZw/QSd35tRYgAZrDR1cOp9R/t6wAAzEi1HJ+xNUNT0lYnTbkDayhja3bq2dbL5E0NGacCFrfjohZmqtesuX9SP5lkJ2EAADBDPSAbO0+ZkpZKuaExo/7vyd7dhdVpNaSAVfewvPlVClgwE42dNTtbJz+ZZG9hAAAwo5X6kilpp92YO7CSnUrv3oM1lIY8QljmWtz8KgUsmImuv/fKJAcLAgCAGa/mqTlxYq/etzP5i8aMuWzt4bV8U96BVdUruB0LAmaa5RPPTakvFwQAAANiVlr1DwZqxHWo07Ntt1qbGjLKYmlzu6UpAphBRtc8KjXvEwQAAIOlvLjnTXRmtxsz3M2tyZ5te8umZhSOqnoFt2dBwEwxdtbsZPLjSXYTBgAAA2afvPr8J/S0hTLZnOvnnbd0ZvyMFndgcXsKWDBTXD9vLMmTBAEAwEBqt5/V0+1PTu7SmLF26taebXt2qymFIwUsbkcBC2aC5asOTMlrBAEAwAD73d5ePbfv1ZiR1tm9uwNrS7sphSP1CiwImFGOP2eX1PKhJEPCAABggO2f0YlH9GzrpTSngLX55l8MwHy6A4vbUcCCfjd3579I8hhBAABAL+/CqvMaMsabcuYxvftSYG3Nasg41SuwIGDGOHFivyTLBQEAAEmSZ/Zu0/UBDRnjdT3deqlzLSOaSAEL+tXYWCutvDvJLGEAAECS5MC8Ys2uvdl0eVBDxnhtT7feya4NGedNljO/SgEL+tUNh/xRkoMFAQAA/2tW5kwe2qNtN6WAdX1Pt96cO7B+aTnzqxSwoB+dcO5uqeWvBAEAAL+mZFGPtvvIhoywt3dgtUpD7sAqv7CYud3SFAH0oaHZf57kfoIAAIDf0JsCVs2jmzG8+sPebn6yIQWsqoDF7ShgQb85+fyHJ3m1IAAA4A7UPCnL1uzR1W2ecO59k+zRkBH+oKdbL9m9EaMsCljcngIW9Jut7bEkcwQBAAB3qJ1sPaSrW5w1tF+Dxvf9Hm9/r0aMsra8A4vbUcCCfnLihY9NyfMFAQAAd6GU+V3dXi1PatBl/Pd6uvlOuX8zxllvsJC53coXAfTTHtt5S5IhQQAAwF3qbsGp5IDGjKxTe3sHVkkzClilugOL218OiwD6xOiqJyZ5liAAAOBudfkOrCxsyLhuyhmLf97jNprxsajqK4TcngIW9ItSXpukCAIAAO7W3nnNmu7cSfSaNfdPyqMaMq6vJqX2uI2GPEKY/7GM+VUKWNAPTlr90NQcJwgAANhGWzrdeexvsnNYg0b1lZ5ufWysleQBjRhpKz+2iLn9kgCar1NHk8wSBAAAbLN9u7KVWg9pzIhq/Y+ebv+a335gkp0aMtr/soT5VQpY0HSnXHKvJC8WBAAAbI/arcf+RhozpFKv7On2W51HNGasQ1UBi9svTxFAw2255YVJdhMEAABsh5JHdmlLTXn/Vc2cnXtcwOpaZjvql3nb0o0WMbdfnkDT/YkIAABgu3Wh8FRLknkNGc/389bDrutxG025A8v7r/gNCljQZMsuOCTJEwUBAADb7cEZO2v2jm2i51/82w714ilopCkFLI8P8hsUsKDZu+gLZQAAAPdIOzfMe1gXtnN9I0ZTMgUFrLpPQ+ZOAYvfvDoWATTUCefOSclxggAAgHuoUx/Yha18pxFjmWx/vqfbH1szlEQBi8ZSwIKmas96apI9BQEAAPf0ird13x3eRi3rGzCSn+WMRd/qaQsb62OT7NSQmfuBxctv7M4igIYq5XlCAACAHdCp99vxq+bO6gaM5OKev4+r1v2acy2Ur1u8/MauKAJooLE1OyV5iiAAAGAHlOx4AavOPTfJL6Z1HLWcPwVZNaeANZmrLF5+nQIWNNENk0uS7CoIAADYAbXs+COE4wffnOQD0ziKW7LT7E/2vplOUwpY1+aMJT+zePl1CljQTL8rAgAA2EEl9+7Kdjp1RZKbp2cQ9YN562HX9biNkrQWNmLOqruvuGMKWNA4taSTo+UAAAA7fG69c1c2c8bSH6TUU6dhAL9M6fx1z1tZvvrRSb1vI6asKGBxxxSwoGlG1zw+JQ8UBAAA7KDaxa/q7XbdXye5fIpH8OdZcdQPe99MObhBs6aAxR1SwILG6SyRAQAAdOWKd07XtjV23Oa0J49L8tOp6Xz5VMYXv2NKmqr1oOZMWvEFQu5kdwaaRgELAAC6odY5Xd3eaUd9N6Uek+SaHvf8omTnFySlTk1ODboDa2vLHVjcIQUsaNYvbElysBwAAKAbyk5d3+SKpVeklSen5j971OdPJbscc9vXD3tv2Zo9UurjGzJh1+fMw//LuuWOKGBBk5x0wWOTzBMEAAA02OlLrsqcOj8lH+niVm9IyZ9k/IjnTFnxKkmydf/m1Abquim764y+o4AFTVKHDhQCAAB0Scnmnm37bUs3ZsWSF6TkiJR8fge2tDUpZ2Vre9+sWPLeKS/gtLJPg+brUouWOzMkAmiQ2hlJihwAAKAr59d1c8/bWLFkTZI1WXbB/imt56XkiNQcsA3X299LyT9lS/t9OXPRj6YvpNa8pCE3PdVymUXLnVHAgkYp+8kAAAC6dn69ecqaWnnkl5N8OUly8vlzs3VoJKU+MSkPTercpG5OyTWpuSJ1cl1WHv2TRkTUqa2G/B16J7WtgMWdUsCCxqglWb2vHAAAoEt6+QjhXTntqBuTXHjbP03P6IaG9OQbWbnoeouWO+MdWNAUyy/YO8nuggAAgK65WQR3p3ynIR3x/ivukjuwYLqNrRnKtZsfl7SeIwwAAOiimp8L4W6UrV9ObTehJwpY3CUFLJhqyycek1oOSeohSfbPxsknpN2eEx+LBQCA7ir5mRDuxoqjfpjRiW8lecy09qOlgMVdU8CCXlu25mFpbX1Kalmc5NDU7BXVKgAA6L2OAta2KWcl9c+nsQPX5l6XfMM8cFcUsKDbjj2rnQfPe3JqeXqSpySTj0stcgEAgKmngLUtauv9KZOvm8YawYczNtYxEdwVBSzohrGxVjYefFjSOi7Js91lBQAADeARwm2zctH3smziwyl50TS0viXJGSaBu6OABTtidOIRSXlxNtYXJdlbIAAA0CAKWNth658mQ7+bKf8yevnbjC/+jvy5OwpYsL2Ov3xW5l7/7CR/nGRRPB8IAABNtCW7Xfs9MWyjlUf/JMtXvTq1fGgKW/1ydm/9qfDZFi68YVuNnjcvZdYfp9ZXxd1WAADQdFdlfMm+YthOyyf+NjWvnIKWfplOa0HOOOKbQmdbuAML7s4Ja/bO0NbXJuXFqXWuQAAAoC9cJYJ7YLdLXp0bDt0jNb/fw1auT6s+PeOKV2y7lgjgTpy46iEZnXhnhiavTsqrkiheAQBA/1DAuifGxjrZ7ZI/SPL29ObLVD9NaR2e05deImy2h0cI4dedtOY+6Wx9Y1KOTzJbIAAA0JdXu8/LiiUfF8QOWLbqqSnlPeneK1Q+kaH2CXn7op8Kl+3fpYFbjX5x5+TGE5Pyukz5lzcAAIDuqvtlfOlX5LCDjj9nl+y684mpOSHJA+7hVq5K6p9mfOm/CJR7SgELkmTZxHNScnqShwgDAAD63g350bXzcvZxk6LokrGzZue6PRellaclZUGS/ZPsdBd/4pqUekFqfW/Gj/x3AbKjFLAYbKNrHpVMnpnkaGEAAMBMUc/N+NKnyqGHTjh3Ttqzn5RWeWySvVLrnKTenJQfJu3LM77oaiHRTb5CyGA6/vJZmXv965PJ1+eu/9YAAADoN7W446fXzjxmU5JLb/sHek4Bi8EzeuG+yfUfSjJfGAAAMAPVlgIWzDAKWAyOY89qZ+89X5N0xpLMEQgAAMxIv8zNu31JDDCzKGAxGEZXPyilfjQ1TxYGAADMYCVfyPsWbBEEzCwtETDjjU4sSeoGxSsAABgAtXxGCDDzuAOLmevYs9rZe95bkpwSX9wEAIBBMJlO/bQYYOZRwGJmOuWSe2XzzR9O8gxhAADAwPh8zljyMzHAzKOAxczz6gsenS23/EtK2UcYAAAwQEo9WwgwMylgMbMsn1iUmk8l2UMYAAAwUCbTHvL4IMxQXuLOzLFs9e+l5nNRvAIAgEG0Jm9f9FMxwMykgMXMMDpxYkr9cJI5wgAAgEFU/1YGMHMpYNH/Rif+MslK6xkAAAbW9/Oj6z4rBpi5vAOL/jY68ZYkfyoIAAAYYLX8bc4+blIQMHMpYNG3v1BZfuEZqfUEWQAAwEC7KWXLB8QAM5tHruhPyyZWKF4BAABJPpzxo68VA8xsClj0n+WrxlLKMkEAAMDA25LkbWKAmU8Bi/6ybNUJqeWNggAAAJL63owv+Y4cYObzDiz6x+iq5yflDEEAAABJbkyd/GsxwGBwBxb94aRVhyblA0mKMAAAgCRnZOXRPxEDDAYFLJpvdOIR6bQ+lWSOMAAAgCTXJ1tPFwMMDgUsmu21q3ZP8rmk3lcYAADArcobfHkQBosCFg1WSza3PpDkMbIAAABuu05Ymx9d8245wGBRwKK5lk+8ManPEgQAAHCbzUn7j3L2cZOigMGigEUzLb/wmNTyBkEAAAD/q9S/yfgRXxMEDB4FLJrnxIm9UjsfsD4BAIBf8c3sNvRWMcBgUiCgWcbGWmnlw0n2EgYAAHCbW1LL8zO26BZRwGBSwKJZrj/05CRLBAEAAPyfMpqVi78kBxjgo4AIaIwTJ/ZLK+uTzBYGAABw22XrRzO++PflAIPNHVg0w9iaobTy/iheAQAA/+db2brp5WIAFLBoho2TpyRZIAgAAOA2naTz+znzmBtEAXiEkOm3bNU+KeWKJHOEAQAA/IqNKTk7pX4opy/5QlKqSGAwKWAx/UYnLkyySBAAAMBd+FaSM3LjzR/M+55+kzhgsChgMb2WTzw3NR8TBAAAsI3+JyXvzqackXcuuUYcMBgUsJg+x5+zS+bufFWShwoDAADYTr9M8s5s3fzX3pMFM5+XuDN9dtn5z6N4BQAA3DO7JnlthmZ/M8tX/XHGxlzfwgzmDiymxykXPDBbWt9OsoswAACALtiQdP4k40deLgqYeVSomR5bWm+K4hUAANA985PWFzM68daccK4vnMMM4w4spt5J5z8unfZXkgwJAwAA6IGvpbR+PyuO+A9RwMzgDiymXqf9V1G8AgAAemff1M6lGV39KlHAzOAOLKbWslX7pJSvRvEUAACYGh9Le/KlOe2oG0UB/UsRgalVWn9u3QEAAFPoeZlsfzGvWf1IUUD/cgcWU2d0zaOSyW8kaQsDAACYYtcm+Z2ML7lYFNB/3AnD1KmTJ0fxCgAAmB7zklyQ0VXHiQL6jzuwmBqj581Lhn6YZBdhAAAA06iT5JSMLzldFNA/3IHF1Ciz/jiKVwAAQDOug0/L6MRbRQH9wx1Y9N6xZ7Wz97yrkzxMGAAAQIOuiN+ZFYtPSEoVBjSbO7Dovb33fFoUrwAAgKapeWWWrz4zqW7ugIZTwGIqfhReIgQAAKCh1yuvzOjqcUFAs6ky01snTuyVVn6YZJYwAACA5qqvz/hS78WChnIHFr1VygujeAUAADT/4uWvs3ziZXKAZlLAose/AfUPhAAAAPTD1Utq3pXlE88VBTRxB4VeOen8x6XT/rogAACAPnJLUn4744vXiQKawx1Y9E5tPU8IAABAn9kpqZ/JKRc8UBTQHApY9E4txwoBAADoQw/IltbZOeHcOaKAZlDAojeWrdonyeMFAQAA9KmDMzRrpRigGRSw6I1SjhECAADQ5xc2f5LlEy+QA0w/BSx6RQELAADofzV/mxNXPUQQML0UsOi+k8+fm+QQQQAAADPA7mm1PpDUIgqYPgpYdN9ka0kSLzsEAABmiLo4y1efIAeYPgpY9EBZJAMAAGBGqXlrTrzwsYKA6aGARS88WQQAAMAMs3NanXeJAaaHAhbddcK5uyXZTxAAAMAMdERGV/+uGGDqKWDRXbN2OjRJWxAAAMDMVE/L2Jqd5ABTSwGLLh/L60FCAAAAZrBHZOPkcjHA1FLAoss6T5IBAAAww70+p1zwQDHA1FHAosuKAhYAADDT7ZrNrZPEAFOniICuWXbeA1KGfiwIAABgANyYVvthOX3R/4gCes8dWHTRrP1lAAAADIi56UyeIAaYGgpYdE+pjxcCAAAwQF6VUy65lxig9xSw6KbHiAAAABgg87J508vEAL2ngEX3lDxOCAAAwGBdB9Xjk+r90tBjClh0T81jhQAAAAyYR+ekiUPEAL2lgEV3nHz+3CR7CQIAABg4tbxYCNBbClh0x5ZZewsBAAAYSDXH5RVrdhUE9I4CFt1R6oOEAAAADKhdM2fy2WKA3lHAoksrqeMOLAAAYHDV+iwhQO8oYNGlg3UeKAQAAGBglXJExs6aLQjoDQUsunW0vo8MAACAAbZrrr/3oWKA3lDAojtK9hQCAAAw2FfY9SghQI92LxHQFbXsIQQAAGCwr4tytBCgNxSw6NaReg8ZAAAAA+6JOfn8+4kBuk8Bi27ZTQQAAMCAK5kc2l8M0H0KWHTLHBEAAAADr+QAIUD3KWDRLT4XCwAAkM5vyQC6TwGLbpklAgAAYODVsr8QoPsUsOiWIREAAADkMTn+nF3EAN2lgEW3FBEAAACknT3m7CEG6C4FLLrlFhEAAAAk2ZyHCwG6SwGLblHAAgAASJKUJ8kAuksBi265WQQAAABJWq3dhABd3q1EQFcUd2ABAADcqipgQZcpYNGl43N+IQQAAIAkVQELuk0Bi275HxEAAAAkKdldCNBdClh0iwIWAABAktQySwjQXQpYdEcp/y0EAACAJCmutaHL7FR0R6ejgAUAAJAkpbrWhi6zU9EtPxMBAABAkpq2EKC7FLDojtL+nhAAAABuvUISAXSXAhbd0d7yvSRVEAAAALlZBNBdClh0x2lH3ZjEe7AAAABqbhQCdJcCFt08Sn9XBgAAwMAruUkI0F0KWHTxIF2uFgIAAIA7sKDbFLDoovIVGQAAAAOv5hdCgO5SwKKLFLAAAADSqj8VAnR5txIBXbOlXCkEAACA9s9kAN2lgEX3nLnoR0muEQQAADDQJqOABV2mgEW3/YcIAACAgTZry8+FAN2lgEWXlS/KAAAAGGCdbJr8sRiguxSw6K4aBSwAAGCQfT9nHrNJDNBdClh0e0ldmqQjBwAAYCDVXC0E6D4FLLpr5aLrk3xdEAAAwEAq+bYQoPsUsOi+Wj4vBAAAYEAviNyBBT2ggEX3lc75QgAAAAbzeqh8WQjQfQpYdN+snS9MslkQAADAgKmZPefLYoDuU8Ci+0499BeJrxECAAAD57t562HXiQG6TwGLHqkeIwQAAAbNl0QAvaGARY9WVvlXIQAAAAOlZr0QoDcUsOiN05dcleRrggAAAAZGbf27EKA3FLDo4cG7nC0EAABgQPwyN+/mEULoEQUseqe99eNCAAAABkLJF/K+BVsEAb2hgEXvnH7UN5JcJQgAAGDGq/UiIUDvKGDR44N4PiQEAABgxuuUc4UAvaOARW/dWsByGy0AADCT/SBnLP6KGKB3FLDorTOW/Cwl/yYIAABgxio5JylVENA7ClhMhfeLAAAAmLFqPisE6C0FLHrvh9d+LskPBAEAAMxA12Xr5jVigN5SwKL3zj5uMql/KwgAAGDGqTkrZx6zSRDQWwpYTI2tW96b5AZBAAAAM0rJR4QAvaeAxdQ485gbknxQEAAAwAzyg4wvvkQM0HsKWEylM5JMigEAAJgZyj/6+iBMDQUsps74ku8k5eOCAAAAZoDJtPL3YoCpoYDFFB/iJ8eSbBUEAADQ38q/5PTF35cDTA0FLKbWO478dlL/WRAAAEBfK5PvEgJMHQUspt5kfXPchQUAAPSt8o2sWHqhHGDqKGAx9d5x5LeTfEgQAABAnzrVy9thailgMT3ak3+a5AZBAAAAfeaH2f2aj4gBppYCFtPjtKN+nuRtggAAAPpLOTVjx22WA0wtBSymz+7tFUm+JwgAAKBP/CzZ+f1igKmngMX0GVt0S0o5RRAAAEBfqHlzxg++WRAw9RSwmF4rFp+d5BxBAAAADfed7HHt34kBpocCFtOvU1+V5JeCAAAAmqu+3ruvYPooYDH9zlj6g5TyBkEAAACNVLI+40vOFgRMHwUsmuGH15yZkvWCAAAAGqaTWl6VlCoKmD4KWDTD2cdNplP/MMlNwgAAAJqjvi/ji9fJAaaXAhbNsXLp15O8RhAAAEBDXJPN5c/FANNPAYtmGV/87iSfFQQAADDtSl2edy65RhAw/RSwaNwvRLZufkmSn8oCAACYRudkxdJ/FAM0gwIWzXPmMf+dkucn2SoMAABgGlyTofbxYoDmUMCimVYsWZOaPxMEAAAw9eor8vZFngqBBikioME/GiWjq89K8hxZAAAAU3SZ/NGML/59OUCzuAOLJv9w1GxqvzjJ12QBAABMgW9n66aXiwGaRwGLZnvXol+mPfn0JD8TBgAA0EO3pHaOy5nH3CAKaB4FLJrvtKO+m3SeluRGYQAAAD1Rysuz8sgvCwKaSQGL/jB+5OWpeUGSSWEAAABdVcu7s2LxBwUBzaWARf9YueQzqXVUEAAAQNfUrMoerVcLAprNVwjpP6MTf5HkLwUBAADsoG9mzpyD8tbDrhMFNJsCFv1pdPXfJPV1ggAAAO6h/0naB2V80dWigObzCCH9aXzx65O8XRAAAMA9sDHpPEXxCvpHWwT0rcs+NJEDv3e/lCwUBgAAsI1uTClHZ3zpWlFA/3AHFn2s1Kw84pUp9TRZAAAA22BzkudkxeIvigL6iwIWfa7UrFj6mtQyJgsAAOAu3JxafifjS84TBfTh1b8ImDGWTyxPzWnWNQAA8GtuSDrPyPiR/y4K6E8u9JlZlk08JyX/mGRnYQAAAEmuS6nHZMXSy0QB/UsBi5lndOKwJJ9Ocm9hAADAQPtRWjkqpy+5ShTQ37wDi5lnfMnFGSojSb4pDAAAGFhfTpk8WPEKZgYFLGamty/+z2zdPJySzwgDAAAGztm58eZDsuKoH4oCZoa2CJix1n1kU456xNm55aE1JU+OR2YBAGCmq0nGMr74hGx47BZxwMzhgp7BsGz1U1Lqh5PMEwYAAMzIy9v/Ts0fZuXiz8kCZh6PEDIYVi7+XIba+yY5TxgAADDDlHw+yQGKVzBzKWAxON6+6KfZ/ZKnJvWUJJsEAgAAfW8yJW/OD689IuOL/0scMHN5hJDBtOyC/VNa/5jkicIAAIC+dFU6rZfkjCPWigJmPndgMZhWHvnl3LjH/CTLktwoEAAA6Btbk7wtWzc/SfEKBoc7sGD5xGNS854ki4QBAACNdnlKPT4rll4hChgsCliQJKklyy58QUr96yR7ywMAABrlZ6n1T7PHFz6YsbGOOGDwKGDBrzr+nF2y6y4npNY/S3IvgQAAwLTakuTdmV3/Im9bulEcMLgUsOCOnLBm77Qn35ySFyQZEggAAEypydR8JLPKm/L2xf8pDkABC+7Kyec/PJPt1yV5SRSyAACg1zpJPplO6w0544hvigP4/xSwYFucdP7j0hl6Q1KPi0IWAAB02+akfjxpvy3jR3xNHMCvU8CC7bHsvAek1X5Zanl1kj0FAgAAO+SGJB9MmTwtK476oTiAO6OABffEKZfcK1s3/VFqfXmSxwgEAAC2y4aU+v60Ov+Y0466URzA3VHAgh110oXz0+kcn+T5SXYVCAAA3KHrkpydWt6blYu/JA5geyhgQbe8dtXu2ZLjUlvPTerhSdpCAQBgwF2f5LNJ/UR2v+5zGTtus0iAe0IBC3rhhHPvm6E5z07qsUmeHC9+BwBgcPw8yTmp5ZPZ45rVilZANyhgQa+dfP7cTLYPSvL0JM9M8lChAAAwg9yc5AspZSKlTORen78iY2MdsQDdpIAFU23Zqn3SyqGp5ZAkByd5tFAAAOgjP0lyWWouSy2XZc/WuowtukUsQC8pYMF0O3Fir7SzMDX7JeW3kvrE3FrU8tghAADTaXOSb6bmqpRclZqrUuu6nLH0B6IBppoCFjTR2JqdsrE+MqmPuPWfPDzJI5J6v6TcP8l9k+wiKAAA7qFNSa697Z+fJ/lBku+nlh+m5Acp9XvZrf2djC3aKiqgCRSwoF8df84u2Xmn+2Sos0sya24mt+6U0to5qXNTWrMFBAAwwGo2JvXW91C1WtclSbZ2tqTTvjabfnlt3vf0m4QEAAAAAAAAAAAAAAAAAAAAAAAAAAAAAAAAAAAAAAAAAAAAAAAAAAAAAAAAAAAAAAAAAAAAAAAAAAAAAAAAAAAAAAAAAAAAAAAAAAAAAAAAAAAAAAAAAAAAAAAAAAAAAAAAAAAAAAAAAAAAAAAAAAAAAAAAAAAAAAAAAAAAAAAAAAAAAAAAAAAAAAAAAAAAAAAAAAAAAAAAAAAAAAAAAAAAAAAAAAAAAAAAAAAAAAAAAAAAAAAAAAAAAAAAAAAAAAAAAAAAAAAAAAAAAAAAAAAAAAAAAAAAAAAAAAAAAAAAAAAAAAAAAAAAAAB3pogAAACAe+rQQw/dM0k2b97cmj17didJbr755s6GDRs2SqeZRkZGdpucnHxkq9V6VK31kaWU+9Va55ZS9ritTlBrrdcnuSnJDUl+VEr5cafT+f6uu+76vYsuuuiXUmSqKWABAABwh+bPnz9raGhon06ns1+SR5dSHp7k4Unul+Q+SebdzSZuTHJNkmuT/KyU8oNa6/dqrd9vt9tf32mnna666KKLbpF0bx1yyCEP3LJly5Ja6yGllEOS7JOkdQ83V5N8P8lVSb6a5LJa66Xr16//qaTpJQUsumJkZGR+rfURkthxtdar1q9f/7UdmIulnU5np6no63XXXXfB1VdfvalpGQ4PDx9Wa91jKtrqdDqf79XfLi5cuPDp9ojbfqxKuX7dunUXz7CTyEPMbFeOmdetX79+YgeOmft1Op2HTtHx4j82bNjwgwYeMx9Ta33sFO3L31y3bt23enSR/ZBWq/VbUzGOVqv1/bVr117Z7+dUrVbrq5dddtnX+3HfX7hw4b6llMf3w7lZvxkeHr53rfW3kxx2W6Hjt5LM7mGTW5N8O8kVtdYvDA0NXXzppZd+LUnHr9yOOeiggx60devWZ5dSnpPkkNzzgtW2+m6t9aIk55dSJtatW3eNWaCbhkRAl37YX57kjyTRlZP7v0zytR2Yiw+VUh4wFX3da6+9HnT11Vf/uIHrcWUp5UlTchAdGlqQZEOP1sK/2iP+d06/lGT+TBnPli1bhpOcZWa7sp9sSLJgBzbxqlLKH0/R8eJlSd7XwBifX0p54xS19ZdJxnqU79G11vdO0Tj+Lsnxvdhwp9M5vpRy/FQMotPpfP/www9/Qj8+ClRKOTbJG6eorR06N+sH8+fPf0i73f69JE9LclAppT3F16T7JNmnlPL8ycnJDA8PX5NbiyDnzJo16/xLLrnkOr942+7AAw88fHJy8lWTk5PPLKVM5TX/w2+7Q+/FSSZHRkYuS3J2kk+uXbv2R2aGbhwswFoCmNoLr3atVRDAdHvojTfe+MYkrxHF4HnUox41Z968ec9I8gdJnpKk3aDu3TvJ82utz9+8efPkyMjImlrrP01OTn5iw4YNN5m9OzY8PPy7ScY6nc5+pUz7w1btWushufXOr/Hh4eHPJ3nftdde+8kmPsFBf2iJgG5djEkBYNt0Oh3HTKAp53Cjw8PDCyQxOBYuXLjv8PDwu+bNm/fT3Ho38NPSrOLVr2vXWpck+VC73f7RwoUL337ggQc+zEz+n+Hh4YOGh4f/PcmnkuzXxENNkt9O8pF58+b9dOHChe9dsGDBE8wc20sBi66otboYA9j2C0bHTKAxxYEk758/f/4sUcxsIyMjjx8ZGflYKeXKJC9PskcfDmPPUsrJnU7n6oULF35i4cKF+w/ynA4PD997ZGTkn5J8McmT+6Tbe5RSjm+1WlcODw9PLFy4cLG9k22lgEU3T34A2AZT/D4KgLuzX7vdXi6GmenAAw/cZ3h4+KO11q/UWp87Q64B26WUZ5dSvjQ8PPypQbybZ+HChU+vtV5Za31Bv54OJVlcSpkYHh7+4m0fL/KROe6SAhZd4Q4sgG3nEUKggf5y/vz5jxPDzLH//vvvsXDhwvd2Op2vJvm9GXrtV5L8bqvVumLhwoV/e9BBB82b6fO67777zh4eHn5PKeVfSykPnCHDOqiU8q/Dw8PrhoeHj7D3cmcUsOjOL4e7CQC255ipgAU0zZx2u/2euANiRli4cOGzZs+efdVtX7QchGu+oVLKKycnJ781PDz8BzN1kAcccMB9d9lll/OTvGyGDnFBktUjIyOrRkZGHm9P5tcpYNEtLsYAtpECFtBQvz0yMvJiMfSvQw455IEjIyOfLKV8MskDBjCCeyf50PDw8L+NjIzsPZMGNjIy8vhZs2ZdUUo5fKZPYq11Sa31ipGRkTftu+++s+3Z/H8KWLgYA5hinU7HXatAUy8cVxxyyCEPlET/GR4e/t0tW7Z8rdb6LGnkmFrrl297r1LfW7hw4f611ouSPGiA5nB2rfUNc+fO/dKCBQuGLWkSBSy6d7KjgAWwjRT9gQbbfcuWLeNi6K9ruuHh4b9K8sn055cFe+XepZR/GR4ePv3www/v2784Wrhw4cJSyoVJ7jug87hvKeVYy5lEAYvucTcBwDZSwAIa7riRkZFniqH5RkZGdhseHv5Ukj+L95fd4U9ukuU333zz5w499NA9+63zBx544MNKKeck2XOA5/CXs2bNerulTKKARfe4GAPYRr5CCPTBcepd+++//x6SaK4FCxY8odb6pSSKjXej1rpk8+bNl86fP/+R/dLnkZGR3TqdzjlJ9hrkuSulrPziF7/4c6uYRAGL7nExBrDtJ2PuWgWafpx64KxZs/5KEs20YMGCA1qt1pokj5TGNntsu93+wsKFC/fvh+v0WuvZSZ4w4HN2/axZs1ZYuvzvjiECukQBC8AxE5hBSikvHxkZOVQSzXLggQeOtFqtC5PcRxrbba9Syprh4eGDmtzJ4eHhZUmOHPTJqrWefskll1xn2fL/KWDRrRMcF2MA235C5pgJ9MW1Qq317w8//PCdRNEMCxYsOKTT6VwQL2vfEXsk+dyBBx74pCZ27sADD9wnibsfk2tardY7xMDtfpREQDf4JDzAtlP0B/rIY2+66abXiWH6DQ8PH9Zqtc5Lsps0dtjunU7nc8PDw49p2vV5p9P5xyQ7m6K8be3atTeIgdvtICLAxRiAYybAXXj9woUL9xXD9Fm4cOEjknwqya7S6Jr7JVl94IEHPqwpHRoeHn5hkgWmJj+dnJx8pxj4dQpYdIuLMYBt565VoJ/MLqW837XD9DjooIPmlVI+F++86oW9O53OqoULF95/ujty26O6bzIlSa31bzZs2HCTJPh1foToFgUsgG0/MXPMBPrNyMjIyMvFMLXmz58/a3Jy8uwkj5FGz5RWq1WnuxM33njjK5M8xHTkR3Pnzn2fGLgjClh0i4sxAMdMYAartf7NwoULHyyJKbxYa7X+NskRkuiZn5dSnrJ27dqfTWcnjj322HYp5QTTkST5q4suuugWMXCHx0QR0CUehwHY9otABSygH92rlPIeMUyN4eHhl5ZSjpdEz9zQ6XSOXrt27benuyPf//73n5HkoaYk37/xxhv/QQzcGQUsusXFGMC2U/QH+tUxCxcuPE4MvTU8PPzwJKdLomc2l1Kec/nll1/RhM7UWj2ee2sOY1/72tc2SwIn0PSaAhbANvIVQqDPj2HvOPTQQ1ddcskl10mjJ1pJPphktz7p79Yk3yilfKvWem0pZWOtdWuSWbXWXVut1u611vvUWvcppTywAf2dLKU8f+3atauaEN78+fMfUEpZ0oCu/CzJl3PrY5W/qLX+4rb/fnaSeaWUB9VaH5bkkUlKD9r/5ty5cz9s9+euKGDRFbXW17VarblT2N4rk+w3RW29s9VqXTmFcW6wopgG6287cWmqq2dY3h8tpUzl3/oeVmt9wRS1dXEpZcpOQDudzv/YfWHK7bV58+a3J3mpKLpveHj4pCRPbvi5/5eSfCbJeXPnzv3Ktr6zaP78+bvPmjXrcZ1O58lJnpLk0CSzprj7r1q7du0nG3NBPjR0dK21TEPTk0kmaq0f7nQ6qzds2PCTbflDhx566J6bNm0aabVaw7XW4SSLkuzShf785UUXXbTVEYC73F9EQFeufNev/8gU/7A/LVNUwEpy/tq1a88xy8xktdY3r1+/3jqfIuvWrbs4ycVT1d7IyEiSvGCK1tLX161b5+tBMPO9ZOHChR9bv379hCi6Z+HChfsmeXNDu/eLWuv7k5y5fv3679yTDWzYsGFjkrW3/fP2+fPn795ut5+a5NVJRqZgDGPr1q1r1Hvcaq1PmYZmz5ucnHzVhg0b/nN7/+Btd16ed9s/mT9//i5DQ0NPqbU+K8lTk+x+D/rz1XXr1n3cEYC7o4AFAABsr1JKed9+++33xCuvvPJGcXRHq9VaWWud07Bu3VRKedumTZve8eUvf/n6bm74toLWR5N8dMGCBYe0Wq2TkvxOevOI2rvXrVv3l00K9thjj21///vfXzqFTXZqra9av379u7s4hzcl+WSSTz7qUY+as+eeex5bSnlFkoO2dRu11jcm6TgCcLfHSBEAAAD3wMN33nnnPxdDd4yMjBxTa13SsG6dXWt93Nq1a9/U7eLVr7v88su/sG7dume1Wq0jknyzm9uutX7yoQ996AlNm/Pvfve7j0qyxxQ2+bJuFq9+3dVXX71p/fr1H163bt3BrVZrfpIPJdlyN3PzpfXr13/aEYBtoYAFAADc08LAyQceeOCTJLFjDj/88KFa66kN6tINtdbnrVu37rj169f/cCobvuyyyy669tprf6vW+qYkm7uwRi+67rrrfv/ss8+ebNq8t9vtJ05VW6WUT61bt+7vp3Aev7Ru3boXDQ0NPbqU8o4kd/ietFar9YYk1VGAbaGABQAA3FNDnU7nA4cffrhXk+yAm2666Y+S7NuQ7ny53W7PX79+/bS9k+i2O3ne2Gq1jkpy7Y6MpdPp/M7VV1+9qaFT//gpameylHLSdAzwi1/84vfXrl17Yq113yRn5/bFqkvXrl17riMA20oBCwAA2BG/deONN54ohnvm8MMP3zVJI97NVEqZ2GWXXQ679NJLG/H138suu+yi3PoupW/fgz/+nVrrU257z1YjdTqdfaaoqS9edtll35vOsa5fv/4769atO66U8uQkX02SWutfOAKwPRSwAACAHVJKedP8+fMfKYntd+ONN74kyV4N6MrZ11xzzdMuuuiiXzYpn3Xr1n0rtxax1m/HH/t5u90+av369T9t+PTfeyoaqbU25i6ntWvXXjI5OfmkWusLfcWU7aWABQAA7Khd2u3236U3X4+b0ddjpZRXN6Af/7bLLrs8v6mP2q1bt+6aycnJY7JtL3f/RavVekpT7iK7K6WU3aZkkbVajcpiw4YNW9avX/9huz/bvZZFAAAAdMGi4eHhF4ph242MjDw9yXTfubb+lltuee5FF120tclZbdiw4X+SPCXJXd1VtbmU8pzLLrvsS32yBKakgFVr/Zm9jZlAAQsAAOiWFQcffPD9xLBtaq3TfffVD7ds2fLUK6+88sZ+yGvdunXf7XQ6xyS5o/52aq0vXLt27QV9tAR2nZKL/larbW9jJlDAAgAAuuXeW7duHRfD3VuwYMETkiyaxi5sLaU8/4orrvjvfsrt8ssvvyLJyb/+35dSlq9fv/6sPlsGm6eikU6n80R7HDOBAhYAANBNz1+4cOHTxXA3F2Kt1ssyve8Me+PatWsv6cfs1q1b994kn/3//7mU8ldr1649o9/GUWu9aYqa+n17HDPiuCkCAACgm0opf3vIIYfcSxJ3fh1Wa33WdDVea/3SQx/60Lf1cX51y5YtL0ny01LK361du/YNfbkIWq2pejfVyMKFC4+z29H3B04RAAAAXfaQzZs3v1kMd2x4ePiQUsoDp6n5Tq315WefffZkP2d4xRVX/Het9SkPechDXt6vY6i1fm+q2iqlvHdkZOTR9j76mQIWAADQiwvmExYuXHiwJO7QsdPVcK317y+//PJ1MyHE9evXf7mfC3G11m9MYXN71FonFi5c+Ai7H/1KAQsAAOjVtcZ79t1339miuH0utdZnT1PbtwwNDb3JFDTG+ilu7yGllEsXLFhwiOjp1x8VAACAriulPHHu3LmvkcT/GRkZOXgaHx/8u0svvfS/zEIzbNq0aUOSTVPc7P1ardZFIyMjb54/f/4ss0A/UcACAAB66Q0HHnjgPmL4X0dMU7ub2u3228TfHFdeeeWNSf59GpoeqrX+ebvdXnvQQQc90UzQLxSwAACAXprT6XTek6SIIul0OodOU9OfcvdV89Ra/2Uamz9gcnLySyMjI+884IAD7ms2aDoFLAAAoNeePDw8fPygh3Dssce2SynD09F2rfX9lmHzDA0NfSzJLdPZhVrrK2bNmnX1yMjI6w866KCdzQpNpYAFAABMhVMPOuigBw1yAN/97nf3S7L7dDS9fv36NZZg81x66aXXJvl0A7qyW631rycnJ7+zcOHCkw4//PBdzQ5No4AFAACD6XVJfjaVF8iTk5PvGeiLr1Zrur7+9s9JOpZ8M3U6nbcnqQ3pzv1LKafddNNN3x0eHv6z+fPn726GaMwxVAQAADB4SinXlVKWTXGzT1u4cOGzBjj2A6ep3c9a8c11+eWXX5Hk3IZ16z5J/qrdbv9geHh4xfDw8MPNFNNtSATAPbVly5YvDQ8PN/Fv8+5jdrb7IuaDw8PDmxratz9cu3btKrNEv6u1njo8PDzWwK7dy+wMrrVr135seHj4eUmeOYXH9Xceeuihay655JLrBvA4sE8pU/4u+5+vW7durdXe+HOxU2qtRyaZ1bCu7ZZkNMmJw8PD59Zaz1i/fv2EGWM6KGABO2IvEcwY85rasU6ns5PpYYbYPdPz7hu4S7NmzXrFli1bDp/C9Xn/zZs3/02SPxm0rEspj5iGNi+Ixwcbb+3atVcNDw+/J8kJDe1iK8nTSilPGx4evjzJ+OTk5NkbNmzYYvaYykUIAAAMqC984Qs/TvKGKW72+OHh4SMGKefh4eF7J9ljGpq+zCrvD7fccsvrk1zdB11dkOQjtz1eOHbb2oaeU8ACAIABt27duneWUr4whU2WJO8+/PDDB+Yu206n88jpaHdycnK9Fd4frrzyyhtrrS9NMtknXb5/kjcm+cHw8PCZ3pNFr3mEEAAA6GzduvWl7Xb7y0nmTFGbj7n55pv/LFN/99e0aLfbj6h1yj80t/n666//j6ls8OCDD37oli1b2jNwCm9av379T3vdyPr16/99ZGTkDbXWv+6jbHZJ8qokrxgeHj631Wr91WWXXea9a3SdAhYAAJANGzZ8Y+HChW8rpfzFVLVZa33dggULPnXbV9hmtFrrdLz/6jtXX331lH6kZcuWLV8spTxwBk7hOUmeMRUNrV279q3Dw8NPSvKcPsuoleRpnU7naQsXLlzVarVev3bt2g2OrnRzgQEAAOSmm256S5KrprDJoVar9d5jjz22PQDxTsd7gr5rVfeleuONN/5+KaVvv/ZXSllaa10/PDz8jwsXLry/KaUbFLAAAIAkyde+9rXNpZQ/ytR+tW7hD37wg1cNQLxzp7rBWuv3rOr+3Re3bt36nCT9fAdTSfLCUso3h4eHT3nUox41x8yyIxSwAACA/7V27drLkrx3Ktustf71woULHzGTcy2lzJ2GNn9oRfevDRs2bJycnFw8xR9Y6IXdkrxt3rx5XxkeHj7MzHJPKWABAAC3U0p5XZIfTWGTu5RS3jmTM6217jrVbXY6nY1Wc3/bsGHDxptvvvmoJJ+dAcN5dJKLhoeHVxx00EE7m122lwIWAABwO2vXrr0hyZ9McbNHDw8PP3+mZlpK2XUamr3Jau5/V1555Y3r1q17RpK/nAHDaSUZnZycvHxkZOTxZpftXTwAAAC3s27dun9L8okpbvaMAw444L4zMc9a69xpaFYBawYtoXXr1o0leX6SX8yA8Ty+1nrpwoULn2Vq2VYKWAAAwB1fMdd6QpLrprDJ+8yaNeu0GRpnmfKLvVZrk1U8s6xbt+6fSynzk6yfAcPZrZTyiZGRkdebWbbpmCYCAADgjqxfv/6nSU6Z4mb/YGRk5MgZGOeN09Cm9wzNQGvXrv32LrvscnCS1ya5pc+HU2qtfz08PPz+Y489tm12uSsKWAAAwJ1at27d+5Osnso2a63vO/zww3edYVH+chra3MUKnpkuuuiirevWrTu1lLJfknNmwJBe8v3vf/+j8+fPn2V2uTMKWAAAwF2ppZSXJ7l5Ctt86M033zw2w3Kc8gLWNL13iym0du3ab69bt+4ZpZSjkvxHnw/nuHa7ffbhhx8+ZGa5IwpYAADA3V4kl1LePJVt1lqXDQ8PL5hBMU7Hi7fvbfUOzD56wbp16w5IclySq/p4KM+8+eab/y7T8M44mk8BCwAAuFs777zz25NcMYVNtpO8f6Y8UlRrnY5HCB9m5Q6Uum7durPXrVv3xFrrs5Nc3qf7yosWLlz4FtPJr1PAAgAA7tZFF120tdb6siSTU9jsfu12e/lMyK+Uct00NPswK3cgddavX/+pdevWLSylHJbks324v7xueHj4WFPJr1LAAgAAtsn69evXJ3nHFDf7l/Pnz39cv2dXa716Gpp9hFU72NauXXvJunXrnt7pdEaSfDpJp0+6XpK8f8GCBY81i/x/ClgAAMA2m5yc/PMk35nCJue02+33pM/fiVNr/fY0NLv3/Pnz72PVcvnll69bt27dsyYnJx9TSnlHkk190O17tdvtfzz22GPbZpBEAQsAANgOGzZsuCnJHyepU9jsb4+MjLy4n3Pbddddvz3FmSVJGRoaGrZq+X/t3Xl4XGd5N/77mZEcZ0/Yw5bNBGhIsDQaKY4hiKalQIFSwGkpS6EtBF5KgdIW3r5tWVooZS+8pSWFlq0UcBt2wtYgAo49MxrJcRoI4DiEPT+SOLGx48ia8/z+iOgLwUlszRlpJH0+1+ULrsS6z3O+59HMOXfOec7P/P5e1Wg0XtTpdE6LiLfHwr5d9JDlnEe//e1vv9iRI0IDCwAAOETNZvPilNK/LfCF7JvXr19/76Wa2cTExE8i4trFaACYsdxWu93+TrPZ/KOU0sk55zdGxE/6dawppVcv5d99yjMgAqALb47FeSX0nXluRJzg8BySq3LON/XpScuNDg/LxKciot2H4xqPiEc4PByqnPOLI+JREXGPBdrksfv3739LRPzWEo7tWxFxrwXe5jlmK7en0WhcGxF/WqvV/q5arb44Il4YEcf02TCP2L9//19FxPMcsZVNAwuYt8HBwTdt2rTpB/02rnq9/viUkgbWoV2EvKTVan1SEtA7KaVPNhqNC/ptXKOjo68MDSzmodlsXl+v11+aUnr/Am72vLGxsQ/mnJdqbF+LiIcv8DYftnbt2uO2bt16o1nL7Wm329dFxF/UarW3VqvVV0TE+REx2EdD/P1arfaGdrt9laO1cmlgAQAA89JqtT4wOjr6tIh49EJtM+f8f+PWOxqXnJzzV1NK5y/wZgdXrVr1mIj494XYWErpOxGxb4H27cSIsMB3ieYaWS8cGxt7W875NRHxlOiPFygMVKvVF0TEHztKK5cGFgAAMP8LioGB583Ozv53RBy1QJu8byzRR4mKorikWl2UfssTY4EaWM1mc91C7dTo6OgNEXG838LyNRqNb0XEefV6/VdSSv8SEffrg2E9q1ar/cXciyRYgSziDgAAzNull156TUT8lSTuXLvd/k5EXLMIm37i0NDQ3ZdZnCn6b62mZafVan2x0+mckVJ6Tx8M5/iBgYEnOCorlwYWAADQlWaz+fcRsVkSB+WSRdjmqsHBwacvpxDXrl17bHh8cEG02+2bGo3Gs3POT46IPYs5lpzz4xyRlUsDCwAA6FZRrVbPj4j9orhTi9HAipTSc6M/1jIqxWGHHfYgU2lhtVqtCyuVyjkRcd0iDuPRGzZs0LhcoTSwAACArm3evPnyiHiDJO7YwMDAFyJiwV+jmHN+0NjY2JOWS44554cs8PYuNXsjtmzZMhURj4mI3Ys0hLvu2LHjAY7EyqSBBQAAlOKGG254dUR8XRK3b27NsC2Lse2c86uW0TXgwxf0wrlS+YDZe6tmszkZEX+4WNsfGBh4iKOwMmlgAQAApdi+ffstOefnxSLcYbSU5Jw/tEibPr1er29Y6vnNPUL2mAXc5Ncajcb3zNz/p9lsvi8iLl6k35/THYGVSQMLAAAoTavVuiSl9C5J3KGPRERnMTacUnr9+Pj4UUs5vO985zvnRMTdFzCzL5qyB8zldYux3Zzz3aW/MmlgAQAApZqdnf3TiPi+JA6s1Wr9KCImFmnz97/55ptfuZTzyzm/cIG39wXX5gf8PZ+IiBsXeruVSuVYnyIrkwYWAABQqna7fVNK6UWSuEOL9Rhh5JxfNDY2VluKodVqtVMj4gkLuMn9g4ODX+7lBsbGxh45Ojr6lbGxsfsusd/z/RHxjUWYv0cFK5IGFgAAULpGo/GfEfFRSRxYp9P5YERcv0ibH8g5f7hWqy25O1mq1eobIqK6UNvLOV+0adOmnr1xb3x8fCDn/PaIODvnPDU2NvaoJXZIdi7CNvf6BFmZNLAAAICe6HQ6L4hFeMRoKWi323sj4p2LOIRTq9XqklqrbK6585sLesFcqby/l/X37t37woj46aLkd885f3ZsbOzv16xZc9gSOSyL0QTdHaxIGlgAAEBPtNvtH0bE/5bEgc3deXPLIg7hKfV6/S+XQlZDQ0N3zzm/Z4E3u/P666//ZK+Kj42N3TMiXnGbf5xyzn90/PHHt8bGxs5cAofmXgu9wZTST3x6rEwaWAAAQM80m80LIuIrkvhFc4u5/9tijiGl9OrR0dHz+zmnWq02ODg4+IGIOGGBN/3h7du397LB+Lq4nTuYUkpn5Jyb9Xr9VePj46v78bisW7fuLhFx0kJvN+fsDqwVSgMLAADopSIi/iAi9oniF6WU3hQReZGH8Q/1ev1p/RrRwMDAv0TEgq8NlXPu2eODY2NjZ+Wcf/dO/tphKaW/2rt372VjY2OP7LcD0+l0Hh0RaRF+Z27yybEyaWABAAA91Ww2v5lzfq0kflGj0fhaRPzHIg+jmlJ6/+jo6Ev6KZvx8fGBer3+7pzz0xd62ymlZqvVurRX1+E55/8bB9/8OS3n/F+jo6PvWbdu3X366BA9dzE2WhTFVT45ViYNLAAAoOeOPPLIv42IrZI4oJfF4t+hliLizfV6/S21Wm1wsQMZGxs7Zu/evR9LKT17kYbw2h7u2x9ERG0ex+d3O53ON8fGxv527dq1xy3m8RkdHX1cRDxiMbZdqVSu9JGxMmlgAQAAPTcxMTFbFMX5EdGRxs9rNptX55zf0g9jSSm9uFqtbqrVaqcu1hhGR0dHcs7tiPj1RRrC1xqNRk8Wb1+3bt1dcs6v6aLEETnnl69ateqqer3+0sVYH6tWq90/IhbrDZYzhx9++NU+NVYmDSwAAGBBTE5ONiPiHZL4RatWrfrbiPhhnwynXq1W26Ojo+dv2LChulAbXb9+/dFjY2NvjIhLI2LNYu383OOuRS9qF0Xx1xFxtxJK3SWl9Ma9e/d+Z3R09HX1ev1+CzIx6vVTqtXqFyLinot0eLZPTEzM+sRYmTSwAACABbNv377/HRHuoLiNTZs27U4p/Z8+GtKxEfFP11xzTater/f0UbF169YdPjo6+sKZmZkrc84vjYjFfITxG0ceeeSHe1G4Xq+vzTmX/cbHu0fEy1JKV42Ojn7wrLPOGutV76Berz8npTQVEact4vGZ9mmxcg2IAAAAWCjbtm3bMzIy8oJKpfIZafy8RqPx3tHR0WdHxMP7aFhDKaWJ0dHRSyPirSeeeOKFGzduLOUx0NHR0ZNTSs/udDrPjYh7ppT6YX9f1KM7fFJK6e0R0as72gYj4qlFUTx1dHT0v1NKG4ui+M9Wq3VFN0XXr19/7/379z85Ip4XEb/UB8fnCz4pVi4NLAAipfTU0dHRWj+PcXBw8E2bNm3a7WgBLH2Tk5MX1ev1D6WUflsaP6eoVCrPLIpia9x6B1Q/OTsizr7mmmt+ODo6+vGI+NgNN9wwsX379lsOtsD4+PjAvn37zsw5/1pE/HrOeV3OuW+eCkopXdhoND7Xi9r1ev1pEfGwBdqVh+ScH5JSelW9Xv9BSum/cs6bq9Xq13POX280Gtfe9gfmFu6/W0rpXtVq9SFFUZyZUjp7//79Z0X/PLmVO53O531MrFwaWABERDx1CYzxgojQwAJYJoqieGG1Wj03bn0Eijlbtmz59tjY2Atzzu/r0yGeELfejfO8u9zlLjOjo6Nfi4jLIuKbOeedKaUbI2I251xJKR0XEfdKKZ2Uc37g3r1710bE4X26X3tnZ2df0ovC69evP3r//v2vX4ydSindOyKekVJ6RlHcuqzX6OhoRMSNcesLFSpzf/6nYZpzjj65G+62Lm+32z/0KbFyaWABAAALrt1uX1ev1/8spfSv0vh5jUbj/aOjo4+LiPP6fKirImLt3J+fa3r87P/POfd95imlv2m329/pRe2ZmZm/Simd0Ge7fNxS+73IOX/ap8PKZhF3AABgUbRarffknK1pcwDVavX5EfE9SSyIrxx++OFv6EXhsbGxB6SUXijiruWBgYF/EcPKpoEFAAAsmmq1+tyI2COJn7d58+YbUkpPlE3P7RwYGHhGjxZuj5zz2yLiMDF3J6X02c2bN2+XxMqmgQUAACyaLVu2fDsiXiWJX9RoNNo552dGRCGNnsgppWdfeuml1/SieL1ef1JEPFrM3SuK4h+lgAYWAACwqE488cQ3R0RbEr+o1WpdGBH/WxLlyzm/qdFofLwXtdetW3d4SulNUi7FN0866aTPiAENLAAAYFFt3LixExG/HxH7pfGLms3m6yPinyRRnpzzJ0466aSX96r+7OzsyyPiJEmX4qVznxGscBpYAADAoms2m5dFxFskcWCdTuePcs6fkEQpvnzkkUf+Vq+aIrVa7f4ppT8RcykubjabnxIDERpYAABAn6hWq6+MCAs1H0C73d5/0kknPSml9AFpdOWKVatW/ebExMS+Hs7jt0XEEaLu2my1Wn2xGPgpDSwAAKAvbN68+eZKpfKciMjS+EUbN27s3P/+93+WJta8/Xen0/nVr371qzt7tYHR0dGRiPgNUXcv5/yXmzdvvlwS/JQGFgAA0De2bNkykXN+jyQObOPGjZ1Go/HMlNI7pHFIWp1O55HtdvuHvdxIs9mcjIi/CG+O7EpK6aJWq/V6SfCzNLAAAIC+MjAw8CcRca0kblduNBp/mHP+23C32sH4/L59+x7ZbrevW4iNNZvN18Std2HdJPp5+d7s7OwzQxOQ29DAAgAA+srmzZtvSCm9WBJ3KLdarT9PKZ0XET8Rx+169549ex6/bdu2PQu50Waz+alqtToSEVscgkNyfbVafexCNRtZWjSwAACAvtNoND4UER+XxJ3m9B9FUYxExNel8XP2pZTObzabf3DFFVfMLMYANm/evP3EE098WES8PCJmHJI7dVNEPNq6V9weDSwAAKAvDQ4O/q/wGNadmpyc/MbMzMzZEfEpaURExI6iKM5uNBoXLPZANm7c2Gk2m39XqVTW5Zw1Zm7fjZVK5dfm1hCDA9LAAgAA+tKmTZt+EBF/KYk7t3Xr1hubzeYTcs7PjoidKzSGnHO+oNPpDE9OTk7308C2bNkydeSRRw6nlM6PiB+bsT/nW5VK5ewtW7Y0RMEd0cACAAD6VrPZ/IeU0iZJHJTcarXek1J6cES8f4Xt+/aI+JVWq3V+u93uy7v2JiYmZhuNxgWrVq16YErpbRExa8rGZ2dmZka3bNniEVjulAYWAADQz4rZ2dk/iIhbRHFwGo3Gtc1m85k55ydHxA+X+e7+JCJedcQRR5zRbDYvXgoD/upXv7qz0Wi8qFqtDkfE51foNN0bES898cQTH7d169Yb/dZyMDSwAACAvtZut6/MOf+dJA5Nq9W6sNPprJl7o+O1y2z39s89Lnhas9l85cTExL6ltgObN2++vNls/lrOeSgiNkZEXiFT88sRMdRsNt+8cePGjt9UDpYGFgAA0Pf27t37moj4miQOTbvd3ttoNP4+pXRaSukVsfQXxd8XEe8aGBh4wNzjgkv+DrNWq7W12WyeVxRFLaX0nrl9XI6+FhHnNZvN8Waz+U2/nRwqDSwAAKDvXXHFFTMppd+PiEIah67RaOxqNBqvrlarp0TEKyPie0tsF76bUvrzTqdzv2az+ZxLL730muV2jCYnJ6cbjcaz9+/ff/+I+D9x67pey8E3c85PbzabZzSbzY1+G5kvDSwAAGBJaDQaWyLinZKYv82bN9/QbDZfdeKJJ56UUvr1iPhoROzv0+HenHP+z4h40hFHHHFKo9H423a7fd1yP0bT09M/bjabr202m6flnNfPzfml9mbJ/RHx0aIoHttsNh/carX+LTSf6dKACFiiro2IHQuxoZTSHnEDS9yuBfzMvE7cQI8/Z16ec358RNxXGvM3t/bQZyLiM2NjY/eMiGfMLfo+Got7o8OeiPhiRHxkcHDwk5s2bdq9gg9TbrVal0bEpePj43+4d+/ec3LOT0gpPSEiTu7D8XZSSltyzh/vdDofWA6Pd9JfNLBYkprN5nOkcGDVavXXiqJYtRDb2rdv34/7MYOiKJ42MDBw5EJsa3Z2tmev/E0pjZjR/T/floJGo/GhiPiQJA74O/w3AwMD71ygbfXl4y6dTuedAwMDn1ygDH7Qw9oXDgwMtBdoP3r2eTQ4OPjaTqdzwUqekwfxmbarXq+fXalU7rEgF0wDA8v+IrzRaFwbEW+MiDeOjY3dsyiKx6SUxiPiERFxUo83vyciGjnnL839abbb7f3Bz5mYmJiNiIvn/rz4rLPOenBRFOeklB6Wc354RJy4SEO7Jue8OSI+Nzs7++np6Wnna/RMEgEAAAAHsm7duvt0Op21OeehlNIvpZROzTmfGhF3PYQynZzztZVK5XtFUXw3Iq6oVCqXR8RljUbjqvBoWdfGxsbuGxFn5pzPSCk9JOf8kIg4LSKOKGkT+yLimz/zp9XpdBrusmIhaWABAABwSMbHx1fffPPNdyuK4m4RcUxErKpUKqkoihwRM5VKZU9RFPsGBgZuvO997/ujuUcWWWBr1649bnBw8D4ppfvmnE+IiLumlAZyzsemlCo55+MjIiqVyu6c82zO+ZaU0k9yzj9OKf24KIofV6vVHzQajR+ERiMAAAAAAAAAAAAAAAAAAAAAAAAAAAAAAAAAAAAAAAAAAAAAAAAAAAAAAAAAAAAAAAAAAAAAAAAAAAAAAAAAAAAAAAAAAAAAAAAAAAAAAAAAAAAAAAAAAAAAAAAAAAAAAAAAAAAAAAAAAAAAAAAAAAAAAAAAAAAAAAAAAAAAAAAAAAAAAAAAAAAAAAAAAAAAAAAAAAAAAAAAAAAAAAAAAAAAAAAAAAAAALBAkggAAKA/rV+//uiZmZkji6I4Mud83MDAwO5bbrllz8DAwE/a7fZNEgJgpdDAAgCARbZu3brDb7nllnUppYflnB+cUjotIk6LiKPu4MduiYhvRsQ3cs7fSCltXr169SWbNm3aLVEAlhsNLBbUGWeccfyqVave2U2NoijeMj09vXmhxlyv13+lKIrndlFiR7vdfrmjX47h4eFaSmmyz4f5z+12+7mO1qEZGhq6d6VS+f4y2JVPtdvtxzuid6xWq70sImpdltnfbrefERFFr8a5YcOG6o4dO94fEQMH+zOVSuXlrVZrxwJk+I8Rcddu63Q6nedu3br1RrNyUX4PToiIp0bE4yNiXUQcVkLZ2ZRSK+d8UafTef/WrVu/Len+NTIy8piiKP74Fy7SUjomIqq3+ceDceCG5tEH+IwamPvnP3VzROyLiOtSSj+MiKsi4vKU0tTOnTu3bN++/RZHo+8+Hz7Szc/3+rtoeHj4vJTSU8qqV6lUXttqtbY68tyRARGwoBNuYODEYUrMAAAp8klEQVTwiNjQ5YfbmePj42snJib2LcSYO53OKSmlbsbcduQBDmhDtwXq9fobennCu2PHjpG5BsNBK4piIiLe0cvg6vX6vYqieF4Jpa7WvFpwlZGRkScVRfF7EfGoAzQpuj7dyjmvi4h11Wr1VcPDw5dUKpV/ufnmmz90xRVXzIi/vxRFcb+U0q8swKYOn/tzfM75ARFxTkREzjmOPfbYvcPDw1+uVCofuvnmmy+84oorfuLILP3vyE6n83c9/A46uyiK90U5TfdIKb1V84qD+gIVAUvQA3fv3v3nYgBYunLOF5V08feIHo/z3HmciJ/b6/w6nc4jStq/T5uNC6NWqw2OjIw8s1arXZFz3phSekyU37w6wHRMj8g5v3f16tXfqtVqL1q3bt3hjga3cURK6TFz8+SHw8PDb37oQx96H7FwIENDQycWRfHRKKl5FRGfPvnkk/9EshwMDSyWqv9dr9fXigFgaZqamtoWEd/ttk7O+eE9vvo/dx5j+uUNGzb0tDFRqVQeXtL+fdZs7L3h4eHHRcSVOef3RsSDFmkY94+It87MzGwfGRl5qqPC7TgqpfSSgYGB7SMjI68cHx9fLRJ+av369UdXKpVPRMQ9SirZ3r9//29t3LixI10O6vxHBCxRA0VRvLPXFwgA9E7O+Qvd1kgpnRM9WtNz7sJt3Tx+9LirrrpqbY+zK+MOrFv27dv3ZTOxd4aGhk6s1WofSyl9MiJO6ZNh3Tvn/MGRkZEvjo6OnuYocTtW55xfsXv37ql6vX66OIiIys033/yBiDizpHrfHhgY+PVt27btES0HPQlFwBI2etVVV71QDABLU0l3/9x9aGjowb0Y30033bQ+bl0z5tBPsCqVnj1GuG7durtExC+VUOrL1rrpnVqt9sRKpbI1In6jH8eXcz630+lcVqvVXuRocQceXBRFc3h4+DdFseI/016fUnpCSeV2RcQTGo3GtZLlkM6vRMASv/h5Tb1eP0USAEtPp9P5QkTMdn0yU6mc05OTpC6aUPNZO+tgzczMnFPSOdznzMLyrVmz5rBarfb3EfHRiDiuz4e7OiLeOjIy8v7TTz/9KEeP23FESukjtVrtd0SxMg0PDz8rIl5aUrn9lUrlye12+3LJcsjnZiJgqX+hFkXxz9Gjx0cA6J25t981Sih1To+G2E0T6mFr1qw5rBeDyjmfU1Kdi8zCcq1du/a4Y4899gsR8UdLadw556evXr36q/V6/V6OIrdjICLeU6/Xf0UUK0utVntYSumfyvq4iYjntFqtL0qW+dDAYjn45ZGRkaeLAWBJKuMxwvGyB7V27drjIqLWRYkjjj/++LN6EVhKqYz1r747NTX1ddOvPPV6/V7VavVLEfHwJboLDy2K4tK1a9c+wNHkdgwWRfGRWq12f1GsDKOjoydHxIVR0hsHc86varfb75Us86WBxbKQc37LmWeeeQ9JACy5z+8y7gI6YXh4eE2Z46pWq+MR0dWLQoqiKP0xwrGxsWMi4qEl5P4Zs688Q0ND9y6K4qsRsXaJ78rJ1Wr1yyMjIw90VLkdx6eU/iU8/bDsrV+//uhOp/OJiLh7Sd/3H5qamnq1ZOmGBhbLxV0HBwffIgaApWVqamoqIrpexLXsdbDKWMOqF+tgdTqdh0WXjbWI0hbQJ25tKlYqlU9HxKnLZJdOyDl/sV6v38/R5fY+2yzqvrxt2LChum/fvg9GxEPKqJdSumTXrl3PilsfIYT5n++JgGXkd0ZGRp4gBoCldi2UP19CkVIbWCmlc0uoMTp3x1SZYZWxn/sj4kumXvfGx8dXdzqdT8bSv/Pqtu5bFMUnyp6/LB8ppVe7lly+duzY8ZaIeFxJ5b5+yy23PHH79u23SJZu+dBhuV0FvX39+vVHSwJgSV0IlXE3UGkNrFqtdkJEPKiEUgP79+8vu7FWRr1N7Xb7JjOve7t27Xpr2c3TPrJ2dnb2g+FRsX7//LwwpXTBT/9ExL/lnC/KObciYlcPN336yMjIuY7A8jMyMvL7EfHCkspdl3N+wuWXX75TspRhQAQsM/fft2/fa2KJvf0HYIX7fEQU0d1/WDu5Vqvdv91uf6fbweScz00plXLRXqlUzo2IT5VRq1arHZFzrpVQyuOD5VzkPSXnfP4y381fr9Vqf9hut9/uiPenoiheOzU11b69fz86Onpyp9N5XEQ8PSJGy9x2zvl3I+ILjsLyMTQ0dE7O+R0llbs55/z4qamp7ZKlLBpYLEcvGBkZ+fDk5OQmUXA7J3v36WX9SqWyR8rzyu3Gbi8GK5XKmTnnF3RR4qac8591uSvXOJqHpt1uX1er1Sa7vbiauxPmA92Op4zHB39mTOeW+DtydlEUq0r4DNTA6tLatWtPyjm/q4eb6ETElpTSl3POV0TEVRFxU6VSmUkpDeScj+10OqdUKpUzi6IYTymdFb17suINtVptU7vdnnLkl55ms3l1RLw9It4+PDz86LkF2E8oqfwTxsfHByYmJmYlvfTV6/VTiqL4z4hYVUK5Iuf8tKmpqS2SpUwaWCzL6+Cc87vWrFmz1rPWHMj09PQPpNCXTYy9EXFBNzWGh4cfn1LqpoG1d2pq6gJHY1F8NrpsYM09XveBEsbyyBL36yH1ev1erVbrR11fDRRFGY+q/XB6enqb6dadarX69og4tgelr46If6hWq+9pNpvX38nfbUXEhyMixsbG7rl///7fTyn9YYnNiZ86LCL+ecOGDaMbN27sOPpL19TU1GdrtdpZEXFJRJxYQsmjd+3aNRIRmhRL3BlnnHF8URQXRcTdSir5x1NTUx+VLKVf6IuAZepBxxxzzMvFALA0lHRXUNcNntHR0dNKurD7qZRzHi+jUBlrLeWcLwpvgerK3AtjHldy2Rtzzi+JiAe22+03HUTz6uc0Go1rp6amXrtq1apTI+LVEbGv5PEN79ix43xHf+lrt9vfKYriqXHrY9vdf8CldLZUl7bx8fGBww47bGNEnFbSd9U72+3230uWXtDAYtlKKf15vV4/XRIA/W/NmjXNiLi+yzIPHBoaunc3BTqdTumLEpfxGOGaNWsOSymNlTCcz5ltXV3orc45v7Xk+dHqdDpDU1NTb2232/u7qbV58+ab2+32K4qiOCsiyl535m9qtdrdzIKlb3p6enNEfLyk8+0HSnRp271799tKfNz906eeeuoLpEqvaGCxnK0qiuLdGzZsqIoCoL9t3Lixk3PuejHglNLDumwm9OKtWr/abYGjjz56LCJWd1mmc9hhh33RbOvqQu9ZEXFyWfVSSp885phjztm6deu3yxzn9PT0ZTMzM6MR0Six7PER8SdmwbLxvjKK5JzXiHLpqtVqfxQRzy+pXHv//v2/5VFjekkDi+Vu7Oqrr36+GACWhK7vDqpUKt08ZldJKT2iB/t1Yr1eP2UR9+untmzevPkG02x+xsfHByLiT8uql3O+KOf85ImJiX29GO/ll1++c2Bg4FE551aJZZ+/du3a48yGpa/T6UyUVOou0lyaarXaoyLiTSWV+97s7OxvbNu2zYuM6CkNLJa9nPPrRkdHT5YEQH+rVqufjS7XZ+pmnaharbY2ylvA9rYXi93e2VVGA8vjg13YvXv3eRFxSknlvj44OPjb3T4yeGcajcaunPMTI+L7JZU8plqt/qHZsPRt3br1xoj4UQmljpLm0lOr1R4Ut74EooyXuu2KiMdedtll35csvaaBxUpw5Ozs7D+IAaC/zb2pb2uXZR4yOjp61/n8YI8eH7z1hKtSmXftuTt/zup2DHNvmGL+nldSnf0R8fRGo7FrIQY99+bdZ0R5i/f/L8szLBs7S6gxKMalZd26dXeJiE9GxHFlfJ6llJ7SbrcvlywLQQOLFSGl9JiRkZGnSgKg73X7NsJUFMW81sFKKfWsgTXXHJvXedfu3btrEXF0l0O4bnp6esr0mp+1a9eeFBEPK6ncm9vt9oIei3a7/aWI+KeSyp2wY8eOc82KZWGmhBo7xbh01Gq1wZmZmf+IiDLWLss55+dOTk5+QbIsFA0sVoyc89uGhobuLgmA/lUURbcNrHk9Rnj66aevivIaFAdyt+Hh4YfM5wfLWJcrpfTZiCjMsPkZGBh4WkSkEkpdHxF/u0i/W6+IiJtKOqd6ulmxLHTbGI+U0vViXFLXQ2+PiEeWUSul9Oqpqan3SJWFpIHFSnK3SqXyRjEA9K9jjz320hIusg+54XPEEUesi4gje3rSNc/HCLtZ1+unymgMrvCLvvNKKvUP7Xb7psXYh+np6R9HxNtKunD9zTVr1hxmZixdc48m36eEUtdJc2mo1Wp/klI6v6TPxA9NTk6+SqosNA0sVppnDg8P/5oYAPrTxMTEbErpv7oss7ZWqx17KD9QFEXPH4ma5xpblYhY3+Wmi9nZWY94zP+i724RcUYJpfZHeY/xze/Ev1J5R0TcUkKpo4455phRs2Ppuummm06PiK6bkDnnHdLsf8PDw4+OiNeVUSuldMmuXbueFeWtqweHdFIEK0pK6Z2nn366N6YA9KkS7haqppTOPsSLsIVY0+ecWq12SAsej4yMPDS6XGg359zetm3b/2dmzfu84RFRzuODF7fb7R8u5r60Wq0fpZQ+XVIujzQ7lvS8fmIZdXLOl0qzvw0NDf1SSulDEVHGyxeuvOWWW564ffv2WyTLYhgQAUvwC/fCnPOTuihx4mGHHfbqiPhjaa7YL/J796p2pVK5sd1u75UyzN/g4OBFs7Oz3V5UnRMRB/XWvfXr1x+9b9+++gLs2tEppdGI2HSwP1AUxSNS6q53klLy9sHu5tIjyqiTUvpon+zSv0fEk0qoMx4RrzZDlp4zzzzzyJIeJcsDAwObJdq/RkdH79rpdD4REceWUO66nPPjL7/8cgv3s2g0sFhyZmdnX16tVoci4uQuTiJfVK/X/6PVavmvRitQpVL5fg8vdM6PiAukDPPXaDS+V6vVroiI07v4XTzodaP27dt3TizQq+Dn7vQ66AZWpVJ5eM7dPaVRqVQ+Z1Z1ZW1JdTb1w84MDg5ePDMzk6P7u8qGTY2laXBw8C0RcUIJpa5oNpsWce/jQz07O/ufKaVTS6h1c1EUT5ient4uVhb1Ok4ELDUppT0ppRd0O/eLovinubdOAdB/urprKKVUP/PMMw9qUfYFenzwp+M6lG2lnHO3b0bceeSRRzZNp66cVkKNn5x88slf74ed2bx58w0R8c0SSh07NjZ2T9Nj6RgfHx8YGRl5S0Q8p6SS/yrVPr7Qr1TeXsZbbCOiyDk/bXp62t12LP68FgFL0eTk5EU55w91WeaM1atX/5k0AfryxLvbu4YGq9XqWQfzFw+xqdSVnPNZB9tYq9frvxQR9+hmeymlz09MTMyaUfMz9zKAMpo0kxs3buz00a6VciE6MzPzQLNkSczjI2q12u/s3r27nXN+cUllb65Wq++Vbv/KOY+UUSel9CdTU1MflSj9wCOELFkppRdGxLkRcfcuyvzF0NDQhdPT01+TKED/2Llz51eOPfbYn0TEvF+6UalUHhERd/hGwzPPPPMeMf83zN0QEXc5xJ9ZNTAw8PCIuNOF6ouiOKfbHIui8Phgd04tqc62PtuvZkQ8q9si1Wp1TURcYpos6vnw+2u12t65JQyiWq0elXM+LiLumnM+LaX00Lk7Oct+gdGHPT64IubXBZOTk2+RBP3CHVgsWe12+7qI+NMuyxxWqVTe7XcBoL9s3779lpTSl7os8/A7+wurVq365Zj/WkB/GxGH/CamSqXyywfz9w5lHa/bL5E1sLpQFMXxJZW6rp/2K+f8o5LqHG+WLLoHR0QtpTSZUposimIi5/yxnPO7I+JlOedHR/nNq90DAwN/Kfpl7zNHHXXUC8RAP3HRzpLWbrffGxHdnpyfVavVzpcmQH/JOX+2yxJnjY+Pr76Tbcz78cFKpXJhzvkr89ivg9pmSqnbBtZl09PTPzCT5q9arZZy4Z9S2tlnv1vXl7RfR5slK09K6RWNRuN7kljWpvfv33+eR9DpNxpYLHlFUZwfET/psszr6vX6/aQJ0FfNg4u6LLF6165d9Tv5O/NtYF3ZarV2pJTmM8a1tVrtbnf4F9aufUBE3LvL/f+sWdT1OcZRJdXpqwbWwMBAKQ2snLMG1srTOOqoo94uhmXvvgMDAyeIgX6jgcWSNz09fU1EvKLLMscURfFP0gToH81m8+ro8m1plUrldu9iGhoaOjEiTp5n6c/c5n8PaVh39maogYGBrte/qlQqGljdZ7i6pFJ7+2m/iqLYXVKpw82SFeXqgYGB33BXzopw95TSJ9atW3cXUdBX38siYDlot9tvTSl1+0adxw4PD58nTYC+0lUT5o7WkapUKr867xOoSuWiue+fKyNixzzGde58x32QdhdFcanp052c882lnHBXKv12p9KxJdXZY5asGNdVq9VHNxqNa0WxYjx4ZmbmY3f2KD4sJA0sloti7u0r+7spklL6hzt7rAOAhZNS6vYuorNrtdrggf5FF+tf7dm5c+fPrn01n7UYf+VO/n23Dawvttvt/WZQ1/OvlAZNzvnYftqvshanLysf+t43c87nNJvNb4pixXn47t2736dvQL8wEVk22u325Tnn13dZ5m4ppddLE6A/DA4OTkR3j18dlVIaOvC1dxqf50X7xdu3b/+ftw/mnOezDtYD5h5h/AVzazKe1E1uJSyAT5TaoDmun/arWq2WMp6iKDSwlr9PR8To1NTU10WxYm2o1Wquj+gLGlgsK7t27frriPhalyf9zx4ZGflVaQIsvs2bN9+cUrqky4vsX1hvanh4+IyIuNc8vyd+rmE1Ozt7cUTccqh1UkqPvJ36493mlnP+nNnTvbLe1hcRd++z/bpHKRcSlcr1Zsmy9d2U0u+22+3Ht9vtm8Sx4r20Vqu9SAwsNg0slpXt27ffUhTFH0RE0eWJ3QWnn376URIFWHxFUXTVjEkpnXOAC+/5Pj4YlUrl58azbdu2PRFxyTzqnHs730HdPj74tbkXnNClnPOOMuqklB7aZ7s2XNJ+XWWWLDvfioiX3nTTTQ+YnJx8X0RkkTDnzSMjI08WA4tJA4tlZ3p6enNEXNBlmZNWr179CmkC9MHJytyC6V14+IYNG6o/+w+6WP/qylarteMAF/KHPMa5MaQD/KtuG1gXmTXlmLvzpOu7jHLOw/103p1zHimjzszMzHazZHlIKV1YFMXZ7Xb7tHa7/eaffUyaJeuDZX8d55zfPzQ0tE60LJYBEbAsJ/bAwMtmZ2cfFxH37aLMS4aGhj4szeUn5/yEHp4AXiZhKNfk5OQ3arXajog4ZZ4ljv32t799RkRsjYgYHx8f2L1798PnWeszt/O5clFEvPkQa50wPDz8oJ9dW6Zer9+rKIrTuvwc8vhgua6KiLt2WeOo0dHRNf2wCPbcSw3OKKHUzZdddtkPTI9lc270oFWrVl0hiWV1TN+cUro+Il5YYtnDK5XKJ0dGRtZPTk5+Q8os+HW+CFiOGo3Grlqt9ryI+FQXZaqVSuXdOecLJLq8TE1NfVIKsOR8LiKeP98fnlsHa2tExJ49e0Yj4pj51Lm9u8Ha7faV82myzT1G+D8NrE6n84iUUjc57TnqqKO+YrqUehE4nVIa7bbO7Ozs2RGx6A2sSqVSL4pidQmlLguPl/WDHRGxKrr7j7YREb80Ozv7noh4SnS5FAf945RTTnnJjh077hcRTyyx7F1zzheNjY2tazQa10qZBf0OEwHLVbvd/nREfKTLMmemlP5QmgCLK6X02S5//n8eyyuKYr6PD+7ZuXPnHTWHDvnOp9s+ynig9boO0ZcmJib2mTElnixXKptKmsO/0Q/7UxTFk0vaH43S/rAzbm06zZRQ6zdrtdqrRLp8bNy4sbNq1arfiYgtJZc+udPpfOrMM888Usos6HeyCFjmJ50viogbuizzIEkCLK6ZmZn/inm86e+n5hZGT3P/f14NrJTSxXe0Lsxt3054kMZvsz5XVw2snPNnzZZy5ZwvLanUo0dHR++6mPsy9/jgb5dU7qtmR39ot9uNnPPLSir3f4aHh58m1eVj8+bNNxdF8YSIKHXNupzzyODg4IfHx8c91cXCXd+LgOWs1Wr9KKX0p5IAWNrm3vTXzZ0wdxsaGnpwrVY7IqV01jxP1u+wQTU7O3txHHqT7birr766FhGxbt26u0TEL3WTU7d3qnHA5sBVEfH9Ekqt7nQ6z1rk3XliRNy7hDqdsu5MoxxTU1NvjYiNJZRKKaV31Wq1MakuH9PT0z+eWwN2Z8mlf3337t3vkDALRQOLZW9ycvJfI+ILkgBY2rq9u6hSqZyTc354RBw2z5+/w0cE55psl8xjv86NiJiZmTmny3Ozb801WyjfhSXVeWmtVjtiEc/7/7yMQimliWazeb1p0V/27dv3e/Eza+p1YXVEfGxsbOy+Ul0+pqamvl4UxROji7uZb8dzarXayyXMQn2RwbK/5ul0Os+NiD2iAFi6Sri76Jy5RdPn48pWq7XjIMZ40Tz269yI/3nMsRvuvurViUTOG0sqdUKU+0awgzY8PPzMiFhbRq2iKD5iVvSfK6644icppfMiYm8J5e41Ozv7iUVsuNID09PTl6SUnhXlv4DhtSMjI8+UML2mgcWKsHXr1m/nnC1KCbCEtdvtyyPie12UODfn/KT5/ODBrm81n3Wwcs7ra7Xay1JKT+gmH48P9s7U1NSmiPhBSeX+anh4eM1Cjr9er98rpfTGksrtTyldaFb0p8nJyf+OiOeUVG4o5/y+mFs/kGUzRz6UUvrLksumnPO76vX6r0iYXtLAYsU49dRT3xwRbUkALGndNGnuERGnzucHq9XqZw7m77Xb7Svj1tfaH4rVEfG6+Y5tzr6c84Tp0TNFRLyrpFpHRMQH161bd/hCDHx8fHyg0+m8PyLKWkD+o+12+zpTon+12+0PljVfU0pPrtVqfyHV5WVycvI1EfGPJZcdLIriP4eGhh4qYXpFA4sVY+PGjZ2c8+9FxH5pACxNKaXPLcJm9+zcufMrh/D3F2OMl7Tb7b1mSO8MDAy8I0paOyalVJ+ZmXnPbd5A2ZNfmd27d/9jSqm0uyIqlcobzYb+d/TRR78wyvsPt68aHh7+LakuuznyRz34vjqmUql8ul6v30/C9IIGFivK1NTUtoh4kyQAlqZqtfr5WOD/EJFSunj79u0H3biYz2OEJYzR44M91mg0ro2Ify+x5Hk7duz44Jo1aw7rxXjHx8cHRkZG3h0Rf1BWzZzzl1utVsts6H8TExP7iqJ4ckTcUM5HTPrXoaGhEckuqzkyu3r16g0RsbXk0vcpiuIza9euPU7KlE0DixXnpptuemVEXCkJgCXZRNgVEVsWcpuH2pCanZ29OCL2LeQYi6LQwFoAKaXXRbkN1POOO+64r9br9VPKHOfY2Nh9d+/e/aWc87PLrFutVv/GLFg6pqenr8k5/26Us2D34ZVK5eNDQ0P3luzysWnTpt1FUfx6RHyn5NIPqVarF55++umrpEyZNLBYcbZv335LpVJ5XpT/9g0AFkDOeUGbNZVK5ZAesdi2bdueiPjKAg7xu1NTU183M3pvcnLyG1HyujE555GiKC4fHh5+xZlnnnlkN7XWrFlz2MjIyJ/Nzs5eEREPK3mcn2i1Wl80C5aWqampT5W4gP+9q9Xqf/TqrkEWx/T09A8qlcpjI+LGkks/cvXq1f8aXgJAmedkImAlarVaX47yFmMFYAEt8ONyV7ZarR3zGONCPkb4abNi4VSr1VdHxM6Syx6RUnrl4ODgd2u12pvmHtU66PP04eHhM2u12muPPfbY7+ac/y4ijil5fDNFUfyJo780HXXUUX+eUrqkjFo553XHHHPMP0t12V0bXRERT4qImZJL/06tVvMmeEozIAJWsD+NiMdGxH1EsbIMDw8/vsebuGZuvTWgB9rt9nStVvthRJzQ623Ndz2ruZ9780LkYf2rhdVsNq8fHh5+WUrpgh6UPz4i/rhSqfxxrVb7/1JKjaIovp5S+nbOeVdKaSalVC2K4phKpXJiRDwo5zwaEfft8W7/3datW7/l6C9NExMTs2NjY+fNzs5Ol/G5mVJ6xvDw8OVTU1NvkO6y+m790sjIyPNzzu8uufRf1mq1H7Xb7XdImW5pYLGSP6RvGh4efn5K6RPSWFkW4Jj/c0Q8V9LQMzkivhARz+z1hiqVyrwaWO12+8parbYjIk7p8RD3V6vVL5kSC2tqauqfa7XaoyLiKT3czD1yzo9PKT1+7rvr1smfc6SUIueFWQkh59xKKf21o760NRqNa0dGRn4n5/zFiOj67ZcppdcNDw9fOTU19UnpLh+Tk5P/UqvVTo6Ivyi59NtGRka+Pzk5+XEp09V5mQhY4Segn0wpXSgJgKVlge462nPjjTd289jN5xZgjF+dW9iehff8iPjRMt/HnxRF8bR2u73f4V76JicnJ1JKryjrOjKl9G+1Wu0MyS4v7Xb7ryLivSWXreacP1ir1cYkTFcfPCLARVB6QZS/lgUAPTQ4OPi5iOj0+Pvh4u3bt98y35+f7+OHhzhGjw8u3kXedTnn8yLilmW6i52IeIZHB5eXycnJ10ZEWXfBHB0RnxgaGrq7ZJeVHBHPmbtbr0xHRMQnh4eH14iY+dLAYsVrtVo/yjm/TBIAS8fmzZtviIjJnp7Bd9mAmp2dvTgi9vVyjEVRaGAtoqmpqa/knJ8Zy/PNxi9tt9sfc5SXnTwzM/PsiLi6pHonVSqVC08//fRVol0+2u32/sHBwSdHRNlrut49pfSJdevW3UXKzIcGFtx6AvqulNJ/SQJg6ej13UeVSqWrRwC3bdu2JyK+0sMh/nBqaupyM2HRzyE+EhF/vsx2643tdvvvHd3l6fLLL99ZqVR+K8q7e/Bhhx9++D9JdnlpNBq7ZmdnHxsR3yu59INnZmY+Nj4+vlrKHPK5mQggIiLy7Ozs8yPiZlEALJEP7t4+ondlq9Xa0W2RlNJFPd7/bCYsvna7/bqU0guXyfH4u3a7/aeO6vLWarVaOeeXlvh59OxarfZCyS4vl1122fcj4jci4icll3747t273xf6ERwiEwbmzK3x8GpJACyZpkErIn7ci9plNcd62WSz/lV/mZyc/L855+dFRLFEdyHnnP+s3W6/3NFcGaampv4h5/z+Eku+ZWRk5LGSXXbftVMppfMiYrbk0htqtdrrJcyh0MCCn3H00Ue/MSKmJAGwJBQR8cVeFK5UKqU0ntrt9pURsaMHQ+ysWrXKo+/91xC4IKX0uIi4fokN/aac81Ompqbe4CiuLHNPIHytpHLVnPO/1+v10yW7vExOTl6Uc/5fPSj90lqt9iIJc9DnZyKA/2diYmK2KIrfiwiviwZYAnp0F9KeG2+88ZIS6/VijFvmFrKnDy/0KpXKUERsWSJDns45j0xNTV3o6K0827Zt25NSelJE7Cqp5DFFUVx4xhlnHC/d5WVqauqfU0q9aHK/eWRk5MkS5mBoYMFtz+Kmpy+LCAuXAiwBnU7noij5ka2U0sXbt28va3HjXj1G6PHBPtZqtb67b9++R6SU/iL6d33NWyLir48++uizp6amtjtqK9fk5OQ3cs7PLbHkaatWrfrw+Pj4gHSX3Vx5WUT8W8llKznnD4yMjKyXMHc6WUQAv2jVqlV/FRFO5gD63PT09I8jYmuZNctuOM3Ozn4pIvb18xgp3xVXXDEzOTn5mkql8pA+PF5f6HQ6Z7Tb7b+amJjY52gxNTX14Yh4R4klf3X37t1vkuyyk/ft2/d7EfGlkuuuzjl/fGRk5IEi5o5oYMEBbN68+eaU0nPC250A+v9suuTmQKVS+VyZ9bZt27YnIr5SYskfT01NTTvyS0Or1doxNTX12JTSwyLiU4t8brEp5/yEdrv9qLmX18DPenFKaXOJ9f6oVqs9T6zLyxVXXDFTrVY3RMQ3Si5915zzRWNjY/eUMrd7jiYCOLDJycmJlNJ7JAHQ98psOF3ZarVKX3Q9pVRaky3n/NlYum+6W8nnFZva7fbjK5XKWES8NyJ2L9Cm90bEB4uiOLvdbj9samrqk44GB9Jut/fnnH87Iq4rsezbarXaI6W7vDSbzeur1epjIuLakkuf3Ol0PnXmmWceKWUORAML7vgi4SUR8QNJAPSvY445ZnNE3FjS535PHvUqs26PFq5ngbRarVa73X5WRNwrIp4WER+PiJtK3szuiPhUSumZ+/btu2e73X7a9PT0ZulzZ9rt9ndSSr8b5TXJByPiP4aHh9dId3lpNptXF0XxuIjYU/L35cjg4KA11Dggk4IFValUbsw5n99tjQX8Er9pZGTkN4uiWNtFmesc+fKklLYVRXGfPp/nexypxbFr167PH3300fOeH6tWrepIcemZmJiYHR4efmZEnFBCuYt79H1y5fDw8O/NXcx1pSiKzzjqy6JRsDciPhgRH9ywYUN1+/btQ5VK5RERMZxzfkBK6QERcdxBlPpJRHwrpfTNnPPWnPPEMcccMzkxMTEr5SXhK12eG5d+njk5OfmZ4eHhJ5b0mfrT87f7hfVlD0m310wppWt6Pcbp6enJer3+qE6n85Cya+/du/d+EXG1mcDPzWsRAABA/xkaGrp7SunYiDi2UqkcHRGDKaXc6XR2ppT2RMRN7Xb7h5ICAAAAAAAAAAAAAAAAAAAAAAAAAAAAAAAAAAAAAAAAAAAAAAAAAAAAAAAAAAAAAAAAAAAAAAAAAAAAAAAAAAAAAAAAAAAAAAAAAAAAAAAAAAAAAAAAAAAAAAAAAAAAAAAAAAAAAAAAAAAAAAAAAAAAAAAAAAAAAAAAAAAAAAAAAAAAAAAAAAAAAAAAAAAAAAAAAAAAAAAAAAAAAAAAAAAAAAAAAAAAAAAAAAAAAAAAAAAAAAAAAAAAAAAAAAAAAAAAAAAAAAAAAAAAAAAAAAAAAAAAAAAAAAAAAAAAAAAAAAAAAAAAAAAAAAAAAAAAAAAAAAAAAAAAAAAAAAAAAAAAAAAAAAAAAAAAAAAAAAAAAAAAAAAAAAAAAAAAAAAAAAAAAAAAAAAAAAAAAAAAAAAAAAAAAAAAAAAAAAAAAAAAAAAAAAAAAAAAAAAAAAAAAAAAAAAAAAAAAAAAAAAAAAAAAAAAAAAAAAAAAAAAAAAAAAAAAAAAAAAAAAAAAAAAAAAAAAAAAAAAAAAAAAAAAAAAAAAAAAAAAAAAAAAAAAAAAAAAAAAAAAAAAAAAAAAAAAAAAAAAAAAAAAAAAAAAAAAAAAAAAAAAAAAAAAAAAAAAAAAAAAAAAAAAAAAAAAAAAAAAAAAAAAAAAAAAAAAAAAAAAAAAAAAAAAAAAAAAAAAAAAAAAAAAAAAAAAAAAAAAAAAAAAAAAAAAAAAAAAAAAAAAAAAAAAAAAAAAAAAAAAAAAAAAAAAAAAAAAAAAAAAAAAAAAAAAAAAAAAAAAAAAAAAAAAAAAAAAAAAAAAAAAAAAAAAAAAAAAAAAAAAAAAAAAAAAAAAAAAAAAAAAAAAAAAAAAAAAAAAAAAAAAAAAAAAAAAAAAAAAAAAAAAAAAAAAAAAAAAAAAAAAAAAAAAAAAAAAAAAAAAAAAAAAAAAAAAAAAAAAAAAAAAAAAAAAAAAAAAAAAAAAAAAAAAAAAAAAAAAAAAAAAAAAAAAAAAAAAAAAAAAAAAAAAAAAAAAAAAAAAAAAAAAAAAAAAAAAAAAAAAAAAAAAAAAAAAAAAAAAAAAAAAAAAAAAAAAAAAAAAAAAAAAAAAAAAAAAAAAAAAAAAAAAAAAAAAAAAAAAAAAAAAAAAAAAAAAAAAAAAAAAAAAAAAAAAAAAAAAAAAAAAAAAAAAAAAAAAAAAAAAAAAAAAAAAAAAAAAAAAAAAAAAAAAAAAAAAAAAAAAAAAAAAAAAAAAAAAAAAAAAAAAAAAAAAAAAAAAAAAAAAAAAAAAAAAAAAAAAAAAAAAAAAAAAAAAAAAAAAAAAAAAAAAAAAAAAAAAAAAAAAAAAAAAAAAAAAAAAAAAAAAAAAAAAAAAAAAAAAAAAAAAAAAAAAAAAAAAAAAAAAAAAAAAAAAAAAAAAAAAAAAAAAAAAAAAAAAAAAAAAAAAAAAAAAAAAAAAAAAAAAAAAAAAAAAAAAAAAAAAAAAAAAAAAAAAAAAAAAAAAAAAAAAAAAAAAAAAAAAAAAAAAAAAAAAAAAAAAAAAAAAAAAAAAAAAAAAAAAAAAAAAAAAAAAAAAAAAAAAAAAAAAAAAAAAAAAAAAAAAAAAAAAAAAAAAAAAAAAAAAAAAAAAAAAAAAAAAAAAAAAAAAAAAAAAAAAAAAAAAAAAAAAAAAAAAAAAAAAAAAAAAAAAPrS/w+dZEAkFn8mKAAAACV0RVh0ZGF0ZTpjcmVhdGUAMjAyNC0wNy0xOVQwODozMjoxNCswMDowML8v+vgAAAAldEVYdGRhdGU6bW9kaWZ5ADIwMjQtMDctMTlUMDg6MzI6MTQrMDA6MDDOckJEAAAAAElFTkSuQmCC;" parent="1" vertex="1">
          <mxGeometry x="1156.25" y="180" width="370" height="370" as="geometry" />
        </mxCell>
        <mxCell id="KeBU-kHbTEerPU9ZJ03d-7" value="" style="fontColor=#0066CC;verticalAlign=top;verticalLabelPosition=bottom;labelPosition=center;align=center;html=1;outlineConnect=0;fillColor=#CCCCCC;strokeColor=#6881B3;gradientColor=none;gradientDirection=north;strokeWidth=2;shape=mxgraph.networks.radio_tower;" parent="1" vertex="1">
          <mxGeometry x="1300" y="630" width="82.5" height="170" as="geometry" />
        </mxCell>
        <mxCell id="KeBU-kHbTEerPU9ZJ03d-9" value="" style="shape=image;verticalLabelPosition=bottom;labelBackgroundColor=default;verticalAlign=top;aspect=fixed;imageAspect=0;image=data:image/png,iVBORw0KGgoAAAANSUhEUgAAAgAAAAIACAYAAAD0eNT6AAAABHNCSVQICAgIfAhkiAAAAAlwSFlzAAAOxAAADsQBlSsOGwAAABl0RVh0U29mdHdhcmUAd3d3Lmlua3NjYXBlLm9yZ5vuPBoAACAASURBVHic7N13mFXVucfx7zlnZs70wlRmhmkwM/ShSJVeRcCGBUvsJcYeY6pRE5PcmJimiaZqriXFejUaO3ZFqiAdpHdE6TD13D82JIgIM2uv03+f55kHQdba7wz77P3utdd6F4iIiIiIiIiIiIiIiIiIiIiIiIiIiIiIiIiIiIiIiIiIiIiIiIiIiIiIiIiIiIiIiIiIiIiIiIiIiIiIiIiIiIiIiIiIiIiIiIiIiIiIiIiIiIiIiIiIiIiIiIiIiIiIiIiIiIiIiIiIiIiIiIiIiIiIiIiIiIiIiIiIiIiIiIiIiIiIiIiIiIiIiIiIiIiIiIiIiIiIiIiIiIiIiIiIiIiIiIiIiIiIiIiIiIiIiIiIiIiIiIiIiIiIiIiIiIiIiIiIiIiIiIiIiIiIiIiIiIiIiIiIiIiIiIiIiIiIiIiIiIiIiIiIiIiIiIiIiIiIiIiIiIiIiIiIiIiIiIiIiIiIiIiIiIiIiIiIiIiIiIiIiIiIiIiIiIiIiIiIiIiIiIiIiIiIiIiIiIiIiIiIiIiIiIiIiIiIiIiIiIiIiIiIiIiIiIiIOU+4AxCRsPAA2Qf/ewcQCGMsIhIGSgBEYo8H6AR0BmqBmoNfHYAMIA1IPaLNPmAvsBtYDywFlh38dQmwAiUJIjFFCYBIbKgCxgBDgFFAieX+PwGmA+8ArwJzUEIgIiISFl2B/wHW4NyMQ/m1Fvgp0C3o36WIiIiQBdwAzCL0N/0v+5oD3Mh/5xSIiIiIJXnAHcCnhP+G/2Vfu4HfAMXB+RGIiIjEj/Y4N9W9hP8G39qvfcA9B2MXERGRNkjAGeo/tEQvGr/24IxaJNn90YiIiMSmfsAMwn8Dt/W1BGeFgoiIiByFH2fovIXw37Rtf7UAvwWSrf20REREYkAF8D7hv1EH+2sOUG3nRyYiIhLdpgI7Cf/NOVRfu4DzrPzkREREotS3CP8NOVxfP0XVSEVEJM74gPsJ/0043F8P4qx4EBERiXnJwFOE6abr9XkDaVkpgdyS7EBucVYgLSsl4PF4wpkEPAOkWPi5ikgbaPhNJLQScW54E4J9oPTsVDoPqqCqVyntO+ZTVJVH+455JPqP/sBdv6+BzSu3s2nlNjat+ISP565jyfRV7N9dH+xQAV4GJgMNoTiYiCgBEAklL/AwQZwAV1JTwJAze9NzZA3l3drj8br7iDc3tbBq/gbmTVvKu09+yJZV2y1FelT/xPnZtATzICLiUAIgEjr3ANfZ7jQpJZHhU09g+Ll9qexpexfg/woEAiyftZa3/jGbdx6fS2NDUzAOcx9wTTA6FpHPUwIgEhrfxtm615rUzGTGXjKIk648kczcNJtdH9dnm3bx/O/fZtrDM6jfZ33U/nvAT2x3KiKfpwRAJPiGA6/hzPx3zePxcOKZvTj/jokhv/EfacfW3fz9zhd494kPCQQCtrptAU4CXrHVoYh8kRIAkeAqAuYe/NW18u7tueznp9Oxdwcb3Vmz+P1VPHDL02xcsc1Wl1uA3sAmWx2KyOdZeSIRkaPyAk8CdTY6G/WV/tz4wAXklebY6M6q/A45jDjvBA7sqefjOetsdJkOnAA8giYFigSFEgCR4LkFuMptJ6mZyVz3h3OZ+LVh+HxeC2EFhy/BR92oWgorcpk/bRnNTa7v2xXAfuAd18GJyBfoFYBIcJQBC3GeZI1lF2Rwy6MXU9Gj2E5UIbJizjruvuB/2f3pXrdd7Qe6AyvdRyUih9MIgEhwPAT0cNNBUVUetz51JSU1BZZCCp127bPoPa4zc15ewv7dB9x0lQh0Av5mJzIROUQJgIh9pwG3u+kgtziL7z99JXkdIu99f2tl5qbRZ3wXPvjXRxzY62qpYA0wH1hiJzIRAb0CELEtAVgKVJl2kJmXzu3PXkVRVZ69qMJozYJN/OiMP7Jvl6uRgFVALdBoJyoRidwZRSLR6Xxc3PwT/Qnc8uhFMXPzB2fp4o0PXIAvwdXlphL4iqWQRAS9AhCxyQf8HTC+e1/8P6fQd3xXexFFiIKydnh9Xha+87GbbrrjlArWskARCzQCIGLPOTjD1EYGntqT0RcOsBhOZDnl+hH0Gd/FTRcdgXMthSMS95QAiNjzLdOG2YUZXPbz023GEnE8Hg+X/fx0UjOT3XRj/DMWkc9TAiBixwlAT9PGX/nhJLc3xqiQXZDB2d8Z56aLbkDsDpOIhJASABE7LjJt2GNENQNPNc4dos6YiwZS1avUTRfGP2sR+S8lACLuJQFTTRu7fCKOOh6vx+33fB6QYikckbilBEDEvckYzvzvPbYzVXWunoajUo/h1VSfUGbaPAuYZDEckbikBEDEvcmmDU+7aZTNOKLK6V939b0b/8xFxKEEQMS90SaNqupK6dSng+1YokbPkTUUVuSaNh+LKpmKuKIEQMSdLoDRGP6wqX0shxJdPB4PJ57Zy7R5ERB7FZNEQkgJgIg7Y0waJST64mrm/5cZdk5fPF7jB3mjn72IOJQAiLgz3KRRlxOryGiXZjuWqJPfIYeK7sWmzUdYDEUk7igBEHGnh0mj7sM62Y4jarn4WXS3GYdIvFECIGIuCcOd/7oPVQJwSLehHU2bVgKxXz5RJEiUAIiYqwYS2tooOd1Pebf2QQgnOtUOqMDrM7oU+YAay+GIxA0lACLmjLa2K60pcDPxLeYkJSeS3yHHtHlnm7GIxJM2P71I0CQBaUDOwV+TgJ3A3oNfu8IXmnwJo+H/4uoC23FEvZKaAras3m7S1Pj9gQRVKs51LAOncuOnwAagKZxByecpAQi9PGAozhrmzjj7x9fgfEiOpRlYDSwDFh/8dQYwD2gJUqxybMf7NzuqkholAEcqrs5nzsuLTZpm245FWs2DMwm2P841rPPBr0qOfm/ZATwF/AhYFaIY5RiUAARfEk7VsjHASJwtY03Gf304TzsdgQmH/fmnwJvA68C/cJIECQ2jBCAjV8v/jpSVl27c1GYcclwdgInAKJxlmPltaJsNXAqcg7Oj45O2g5O2UQIQPAOArwDnAu2CeJx2wOkHv34DvA08BDyB8wpBgsfo5pOaoYnrR0rNMt7cTyMAwZcOnAFciPMQ43buWBrwD2A8MM1lX+KCJgHalQhcDCwCpgPXENyb/5E8wDDgz8Am4E/oHWkwZZo0Ss1UAnAkFz8TjQAETznwW2Az8L84e17Yumck4Fyn/Jb6EwNKAOxIwbnZLwcexHB2uGUpwOXAUuARoFt4w4lJGSaN/KmJtuOIev7UJNOmRv8Gcky1ONex5TjXtWC9s6oETg1S39IKSgDcOw1YgpMpl4c5lqPxAecD84HfE9oRiViUhPNa512c4VAJrxOB93HOcT1NupMF3AMsxBnJDEWmOi4Ex5AvoQTAXBXwHPA0UBbmWFrDC1yFMyJwKdpKta2ygTuAtcDfgMFhjUYONxBnlGsN8AOcpbTSeh6cBGoJcB3OQ0OoxO9+2BFACYCZrwILcGbDRps84C/Aa4DxLixxJB34HrASuB0oDG84cgyFwG04/1a3otcDrVEAvICTQBWF/OA1BVU3TLv2vBvfulKlMcNAqwDaJhP4I84ylmg3EpiLs1Lh5TDHEom8wJXAD2nbUicJv2zgTuB6nKTtD6hWxtGMAB4ljA8CFf3LOuEJPBpoTuSG169ZjIdXWgItf7935P3TwxVTPNEIQOv1BGYTGzf/Qw5l/3eiVwKH6w28B9yPbv7RLB+4D2eOQO8wxxJJPDgjJK8SzlFAD3Qa/rlFSl0IcL0X7/vXv3HN0htev+bW6966Tp+/IFIC0DrDgLeAWNzCzYtzMXiI0Ez6iWR+4G5gJk4dh6BISjGe8R6zgrwyoj/Ov+kv0ERBH87y4DsJ7bv+L6gZUU1+p7yj/j9PgBrgTm9zy7ob37jmD19/82uaKxAESgCO71TgJWJ/vfEFwDMEb8lPpKvFeVK8mSBeGL0+r5uNb2JWQXnQF6f4gK/j1OeI1w2EUnCq710W7kDalbdj1NeHt+av+gMBrmxu8Sy/8Y2v3fWNl74Rr9enoFACcGzn43xg4qVyywTgFeJv8tTFOK93gj5MXNu/nJSMeH8I/aJ27bMoC80Wyb2AWcAloThYBEnFed0X9nX3nYZ15OzfnoE/vU2fA38g4Plmo3//shumfe3CYMUWb/Te98udDPwfIRwW96clkZTmJzElAV9SAg176mnY30jDngaam5pDFQY4ScAkoCGUBw0DH86Q/42hOuA3/3YJdaO0hf3RTH9mPvde9fdQHvLXwDdwNtqKZYk4y5VDtmrJl+AjKT2JpJREktL9pGankFuVS82IThR2trIZ1pPJTY2X3TX2j0crd16As3pnG7DbxsFilRKAoxuMcxNMDdYBstpn0qFPKe27t6ddRQ45pdlfmhG3NLewa/NuPlu3g23LtrHuw/VsWriZ5oagXrf+gTMCEquzpzNw1vNPCtUBR184gEt/dlqoDheV7r/2Md55Ym4oD/kcTmGnPaE8aAh5cMr4fiVYB/Al+WjfrYgOvUrJr8knp0M2mUUZeH3BHWAOeFgWaPGefe+oe+fhrPz4Js73WXrwr7TgrHS6D/grsXstM6YE4ItqcN4FW38pmV2SRedxtXQeU0NWsbspBU31TayesZbFLy1hzQdrgzVC8Eucd+KxpgBnXkevUBzM4/Ew7rJBXPCDiUG/KEa7psZmHvrev3jtoQ9Cedi5OBvTbAvlQUPkp8C3bHfqS/BRMbCcLuNqqRhQji8pTPMJPeyb+ejs77/3p+nfAI71DuktnKqtn4UmsOigBODzknEmCdXZ7LS0Vwn9zu9LWd8OQfmJ79uxnw+fmMe8pz+iYZ/VUfsAcCbOHt6xohCnCFLQ90bwpybRd3wXxl8+mE59o6FYZORYNnMNrzzwPnNeXsyBvSF5E7UAZ7ObraE4WIicgvMa09pVx5+WRM/TetDrzDpSs413cLTms7Wf8Y+rH6dhX2Nr/vpMYChQH9yooocSgM+7H6fKnxUF1fkMv24oxT1CU+Sqfk89s/42hzmPf0hLk7XRrh1AH2CVrQ7DqAjn5t81WAfIzE2j38Tu9BnfhW5DOpLoV60tNxrrm1j07sfMfnExM59fwK7te4N5uEU4+9xvCeZBQqQMZ2TDykimL8FH77PrOOG8vvjTImcZ62PXPsmmhZvb0uTXwE1BCifqKAH4r7OBf9roKCk1icFXDKTnKd3xeEP/I/50zWdM+9UbbJi30VaXM4EhRPekwCzgHaC77Y49Hg9dBlcy6iv96TexOwmJYV1eHbOaGpuZ+fwCpj08g8XvrSIQCATjMAtwzvWjTS6LFgk4Q96DbHRW2quEUTcNJ6csspavbl60mX9e82RbmwVwJkO+YD+i6KMEwJGLsxHG0atStEFBdT4Tbh9Pdkl4ywYEWgLMfHQ20/86g0CLlQvld3DeJ0ajJJwP/CibnXo8HvqM78IZN4+mooe2VQil1R9t5Mm7X2Xuy0uCkQi8hrMktlXjyhHoZpzVLa54vB4GXtyffuf3DcuDzPHMeGgW7z9oNFdkM84oYNzPB9CjiuM3OO+GXOk2oQuT7pwQEe/GPB4PJXXFlPYqYeW7q2lqaHLb5WCcuuHR9mTkAR7AmQBkTZfBVdz4wAVMuGoI2YXxVjYh/LILMxh8eh19xndh4/JtfLJ+h83uq3CG0J+x2WmIlAKP47LiYXJGMqfdNZku42rxeCLv5g+w+OWlbFtuNG8z/eDXv+1GFH2UADhbif4Wl6Mh/c7vy/Brh0bcLO/MogyqBlew6r3VNLibTJUIVGDpNUkIfQO4xVZnWfnpXHrXaZz/g5PJKcy01a0Yyi7MYNg5fSgob8eymWuptzcJthfOGvL3bXUYIn/BZUGrjIJ0pvzqVAprrazXD5rVH6xh6zLjhRt9gX/hjAbELSUAzgz30uP+rWM48cpBDLioX8S+UEnJTqHT8E58/M5K6ve4ukB2xtkkZ6WdyIJuEM42p1bO834Tu/Gtf1xKp75lEftUFI88Hg/l3doz4twT2LhiG5s+/sRW1yNxNsxZb6vDIBsJ3OWmg4zCDM669wyyS7IthRQ8uzbtYvWMtabNvTivAR60F1H0ifcEYAJO8Qhjfaf2ZuDF/S2FEzz+tCQqBpSz7PUVNB1w9Tqgguj40LTDuXi7ngWdlJzIRT8+hfNuO5mk5HjfLylyJaUkMui0nmTkprHonY9paXa9EsYHjMXZKGu/6wCD7wGg0rRxSnYKU351musaJaGSnpfGh0/Od6b1mSnHmRgcCyucjMR7AvAgzrs+I7Wjqxl104iIffI/UkpWMiV1xSx5eambiYHlwOvAGnuRBcX/4sxbcCUrP51v//NS+p4UtJWDYpHH46Fj7w50HdKROS8tpmG/63l8WUBHnPfqkWwwzg5/RnyJPk7/xSnkd3Q9DzpkktKS2L9zP1uWuCrdUI5TJTAuxXMCMBy4zbRxTodsTvnJJHxRtuQrPT8df1qSm6EzgBKcofVIdSouLoaHlNQU8L2nrqC0ttBCSBJKuSXZ9JvYjfmvL2fPZ/vcdtcV+BBY6j6yoLkfp4qpkeHXDqXT0CqL4YRGcY9ilr+xgvrdxrV9KoBpgKsLYrSKrBlroWW8AYwv0cfJd5xEYkp0DgfXndGTjkNcfdjHEYJKeoaygN+57aSsW3tue+Yqbd0bxQorcrntmSttJXC/BSJ11mcNzuZlRjoOraLu9B4WwwmdpNRETrp1LN4EV7cya8Xfok28JgB5uPjA9J3am7yqXIvhhN7IG4eRlOoqgQna5iIu/QRnhMJYhy5FfPfxy0jPCdpeUBIimXnpfPeJyympdj2jvRT4sYWQguFCDF9EJqUmMfKG4ZbDCa2iLoX0PtPVth5nEIS9X6JBvCYAU3GKw7RZZvtM+p3f13I4oZeWm8bAiwe46eJ8Iu/8qQWudNNBfoccvvv4ZWS0S7MUkoRbVn4633n8Mtq1dz257Sqg2kJINnlxkYwPumwAabnRn+gOuPAE0vPTTZsnAxdYDCdqRNoFPFSMPzCDLxtAQozUd687vQeZ7Y1HNUtxlh1Fkh/jlEE1kpzu5+aHLiQzz/hCIhEqpyiTmx+6EH+qqzr2iUTeKMAIDCcyZxVn0fNU65WxwyIxJZGBl7hajXW2rViiSTwmAGWA0ZmSXZJFzchIewAw503wcsK5fdx0McVWLBYMwBnKM+LxeLjmvnPo0KXIYkgSSSp6FPPVe85yW8PhTKCfpZBsMD7nTzi3T8QVLnOjy9haMouMq3IOxEIp+GgTO//6rWf81Np3au+IrIntRteTOrsZArRaW9+l7+NiQeb4KwbTZ1wXi+FIJOo/qTujLnT1pOjBOdcihdFnMC03jS4n1dqOJay8CV76nGU8F8CHUxcmrigBaKUEfwI1o4xX2UQsX6KPzmONLwS1uJxwZ0lnXEzqLOtaxNRbT7IYjkSyC+6YSHGnfDddTMTFkjuLigGjrLXLuFp8CdG1hLk1Oo+tdfOKdpzNWKKBEoBW6jS0yu2s+YjVZVxnN80jYR7AjRg+/Xt9Xr56z9kkJsXGvA45vqSURK76zZluXgV4cbGM2CLjEbgu42Pr6f8Qf4afjkOMiyG6mhUdjeItAeiA4YSZ6hh693+k3Mp2tCs3XgVzos1YDLTDWQZlZPSFAyjv3t5iOBINOvUtY9g5rua/XASEu0iEUaXLvKpcN5/3iFc12DgB6EScLQeMtwTA6FHX6/NS2iu293vv0Nd4PyRXwwcWnAMY7b+c0S6Ns7491nI4Ei2m3noSqVnJps1TCf/McaPPXoc+rvY+i3jl/ctMJzd6gBMshxPR4i0BMBr3KqjJJ8nd8qGI16GX8av8cI8lnm/acNK1w0jLMsodJAZk5qVz0hWuBrCMzz1LjBKA0t6RMG0nePzpfnIrjR/kw309CyklAK1Q2CX2a8EXdTVe/tYep/xuOFRiOAya0S6NMRcNtByORJuTrjiRlAy/afMhOLXkwyEL57PXZkVxcD0r7Gxc+bHcZhyRLt4SgE4mjXI6RP7e2G6l5aa6GeUw+rlacDaGk/9OuvJEktNie1RHji8tK4WxFw8ybe4hfK8BjD5z/nQ/qXFQ4jqvynhJf4XFMCJevCUARpN24iEBAMgpM/4+wzUZarxJI1+ij5HnR1ItFwmn0RcNcFPfw+gctEDXsmNwURAott+PHCHeEgCjsyI9Lz7qwqflGn+fxp82F9IxXIHQZ1xnsszrhkuMySvNpucI41U+JwLhuEAYfebS4uRallFg/PmOqwtDvCUARv+4iSnxMVScZD4kHo4EYASGGzoNPzeuJvpKK4w4z3hEyI9zLoaa0WcuKUq3MG8rF68z4yNDOijeEgCzD02MFgA6kouLQzgSAKM9TJPT/XQfFq4pCxKp6kbVkGheQS4c++ka7eKVGCcJQEKy8b+lEoAY4wUmA69g+N7Mlxh7JTOPxpdk/H3+D/AbnB0CQ8VoT+a6kTWq+idf4E9NotuQjqbNXVUUaqNKnM/aT00au/iMRxVvgvGtrQCYjbOtuHGRiGgRywmAH6dc52rgWWBMWKOJbRnA9cAK4C8Y1idvAw9gtOtH77HhrlskkaqX+bnRGxcbUbVSP+CfwHKcz1pcPamGWB/gD8DHwM0YFhqLBrGYAPiAi4FlwK9wyv9KaPiBS4GFwMMYrlNuhUoMR3OqTzCqBC1xoLaf8RLwdgRv+Vgl8AwwA2fJYXw8wkeGYuBunHvJ5UDMDR3GWgLQD5gFPIhhzX+xwgNcACzBGYWx/cHpatIoPTuVwspcy6FIrCipLcRvPnnM6Jw8hmTgNpxk+hTLfUvblAJ/wnk1EFPVw2IlAcjAeS/2PoZDwxIUmTijMHOxu2mQUXJX1bvUzQ5wEuN8CV4qehjv+WHzgWM8sAD4ATE8/ByFegLvAvcSnonP1sVCAtAHmIPzXsz68JjH64mbSYAJwZsc1x14A/g2dt6VGr3Wad/RuDqYxIniTvmmTW28akzAmVD7AmA8I/FYEv1xsgogeNcyL3AtzkON0UTkSBLtCcA1wHsEsRRtVvtMN1XCokpWSVBL+h+6uP0LcDsOb/S0ld8h3Lu3SqTLMz9H3I4AFAOvYS9JPqogf8YjRoI/wU1hs9boiDMacD3BnwAaNNGaACThvOf/Lc7Es6CpHFQRzO4jSnk/420022IizoiNm1q8Rjt95JfF1VbfYsBFkuhmh51ROE+Uw1z0cVzeBC/l/eJnalQIrt1+nFfPf8WwKFm4RWMCkI0zRHZxsA+U4E+g15S6YB8mYqTnpdFlXEh2wywDXsd8aabRbiaZwX0ikBjg4hwxbXg68G8Mk9q26HpSZ9JyY38joEP6nN0rVK9vLwReJHx7ohiLtgSgEHgHJ2MOuuHXDXWzqURUGnr1iaHaMCQNeA441aCt0VUsXsqgijm/eTlsk3PyK8BjBHkUEyCnLIchVxrtnB21cjpkM/Rqm3OPj2kk8DbuRoJCLpoSgAJgGtAt2AfyJfkY/Y2RdJ9oe2VP5PNn+Dnjl6dR1DUk57EfeAI4v43tjGZGu1jiJXEiOXQ15K/GGToO+try9t2KmPLLU/FnBD3PiDh1p/dg5I3DQzUS0A3nHhU1SUC0FDbIw5kgE9Q7clpuGjUjO9H7zDoyCuPryf9w6XlpnH3vFJZOW86ify9mw/yNtDS3BOtwCcBDQCPO01Br27SZ1xe1c3UkRFzMgWnLOXkZ8DuCOHnM6/NS0rOYbhO7UDOyOm4mMh9Nz1O7U9G/jLlPzmf5GyvYu31vMA/XFedeNRLYFswD2RANZ0Uyzg80KONXGYUZdB5TQ9WQSopqC6PjJxJi9bvrWT1jLUtfW8aaGWuDlQzsx3m1M70Vf3cBBiNBP3n1esq7B6s4ocSCZTPW8INTfm/SdBGtOydH48xhsv4+ypvgpaJ/GbWjayjvVxaXT/zHFYAtS7fy8TsrWfLKMnZv3R2sI72H8299IFgHsCHSRwA8OLP9rd/8KwaUU3d6D8r7lcV1dtwa/gw/taOrqR1dzd7t+5j7xDzmP/MRjfsbbR4mBafk6UBg1XH+7j6TA+zbHdGfRYkALs6R/a34O11wXnlZvfknpSbR64ye1J3Rg9Sc+JnkZ8QDhZ0LKOxcwKBLB7B6xlrmPTWfNTPX2j7SYJxXPOcCAdud2xLpCcCtwFSbHVYMKGfgxf0p7Bz0SbcxKS03lSFXDaLv1N7MffxD5j09n4Z91hKBApyJgYOBncf4e6252H6x0S4lAHJs+3YanVpw/KQ0H+fctjbD1p+WRK8pdfQ6syfJGTG/cZ11Hq+HyoHlVA4sZ/OizUz/60zbicA5OCNDP7TZqU2RnAAMB2631VlW+0xG3DCMigHGG37IYVKykhl8+UB6n1nHG/e8zbLXl9vquivOTlzHSvx2mXS8TwmAHIeLc+RYCSvAA0CVaedH6jK+M8OvGaJhfkuKuhZx2s8ms/K9Vbx579vs2mzt1cBtwJsHvyJOpCYAecAj2Cjt64Fep/fkxCsHkeCP1G83eqVkpzDhtnF0GlbF6795i/07jJ+gDncO8DTO9qdHs86k0y2rtxsHJPFh8yrjc+RY5+QlwCTTjg+XlpvK6JtHxlWBslCqGlxJWd8OvH3/u8x/ZoGNLn3Aozh71Hxio0ObInUZ4O9wdmByJTkzmck/msjw64bq5h9k1SM6ccGD51Le31qlsd/x5dsJGyUAaxdtMo9G4sK6xZuNm37Jn5fhbIjlWsehVVzw4Lm6+QdZgj+BkTcOZ9KdE2yNsJQA99noyLZITAAm4Ox77UpWcRZn/3YKVYMr3EckrZKancKp/zOJHpOtlGrIxZlEc7QZmoYJgPHFXeKEi3PkaC+PPcAfAdcF+OvO6MnEO07Su/4Q6jikiqn3n0VOqZVpG2cRgds6R1oCkA4YrcE5XFGXQqbef2aoKtrJYTxeD6O+PoIBF7kp9f8f44ApR/nzj00627b2aa/z3gAAIABJREFUMw7sqXcXkcSsHVt3s+uTPabNVx7lz87D2drXnAeGXDWYEdcN1WqlMMguyeLMe8+goMZ4l8jD3Ytzj4sYkZYAfBOXu2oVdS7ktJ+fQnKmMuVwGnhxf0Zcb2Vvkx/xxbkq84HmtnYUCARYOW+DjZgkBq2cu960aTPOOXm4JNzO/vbA2FtG0Xdqb1fdiDup2Smcfvcp5Fe7TgLKgFsshGRNJCUABcBNbjrIq8rltJ9PdlPPWyyqO72HjYtXLc4kqsPtBZaadDbn5cVu45EY5eLcWIpzTh7uClzO+h908QC6TujipguxJDkjmTPuPoWcMtf7/XydEGz81FqRlADciovhkeTMZGfSRrqWxUSSIVcOpnZ0tdtu7uCLm63MMelo9ouL3MYiMSjQEmDuK0tMm88+4vdpONczY7Wjq+n/lRPcdCGWJWcmc9pPJ5GSbbQVySHpwPcsheRapCQAhcCVpo29Pi+T7pxAVrHruTZimwfG3DLKbeGlYpzNUw7XmpLBX7B1zaesX7rFTSwSg1bMWccO87KwHxzx++uAItPOSnuVMO7bY1SWPAJlts9kwm3j8Hhc/eNcSYSMAkRKAnA1LrbE7HdBX0p6FlsMR2xK8Ccw/jtj8CW5KutwDZ8/X1827WjWvxe6iUNi0KwXXJ0Trxz2317gq6YdJaUmMu7bo/EmRMqlWY7UoXcpfc919WozmS8+0IRFJJxlrn4YRV0LNVQWBXLKchhwoauVAZXAmMN+v5yjz7w+rmmPzKS5KWi7G0qUaaxv4q1/HDmK32qrgGWH/X4cYFxudPAVg+J6J9JoMeiSAW4nBbp66LUlEhKAKRgOh3i8HkbdONzNFp4SQn2n9qbA3YfmyNdERqMA2zfsYObzVqp8SQx454m57DLfIvbIc/AK045KehbT85Tups0lhLwJXkbeMMzNa5pC4Ax7EZmJhDvneaYNu0/qZmNphoSI1+dl5NeHu+niFJx3q0XAzXx+RKBNXvjDO27ikBgRCAR48Y/vuuliHPBdnMqlRcBkk048Hg8jbxqutf5RpH23IrqO7+ymi/NtxWIq3AlAPjDWpGGCP8HtkLKEQVHnQspO6GDaPBF4HacS4N1AJ9OOVsxZx7KZa0ybS4xY8OYKt5NCK4EfA6uBtzHc6rfjkEpyK9q5iUPCYODF/fElGM9tGodzDwybcCcAZ2D4gek2sStpudr7Ohr1O7+vm+adsbSJ1bSHZ9joRqLYtEesnQM+XCSk/S7QPKZolFGYQZfxtabNEwnza4BwJwAnmTTyeDz0PbuX7VgkREp7ldC+m/EqKWtm/nshgUAg3GFImDQ2NDH3ZeO1/9aU9yuzVWpWwqDPOb3dzAUwugfaEs4EIAEYadKwrF8HzZSNcr3PrAt3CBzYU8/Obca13yXKfbpxJ40NTeEOIyI+C2Iup0O2m2XoI7E0omkinAnAAAx3yeqm8phRr2pwZUSUbA40awQgXgVawv9vn5qTSoe+rnc+lzDrPrGradMsoL/FUNoknAnAQJNGCf4EKgYaL7OVCOFL8lF5YmVYY0hKTiRbI0lxK7c0G1+iq+JUrnUaVqVlzDGgcnClm+JNA2zG0hbhPPP6mDTq0KeUxGSjeYMSYSr6u9r40bU+47to2VUcS0xKoG5UTVhjKO+vh5lY4E9LoqSH8WuAsG33GM4EwGgWX7n5EjKJMAn+sL36wuvzMuHKE8N2fIkMk64eFtYkMMFdeWyJIOX9je9NRg/DNoQrAUjE2ea1zQq7FloORcJh3lPz+fcdL4Xt+KfeMIJOfcM7AiHhVzuwgklfGxa24z/7nedZ8Lx2qIwFRV2MVzbVEqaJgOFKP8uAm9rayJfgY/h1Q/XOLIo1NzUz7e43mPno7LAswfMleDnzljGc8Q3jIoISY7oPc5bvL5uxJuQTAwMtAVa9t5oDOw9Q3r/M7S5zEkYpWcnM+vscaPsp5AUeAHZaD+o4wpUA9AQuaWujnA7Z9JqiJTPRqqm+iedve5Hlb6wI+bHbtc9i4Kk9ufp359Bvouqty+d1HVxF/0k9aGpsZvf2fezffSCkx9+yZCvbV22n4xBNCoxWvkQfi15cTP2eBpPmTwJrLYd0XOF6CWv0siSzKNN2HBIiDfsaePY7z7Nh/sagH8ufmkTXE6uoqiulomcxlT1KyGmvc0eOraSmgMvvdgqzfbZ5F6s/2siq+RtY+eF6Fr27kvp9Rhf2Vlvx9kqe/e7zTLpzgiY6R6nM9pns2rzbpGlYJreFKwEwWv+v4j/RqWFfI0/f/Cybl7iquX5MWfnp9JvYnT7jOtP1xI4khnGCoUS/nKJMcooy6T3W2eylsb6JRe9+zNyXlzDj+QVBKyC1dtY6nvnWc5z2s8lhnSQrZjIKjO9R2TbjaK1wnWFpJo0ioXCMtE1zUzPP3/5C0G7+lT1LGH/5YAadXkdCmNd0S+xK9CdQN6qWulG1XHDnJGa/uIhpD89g4dsfW5/LsmH+Rv5167855ScTw16nQNrGxT0qLBvbhCsBSDZplJCsjDiatDS38O87XmLtrHVW+/V4PPSb2I0pt4yhtFarQiS0EhJ9DJjcgwGTe7B+6Rae+NkrzPr3IquJwNpZ63jlrmmM/+4Y1aqIIokpxq9ujB6K3QrXHdUoTdLkmOjyzu/fY+W7q6z22WNENed8dzyVPUus9itiorS2kBv/cgGr5m/gnz95iY/eWG6t76WvLSOrJJNBl4StUJy0kYsRm7AMb4frjlpv0qhxf6PtOCRIlryylLlPzLPWX2ZeOl+95yy+/Y9LdfOXiFPZs4Rv/+NSrv/TeWTmpVvrd8bDs8KyakbM1O81urUB7LcZR2uFKwEw+mbr9xj/cCWEti7bxqt3v26tvyFn9ubnb9/E0LPDVjBLpFUGTO7Bz966kcFnWNquPACv/Gwa21d9aqc/CaqGvcYPqaFdd3pQuBKAfSaNGvYGdxmOuNd4oJEX73yZ5oZm130lJiVw+d1ncPVvzyY9JyxzZETaLKNdGtfcdw6X3nUaiUnu37I27m/kxR+9THOj+8+UBJeLh9S9NuNorXAlAFtNGu3dbpQ3SAi9fd+7fLZ+h+t+couz+P4zVzLygn4WohIJvdEXDeDWp6+gXXujVc+f88nK7bz35+kWopJg2rvd+D4evDXSxxCuBGC9SaNPVm23HYdYtGr6Gj7610LX/ZRUF/CD579Gx97a+EmiW6e+Zdzx/NW075jvuq+5j89j/YcbLEQlQRHAzauasPzDhisBMPpm9+/Yz75PNQoQiZrqm3jjnrdc91PRo5hb/+9KVe6TmJFbnMVtz1xJeff2rvoJBAK89os39CogQu3cvIsG82qRRg/FboUrAdiI4TuPT1ZqFCASzXx0Nrs27XLVR0WPYr73xBVk5oZlSaxI0GTmpXPrk+6TgB3rdzD3cXura8Se7eb3pj3AZouhtFq4EoAWwGiseMO84NeSl7bZsWEns/8x11Uf+R1yuOWRi0nNMqoRJRLxUrOSueWRi8ktcVf1dcbDs9i9NTiliMWci3vTApx7YsiFs7KOURq78j27hWXEvekPfuBqWDI1M5mbH7qQbO31IDEupyiTb/39EtKyUoz7aDzQyIyHZ1qMSmxY+f5q06ZhG9IJZwIw26TRJyu3s9PlULPYs33VpyybZl6oxOPxcM39U+nQpchiVCKRq6SmgKt/ezYej3mJ30UvLmHnxpBvHy9fYvvqT9lhvvppjs1Y2iKcCYBxpZiV72gUIFJM/+sMVzXQJ1x1Ir1G11qMSCTy9R7bmfGXDzZu39LUwgf/q1GASPHxOyvdNLdXNa2NwpkALMNwNcBHzy4g0GJ3By5pux3rd/Dx2+YnfmXPEs753kkWIxKJHlO/fxIVPYqN2y99bbnmAkSAluYWFvxrkWnz9YC9DSTaKJwJQCmGMx8/W7+DVdPXWA5H2mre0x8ZP/37Erxc+esztYWvxK3EpASu+OUU403OWppbmP/MR5ajkrZa8dbH7N6627T5VqDMYjhtEuoEwAuMAR4DVgF9TTua+8SHtmISAw37Gln04hLj9mMuHkhZV733l/hW0aOYUV/pb9z+o38tpPGANkkLJ5ebnvXBuRe+ApwFGO8nbCJUCUAScDWwmv9+o66KZK+fu4Htq7VBRrgsm7bMuOhFVn46Z94y1nJEItHp7O+MM659Ub+7no/fcvX+WVzYumwbmxe5ruJ7+IPxSuBrgN9tp609cDAlAlfgvO+/D7Ba23XJK0ttdidtsOSVZcZtT7l+hNb7ixyUlpXC5GuHG7df8pr5Z1HcWfyS+SjolygFfoczL+AqnIfnoAlmAjAU+BD4I1AejANsW/FJMLqV49i9dQ8bP9pk1DY9J5UR52mDH5HDjb5oABntzEYB1s1ez77PVCI9HIJ4D+oA/B6nYF7QhkuDkQDkAQ8CbwJdg9D/fxzYGZYtlOPe8teXG0/+O/mrQ0hOC2pSKxJ1/KlJjLtskFHbluYWVug1QFgc2B30e1An4CXgrzj3VqtsJwAnA4uAiwHzKhetlKaa8WGx6gOzFRiJ/gTGXDzQcjQisWHcpYOMV8WsNvxMijshugd5gIuAxTj3WGtsJQA+4A7gX4D7fS9bqaSnu401pO0aDzSyaYHZvhV9T+rqqgSqSCxLz0ml19jORm3Xz92gXQLDoKSneR0HA3nAc8BvsLRawEYCUAhMA2631F+rJPgTqB2jCnKhtm6O+YVmyFm9LUcjEluGnd3HqF3jgUbjeTlirsv4zviSQlrLxANcD7yGc+91xe0NuyPwLjDMbSBtNfjygaTlpob6sHHP9CKTmZtGzxE1lqMRiS29RteSnm12XVMCEHoZBekMusS8joMLQ3HuvZ3cdOImAeh7MICObgIw0euMnvSeUhfqwwqwebHZ8H/34dX4EsJZeFIk8vkSfXQdUmXUdssS1+vRxUDfc/rQd6rZyI1LHYHpgPHEKtMr8hDgDSwMQbRFXlUuk388keHXDQ3BFEM5UqAlwLblZsteug8NeZ4oEpW6DzN7qNuyZKvlSKRVPDDkqkFM/tHJ5Fa2C/XRc4GXgRNNGptU4+uFM9kv3eSAreVL8pHfKY+C6nwKavIpqSshuyQrmIeU49ixcadx9b/uw6stRyMSm0wTgH079rNn2x7S84N6aZYvUXViJVUnVrJz407Wz9vItmXb2Lp8G9tWfEJTfVMwD52BMzlwJE7tnVZrawJQA7wIZLexXauk5qRSdWIllYMqKOtbSoLfVbVgsWzHerP9x3PaZ5JbrORNpDUKK3LJzEtn1ydt3+lvx/qdSgDCLKs4i6ziLJjQBYCm+ibWzl7PqvdXs/LdVcEq2pSNc28eSht2F2zLHTYPpyCB3WF/D3ToXUqPyd3oOKQKr94TR6xdG80SgNLakL4pEol6pbUFLDJJADbupLR3SRAiElMJ/gSqBldQNbiCETcMZeU7q/jo2YWs+3A92N3VvhDndUA/oFXvalubAPiAvwMVRmF9iYoB5Qy6bAAF1SErHSAu7Ni4y6hdSU2B5UhEYltpbSGL3m17db+dhkm6hIYvwUf1iE5Uj+jElqVbef8vH7Bm5lqbh6gA/gZMAI67Xru1CcCPcHYrsiK3sh0jbxwe6iIK4tLe7XuN2pVUKwEQaQvTpHnvJ2afUQm9wtoCTvvZZNZ/uIHXf/0Wn66xtrvtWOCHwPeO9xdbM94+CfiW24jAWeIy8JL+nPvHs3Xzj0IHdpnVvc7SO0mRNsnKzzBqV7+n3nIkEmylvUo4709nM+DCfvgSrBUV+g7OKMAxHS8ByALux8Kiu4yCdM665wzb36SE0IHdZheX9BwVbBJpi/Qcs5LZpp9RCa9DD8fn3DeFzCKz5O8IHuDPQM6x/tLxEoC7cfYndqXshA6c96dzKOysoeBo1mD4dKEEQKRt0gyrAWoEILrlV+cz9f6zbE3kLAbuOtZfOFYCMAq4zG0EncfUcOpPJ5Gcmey2KwmzlhazKavJ6X7LkYjEthTDz0ygxXIgEnIp2Smc9rPJVI9wVeX3kMtx7uVH9WUJgBf4NS6H/ntM7sa474zB69PSvljgMTwbmhqCWgRDJOY0Ge/sZ3ddmYSHL8HHhO+Po+vBWgIueIBf8SX3+i+7M18I9HBz1JpR1Yy6aQQer2r2xjvzi5lIfDJPmnW9jRUer4ext4yi8xjXm6j1BM4/2v84WgKQDNzh5milvUoY953ROhdjjC/RbPJmU70SAJG2aG4yG8tXIbUY44Ext4yiuEd7tz39EPjCe6WjnS1XAOWmR8kozGDSDydopn8M8meYvZfct2u/5UhEYtvenWafmeRMzbeJNb4kH5PuPNltiecKjjKn78gEwANca3oEr8/LSbeONb5RSGRLzjCbyPnJ+h2WIxGJbZ+s+8yoXYomW8eklKxkTrp1rNtX6jdyxD3/yATgZJwNf4wMuLAfxd1dD1VIhDJdybHN8GImEq9Mk2a/VtzErJKexfQ7r6+bLqqBcYf/wZEJwHWmPeeU5dD3vN6mzSUKZBSYDUFpBECkbUyT5owCK0VkJEL1/8oJZLXPdNPF9Yf/5vAEoANHZAdtMeK6oXrvH+OyS8y29F23aLPlSERi25qFm4zaZZW4ujlIhPMl+Rh27VA3XYwH/lNl6PAE4EwM5+1XDCin7IQOboKSKJBlmACsWbSJhv2NlqMRiU0H9jawfskWo7amn1GJHlWDK9xUCvQCUw7/zSFnmvbY7wJX7yUkSuSUHbOs9Jdqbmxm5bz1lqMRiU0fz11HS7PBMkAP5JRk2w9IIk6/813dc/9zrz+UAJQCg0x6Kqkr1sS/OJGanWL8jnHpB6vtBiMSo0w/K9nFWVqBFSfK+nagqHOhafMTcfYJ+E8CMBbD4f+ep3Y3DUKiUFEXsw2dZr2wyHIkIrFp1gsLjdoVdS2yHIlEsh6ndDNt6gVGH/oPgCEmvSSlJlE1uNI0CIlCpjs6rpq3QasBRI5j29rPWLPAbAJgkXZbjSvVIzqRmJJo2nwouEwAakZ2IsGfYBqARKGSOrPJJ4FAgFn/NnuyEYkXM55bYNy2pK7YYiQS6RJTEuk4pMq0+X8SgEKcAgFtVjHQuGKwRKnC2gJSsswKAr35j1mWoxGJHYFAwPgzkp6XRl5VnuWIJNJVDDC+B9cC+V6cXf/a/P7f4/VQavg0KNHL4/VQdkKZUdu1izaz6N2VliMSiQ0L3lzBhmVbjdqW9y/X5mtxqEPfUtN/dw/Q3Yvh039hbYFmnMapykHmIz8v/fldi5GIxI6XH3jfuG2lRmPjUmp2CnmVuabNa7wY1v7P76ThpnhVNbiSxGSzySdzXl7ChuVmTzkisWr90i3MfXWJUVt/ut/NULBEORf34mrjBKBdRTvTg0qUS0xJpONQs8knLc0t/ONHL1qOSCS6/ePOFwm0BIzaVo/oiC9JZdjjVW6l8b24+tAkwDZrV25WFU5iQ+exxptGMuelxSydvtpeMCJRbNG7K42f/gE6j621GI1Em5wy4wSg0AsY7R6R1i7N9KASA8r6diCr2Lzu+CO3P29W7lQkhjQ3tfDI7c8Zt29X3o6SHlr+F8/S2qWaNs3yAkZXcdO94SU2eLweek3padx+5bz1PPe7tyxGJBJ9nvnN68aFfwB6n1Wn2f9xLjnTeDJ+lvEIQLJWAMS9bhO64E83Pw+euvs11i3WVsESn9Yu3MQzv37duH1KVjKdx5i/ipPYkJxh/DCe5QXMZo8o64x7iSmJrvaCaGxo4v7rHtNWwRJ36vc1cN+1j9HU2GzcR68z6lSJVcBrfDP2eYEDJi2bG/X+VqDv1N5uMlDWLNjE/dc9RiBgNgNaJNoEAgH+eNOTrka/UrJT6HVmncWoJFo1myeR+10kAOaZq8QOf7qfPuf0ctXHjOcW8Ow9b9gJSCTCPfWL15j+zHxXffT/ygkkpRpvBCMxpKXJ+GH8gHECcGCXUTOJQb2m9CQ9P91VH4/f9QpvPzbHUkQikenNv8/i6V9Mc9VHVnEWPSYbbwUrMcbFvfiAF/jMpOXuLbtNDyoxJjE5keHXGm0o+R+BFmdY9L2nPrQUlUhkeefxufzp5qdcv+4acf1QfIkq/COOXZuN78WfeYE1IT6oxKBOwzq6rkfe0tzC/dc9riRAYs47T8zlDzc+YVzt75Dq4R1V9lc+Z/fmXaZN13qB1SYtP1trNHAgMWzEDcNdv5dsaW7hvmse45nfmC+PEokUgUCAp385jd9f97jrwlf+DD/Drh1qKTKJFZ+a34vXGI8AbFqk9dvyeZlFGYy4YbjrfgKBAI/9z8v8/vrHaWxoshCZSOg1NjRx/7WP8cTPXrGyymX010eQnqcKrPJ5mxZtMW26xgusMGm5dfk2mpu0EkA+r8u4WmpGGe0w/QVvPzaH20++j/VLjU9wkbBYv2QLt024j3eftPM6q+uELlSP6GSlL4kdjQca2b5yu2nzFV5gpknL5oZmNi/UhVm+aNRNw8kuzbbS15oFm7h13G958U/vqlaARLxAIMALf3iHW8f/lrULzUv8Hq5deTtGXKehf/mijfM3uXm1NMMH7AYuw2BPgKTUJE1IkS9ISEqgvF8ZS15ZRnOD+1GiluYW5r++jA9fXUpJTQF5lpILEZtWfriee6/8O68/OtPaRlfJGcmc8ctT3Wz4IjFs9t/nsHX5NpOmq4EfH1pLMhjo2tYe9m7fS+8ze6kssHxBSlYyeR1zWTZtOVh6cP9syy7e+uccNq/6hMq6UlK1IZVEgG1rP+PBbz3Dw99/ju0bdljr1+vzMulHEyisLbDWp8SOQEuAV+9+naYDRvOkXgKeOJQAlALj29pDw94GSutKyGxvtJ+QxLjs0mxSc1JY9YHRPNMvtW7xZl554H02Lt9GQXk7sgszrPYv0hqr5m/gkdue58Fv/x9rbU+K9sDom0dQPVzv/eXoVk9fw8LnF5k2/xPwwaEEYDtwnUkvDXsbrE36kthTWFtAoj+BtbPXW+030BJg3ZItTHt4BovfXUlzUwv5ZTkkJas8qgTPns/28fbjc3jktud5/Kcvs37pFtdr+49m2DVD6HlqD+v9Sux445632LnRuAbAtcBnhw/eL8TgNYDH6+HiRy7QKIAc0/sPfMCMh2cF9Ri+RB89h1fTc1QNXQZVUlpbiMd8pywRJ9FcvJnF769i3rRlLHh7RdD3QRl06QD6f+WEoB5Dotunaz7j4Uv+Zvp6dT5QB3D4XpLPYJAABFoCfPDwLMZ+c5RRJBIfBl06gMTkRN798/vW5gQcqbmxmbmvLmHuq0sASM9OpVPfDhRX51NYkUthZS7t2mfhT00iJcNPSrofr88bnGAkKrQ0t7B/Tz37d9dTv6+BTzftZPOq7WxZtZ2Ny7exYvZa9u7cH5pgPDDs6iH0Pku7/MmxffC/M91cR5859B+HPx71BYwe0TxeD+f96RzyqnKNI5L4sOC5hUz71ZtBGTYViVZen5fR3xhJ15M6hzsUiXCbl2zhn197wk0C0AuYB3D4jhKbgMlAcZu7C8DOjTvpMq7WOCKJDwU1BeRX57F6+hptKS2Cs6X2xB+cpEI/clyBlgAv3vkyu7fsMe1iOvDjQ785ckupZuAUk153btxFZmEG+dX5poFJnMjpkEOn4R1ZN2c9+3dqW2mJXzml2Zx+96m071YU7lAkCsx7+iMW/Guhmy6+izMHAPjiCv5UYANgVGnFn5bE+Q+cS0aBu73hJT7U76nn1Z+/zoq3Pg53KCIhVzOqmtE3jyApNSncoUgU2LFhJ3+7/J80Hmg07WI7zpL//zx1HTkC0Ai0A0406b25sZnNi7fQeVwtXq8mV8mxJSQlUDOyE5lFmayfu57mRjvV00QimT8tiTG3jGTQJQPwJR55CRb5oqb6Jp751nPs3rrbTTe/BF45/A+OdvbNBb4K+E2OsGfbHvZu30fViZUmzSUO5XfKo3ZUNZ+u+czNulaRiFfev4xTfzqJkp5tn2olcSoAL/3kVdbOXuemlx3AVA57+oejJwD7gWRghOmRti3fRmJyAsXd25t2IXHGn+Gny7hacivasWnRFhr2NYQ7JBFrMgoyGPut0Qy+bCD+dKNnK4lT7//1A+Y/s8BtNz8CXj7yD7+sSkomsBJwta5v+LVD6DVFa1qlbRr3NzL7n3OZ+/g8JQIS1fzpfnqfVUefs3uRqCqV0kYzH53Ne3+e7rabbUAV8IWlA1/2Aqoe+BTDFQGHrJm5Fn+an/ZdNcNVWs+X6KO0Vwk9TumGx+Nh2/JPaGnS/ACJHokpifQ9pzcn3z6e8v5l+BL0rl/aZsYjs3j/Lx/Y6OpaYMbR/sex6qR6gFcB1yX+uk/qxsgbhuFN0MRAabuGfQ0semExc5+Yx67NribBiARVZvtMekzuRvdJXUnO0G6V0nYtzS28ee/bNob9Ad7AuYcftWzQ8Qql1wIf4swJcKW8XxnjvjuG1OwUt11JnAq0BFj1/moWv7SEVR+soblBhYQk/HxJPioHVtBlfC2VAyu0/4QY27NtDy/+6BU2zN9oo7t9QE/gS9dZt+ZM/QbwcxvRpOakMuaWkVQOqrDRncSx+r0NLHx+Ee/8/j0CAZUVltDzeDwM+epguk3sij9Na/nFneVvrOC1X75B/e56W13eANxzrL/QmhdT7wO9cUYDXGk80MjS15azc8NOiroUkqQPjZgIwLJpy5n+4Ac0HmgKdzQSx7Yt3+ZUQO2Y17rHKZEj7Ny0i9d+Po0PHpplc1TzCZyH92Nq7SmbDczGmUloRWJyIn2n9qbXlJ5aFiOttmbGWt7783S2Lt8W7lBE/qOgJp/Blw+kvF9ZuEORKLF/5wHm/HMuc5+YZ3tflGVAP+C4RVXakrP2Bt4CrNb5TUpNpPvEbvSa0pOMwgybXUuMaG5qZvm0FXz41Hy2LN0ajEPcymEbZITZHcDtbW102cAeXDaoh/1ojuIv73/EX6Z/ZNL0BzgPeCpbAAAda0lEQVTfXyT4IfB9250Wdi6g15Q6qkd01Mx/OaodG3Yy9/EPWfTiEprqrY9g7gKGAK36gCa0oeO5wJnAs4C1sfuGfY3MefxD5j4xj+Ke7akdVU2nYR1J0WTBuNbS1MLGBZtYNm05y9/8mAO7grZp0D1Ezs1fQud2oCNwns1OtyzZyks/foU3732b6hGdqBnZieLu7bUCKs7t+WQvK976mGXTlrNp0WY3W/keSz1wGq28+UPbEgCAl4CLgUcAq2d0IBBgw7yNbJi3kWm/fpPcinaU1pVQ1K2InA7ZZJdma6JNjGppbmHv9r1sX/UpW5dvY/PCzayft5HG/cabXrTW34Cbgn0QiUgB4BIgB5hgu/MDuw7w0bML+OjZBSSmJFJaV0xRtyLyO+WTV9mOtLw0vD4lBbHowK4D7Fi/g0/X7mDTwk1smLeRz9btCPZhm4Hzgdfb0qitCQDA33HmBPyOYE17CcD2VZ+yfdWnzPu//yYz/gw/yel+ktKSSExOJMFvEr6EWyAQoH5PPS1NLRzYXc++T/fR0hzyQj8v4iSzqjAUvxqAKcBzWKh38mUa9zeyavoaVk1f858/83g9pLVLJSktSdexGNDc0EzjgUYO7DpAw76gP7gcqQW4CniyrQ1Nz7z7gZ3AX4GQ1bes311vc4mExK8ngQtwdr+U+LYfOBnnWjY1VAcNtATY88le+GRvqA4psakBuBD4p0ljN2NQfwNOxyk2IBIt7gHO5ohdsSSu1ePMBfhBuAMRaYN9OO/8jW7+4P49/vPAaGCDy35Egq0Zpyb2DWjYX74ogLNC4UZ0fkjkW4uzY+8LbjqxMQtlOtAHmGahL5Fg2AJMxpm3InIsvwFOxdlBTSQSvQT0BWa67cjWNNStwDjgf3CetEQixbM49bBdZcoSV54DeuCMcIpEiiacUaqTgU9sdGhzHUoz8F3gBGCOxX5FTOzHGc49FSdBFWmLLcAk4CKOso+6SIjNBwbhzFOx9ooqGAtRPwQGArehiVYSegHgcaA7znCuiBsP4VRBfSrcgUhc2gd8G2fIf5btzoNViaIRuBOoBv6IM3QhEmzTgeE4s/xXhjkWiR0rcOoFDMAphy4SbI04985q4C6CdA8Ndimq9TgFCnoAj6H5ARIcH+IsSR0EvB3mWCR2zcBJMKfgDMmK2NYEPAp0xbl3bgzmwUJVi3IJcA5QhvMOw8oEBolr9ThD/WNxhmj/L7zhSBx5CqjDme/0R5z5JiJubMV50u+IU6RsRSgOGupi1BtxZjF2wKle9Az68EjrBXDeg30TKMUZ6n81rBFJPJuN85RWjvOedg7B2uZFYtE+nKqk5+I8HH8bZ31/yISrCPUB4OGDX+k4m3FMBgbjZEAih+wAXsZZxvcCzuxskUiyDefp7S6gPc71bALO6FRWGOOSyBIAlgLv4Sw1fZEwPwBHwi4Ue3CGch8/+PsinHe5/XCSgaqDv+aEJToJlb04FSU/AhYCCw7+ugxNIpXosQl44OBXAlCLsyKlO9Dt4K8lQGq4ApSQ2AZ8jDMZeQXOyOX7RNjr70hIAI60GXj64NfhMnCy6dSD/51B+OK/BIN9xCd168jYzuXWg7npqddpCRiNPJ5EeCZmBnCe7A997UQ3eYk9TThJ7EK+WK89Eed6loWzu2o2wdpd9dj8OE+jbZLg9fKL00dYD+blJat5fqHRAp6/4yRd4bAfZzh/J86DzJ6Dv0a8SEwAvszug1+RYIRJo5LsdPqVFVkOBTweTN88voZuvCLh0IjzNBjuJ0KjkQiPh6BcyxZsMv5xrELzgdos1JMARUREJAIoARAREYlDSgBERETikBIAERGROKQEQEREJA4pARAREYlDSgBERETikBIAERGROKQEQEREJA4pARAREYlDSgBERETikBIAERGROKQEQEREJA4pARAREYlDSgBERETikBIAERGROKQEQEREJA4pARAREYlDSgBERETikBIAERGROKQEQEREJA4pARAREYlDSgBERETikBIAERGROKQEQEREJA4pARAREYlDSgBERETikBIAERGROKQEQEREJA4pARAREYlDSgBERETikBIAkVjgidFjiUjQKAEQiSxJJo18ntB9lH0e4wwgwWYcIuKOEgCRyOI3aZToC91HOcFrfKxkm3GIiDtKAEQii9FNMpQJgM88ATBKbkQkOJQAiEQWowTAxVN5m7lINpQAiEQQJQAikcUoAfAn+GzHEYxj6RWASARRAiASWfJMGmUmG80dNOLiWLk24xARd5QAiESWIpNGmcmhG113caz2NuMQEXeUAIhEFqMEICsllAmA8QiA0fcmIsGhBEAkciRg+Aogwx+6VwBZ5iMA+UDoJiuIyDEpATBj9HPzmhdQOaZEr9E1tQlothyKuFOAwbmV4PWSkxq6EYB2acn4vEbncgJOEiCRw+ha5gnStcxjXmZS9zID+qGZMVyqFZwPTUFGikmzDUDAcijiTrVJo4KM1KAll0fj9XgoSE81bW70PUrQGGWOwVp26uIaqSWmBpQAmDFLAHzBGf3s06HQpNlrtuMQ17qYNGqfmWY7juMqzDA+ZmebcYhrZoWngpQAGI4sgRIAI0oAzBhmzcF5SptSV9PWJ8AAcF9QghE3jBKAojAkAC6OqQQgshg+zARrBEBFpkJJCYAZozH35ITg7IXSMS+bc/u26br6G2B2UIIRN4xujiVZ6bbjOP4xs42P2dVmHOKa0bUsWIWn/InG10ij7yPeKQEwU2DSKJjFWq4e0ovTenZqzV99ALglaIGIG91MGlXmZtmO47g65mabNlUCEFmMJmUG61rmol9NLjWgBMCM0XrmjCAmAF6Ph2+O7s9dpwyjS2Hu0ebSzgbOAC7DWQEgkaUUKDFpWJVnfDM2VpVnnHSUoYJAkSSiCk+pxkRoaX9uMxH1oTnc0I6lDO1Yyva9B1i/YzfLtn76i1+9MfuXwMagH1zcGGTSKDkhISyvAEqzM0hK8NHQZLSSdDDwpOWQxIzhtSxIIwDm9SyUABjQCEDbJQHtTBrmpYVuL5TctGTqSvI5q3fnvejmHw0GmzSqyM0M6RLAQ7weD5XtjEcBjL5XCQqjG2duWnBeubvoNxdItBhKXFAC0HYdoe3VKtKSEkkPYbW2Qzy0aLg1OhjdFLsWhW9/HRfHNhrtkKBo1cShIxVmGNeBOKbs1GTTCYZeoNJyODHv/9u78+C8i/uO4+/fo0f3YV2WrMuSfFuWZVmSZcm25PvmvjGOIVAnNNwmpaQQmsQETNOUkjRNk0wScjTkTjtNSkMOmk5IgKaETCClyRRzlAApUAjUYHyof6w9BWzLenb3+R3P83nN7Hg8o12tnuP329/ud7+rAUDmrCK1HfZNOxlT4pUkqAB6bSrOb4ou9qm7ySprMUA/EM0XQt7K6no2JUvXswCnwYXVNtp8pgFA5iz3amdnxHx8gaKu428NZmkpYw43YWfdzda/uwjzN0u0CrGcAchm7gmHhyUNADKkAUDmrD5k7bVVvvsxUQ0/u/rc6O4SMhGbbSrVlpW47Md31lpdSbX9KYRWf7N4NR2LgWcAtNVU+u/NIVNrrK+VSjKVIQ0AMtdnU6nDPmDK2X59MeIswPJm2NtqlY7CmwDobbHuwyYsYmnEK6trWUNlGeVF2Yu3c8hrYfX35DMNADJTjeXNdFoEyVoOO3CQnsh+uRxPP5b74he3Rx/fOWjfhxYs4x7EG6vA02wnnnJofx5Q47ErOU8DgMwMY/GapYKAjggHAASBtl3F12m2FR1uvt4s7nDqw+m++iFWrHZjdNpngZyQafWTbKeGUsCg187kOA0AMmN1I22vrcrqlNnxBGMsjeyXy3hSwFabip11k7K2FSsTTVXlTLVfD96KrkFRKQe7mcF5Wd56OqmkmGb72BY97GRAX77MrLSpFOVe7THg/sef7qgqKfos8D3gX4BPA6egxBlRWw602VQccnvy9mq40yqDMUA7MOKxKzJxo1hmgg3jetY9xTpu2eoana80AJi4WmDIpmJUW7WefPFltt/xXa785t38/rXXL8BsvRoBLgS+BfwcGIikcwKwzbbiqplTffbDyYoZVmOYw97mqx+SkRNsKtWVl4Zy/HSX/TVzCSYroEyABgATtwmwSlE1P4IBwO7nX+Idd9zFr555frwfmwfcDSwLp1fyBuVYrv83VJS5XCC9m99cT32FdQrXM4Do1zLyzyabSj3N4SSe6rHPMVEArPfYlZymAcDEWY2Ya8tK6Az5tLZ9Bw5y/Xd+zEuv7Z3Ij1cAX8bscJDwXABYbXheNWtqrPbPpYKAlfazAJNwmAkRK91Ah03FgamNfntyDDMn1yjHRAg0AJiYUmCjTcVF7VNCv1h/95Hd7H7+pUyqtADvylJ35EgBcJlt5ZUxmv4/bNUspz5djnIChMl658miqeEcupcKAvrbrAcbm4DwTl5LMA0AJuZkLJ/WBtrCP6Xy+//xhE21P0THQ4dlEzDbpuLUmkqXFLxZ09PSQGu19W6AuWjaNiwBlnEXTVXlLu9xxhwGG9XAiR67krM0AJgYqynKVBCwpLPZd1+O69HnX7Sp1orluqBk7CrbiifMmx7LR+UA2DxvmksTV3rqioxvGMv8/8umWe/2sLKks8Xls67g0gnQAOD4GoG1NhV7midTUxb+TNT+Awdtq2732Q85qgFglU3FglTAxq74nni6uWsaBSnrS/Y6lMo1DNY3xlG33R4Zq68oddlyuAGI7qjMhNAA4PguwnJqfPmMVs9dmZjJFdZB1RuB+C0w55adWK53D3c0U1duHW2fdfUVpQx1WM94BcAHPHZHjlQJnGtTcVJJscu5D9aW2w86CjHbnWUcGgCMrxDL4LgApw+vE4fgmQLMgEeyYxnmycTKGb1WYQOhOqN3lkv1zSiTWza9HbPrImMj01tdZnesLZ/pdA29BCU7G5cGAOM7GxMhn7GFrY2hJMw4mnVzOlyqX4hlvgM5Lusn3Gl11SxqDz+gNFOL25uY4bbt9WZffZE3SWF2W1jZ0NXhrycZaKuudEmk1obOmxiXBgDju8K2YpRrtXMaa5lufxFuRelZs2E9DmlKz+2fE8vgv6M5c6HTTMUoJh5A/DoRmG5TcUpVeSTT/4cpuDR7NAA4to1YpsktSadZ6TZ15Wz93A6X6soM6FcRcJtt5bryEtdZnVCtn9PhGvx6G+Y1Ez8C4HrbyhvmdpIKoht+rp41laK09aTkYjSgPCYNAI7tfbYV181ppyzC0//ARGQXFli/vdEN93PTu7Hc9w+wpX+uy3sZuqJ0Aef2zXFpYg56cvPpFCwfZlJBwAluT+DOKoqLWO2WaOqDKNHUUSXnqhKuU3E4V9oxEMqLmrIS1s7usK1ulUhAjqoN+BPbyrVlJZy6YKbH7oTj9N5ZrrMAf4o5LVDcpDCvpZWR6a00T7I+mtebs9yWlQaAkzx1JadoAHCkAhyCtXpbGpgxucZjd+w5fGnu89mPPHcb5uAfK1sXdVGSTl6CxtLCNFv657o0UQb8uafu5LNzgQW2lePwMAMwu6GWeW4HYO1Ewc1H0ADgSJdgDsuwclZffLZqzWqosdkS+BTwgyx0Jx+dh5lNslJXXsqpPcl7+j/stAUzqXWbBTgDOMdTd/JRJXCLbeXp9dX02W8p9s5xFmA+Ou/kCBoAvFkj8H7byh21VYxOjyb5z7Fcvrwv0/XjPwZey1J38kkL8BGXBrYPz6fYPvgpcqWFaS4cmu/azMcxyyiSuRuw3MYMsG1wXqwWzlfPmkqb21kENwJNnrqTEzQAeLMP4XAs7vmD3ZFGyx7NzMk1vHf9MOnUhN7qm4C/zXKX8kEAfAqotW1gxuQaTui22rUVK6f0zHDZkgrm+/hpFMSVqS4ctjG3VFewKmanTqaCgPMWdbk0UYW5xskhGgD8v3XAVtvKzZMqWDM7njFLa2a387Ez1zDzGLEJVcVFe4AtwHWhdix3XYrl8dGHXbG8L3aDSRupIOCy0YWuzaxF07eZKMAMQK23Ip0/OC+SzH/Hs3FuJ42VTgnWzgfWeOpO4iUvuig7aoDP4PCUsX24J5ZfmMPmN9dz+9aNPPz0czz41O94cc9eKoqLmDullv62xtJ0KvjtklvviLqbuWAIx+C1kemtLumcY2ewvYklnc38ZPdvXZr5MPAzFKA6EdfgkFJ5ak0VG+bG89CpwoIUFw13c9Nd1h+DAHOt70G7nTStdsgdOAQbzZhcw+3nbUj2E9vY2ENFeyr7Bj75yX1RdyXBGjE3KetAkJJ0mi9u2xSLrVc+PfP7/+W8z3+HV/ftd2nmaaD/0L9ydL2YQZJ1IqWbTxyJ7ByTiTg4Nsa2L9xpe+z5YV9ERwZrCQAz9e0UaXzpSG+yb/4AQdD9evkrmma1Vwh8FYebP8A7lvbk3M0fTDrZi4adAwKbgC+hmctjKQO+gMPNv7upPvRjfzOVCgLeNdLr2sxWzFkveS3fBwDdwCdcGhjubGawPWcCSz947+VbkrvvLFq3YvLYW5vTWOu61SnWzl44h9kN1nGRh63ALAfIkT6BwxbmVBBw+fK+REwLL+lsZtFU58OxPoUJlsxb+TwAqAa+CVg/bhWlC9ixwirDZlyVHyzgc18988zk7j2LxjWY/BHW0qkU71m7OPkzSeMoSAVcu3ZwojtSxnM5cLWHLuWSy3AIYgZz6I7DyXuhu3rVgGuK7ErMPaDKT4+SJ18v9CngK8CwSyMXLO6O9VqZpbaqqtSrn773oR9H3ZGE2Ap8DMd4mncuXcDKmG27yob68lKCIODfnnzWtam1wG+AX7r3KvFGMNt3ra/nk0qK2XXSKCWFyVldmVRazL4DB3nwqd+5NFMPzAW+Box56ViC5OsMwK2Y4zGtTa2p5G0DuTp7FLz/niu3OC+y5YF1OO4eAVjY2sB5A05pcxNl22AXC1omuzYTAJ9FW7pmA9/CYcsfwLtGeqkuLfbToxCdPziPlmrnmJlTMDlg8k4+DgCuwUwhWksFAdevH3Y5ojLuioKAb913yba6Q/+fC/wFcD/wn8ADmPVG661GOWAU+AaOF96K4iJu2DCc01P/b5UKAm7YsIRy9xMzizBTuCPuvUqkJuCfgLrj/eB4hjqaEpt0qjhdwPXrhnx8f3aQh8tKOXsHOwYv07XnDXSxOeIjMkNQvXfsQN/n739owZiJLF6CSStag7nw9AMXYY5u/S7wemQ9Dd8q4Ns4xI+A+RC+b+OSRK27+lJZXETzpAru/s2Trk0VA2cBPwEec20sQaqA72O+f9Yqiou49bSVPgZjkZlSVc4re/fx0NPPuTaVd8tK+TQDcDZmytDp5j+trprtS3r89CjGDo6NcdP3frrmoBkVj/c5OQf4EY5PIQmyHnPzd0pHBrBlYC4rZuZcDMmErZndztl9Tvevw8qB75A/ywGTME/+zst0O1b2M7mizL1HEXvn0gW01zrH8gXA7cCZzh1KiHwZAGzFBMk4RbiUFqbZuXmpa+RpInz74Ue565HHJvrjfcAPgYasdSgeTgL+Dih1baivrZGLlyrM4pKRXnpbvHxsyoB/ADb7aCzGaoC7cAxgBtjY1RnbjH+ZKk4XsHPzMh+HZxVick1sce9V/OX+nQzeDnwOD8sdO1YO0Fk3yb1HMXdwbIzP3pvxLFgPcDfgvDk3pi7FrDc7nW8L0FBRxs5NS2OdOjos6VSKnZuX+XoKLQH+ntw9N6AOM+0/6NpQR20V7161yL1HMTKjvpqrVvT7aCoNfB5zbkBOy/UBwHWYk8Sc/85NXdPyYd0fgEeefYFnX95jU7UL+DGO65Ixk8LsGvkoHgaRZUWFfOiU5dSUOY8jckZdeQl/dvIopX62oBVg4nw+TG5d36YD92Bm25yUpNPs3LzM1+sdKyfNn8G6OR0+mirALBlf66OxuMqlL8gbFWJu/Dfi4byDril1/NHq3Botj+exF15yqX74QrXCS2eiVY6J9L/SR2MFqYAbNy875qmM+Wx2Qy03bl7mc1ZkB/B1PMRqxMAw8FPMlj8nAXDd+iHXI5pj7dq1gz4yToJ5uW7G8WTFOMvFAUAt8I/AhT4aq68oZdeJoz7WlhLjwEHnfBi1mJ0BSZ5C68JsezzFV4PvXrWIoY6cSRvt3XBnMztWes2seSrmYJwkJ1k4G/gB4Jw4AeDtQ92snpXbCadK0ml2nTRKXbm3WbY/wASZ5tzIPdcGAIsxe9S9RAOXpNPcctIo9RXOMV+J0uLnMJoiTETtx/Gwbh6ybZibv7dMTxcNzefk+TN8NZezTu2ZyQWLrdPZH8084F9J3slvxZhlpy/jIegUYMXMNi4azv0dTACNlWXcfOKoz1wtazH3Fuf4izjJlcfaADNN+yU8bUcrSAXcdMIIfTl0LvtE1ZSX8I1f/IbXDxzw0dwAJjL7B8ALPhrMojLgb4AP4HCi2ltt6Z/LxcsW+Gou5/W3NbJnn5d93YcVYWYDWjGfw7gfed0J3InH2afelgZ2nTjq4xyGxGioLGN6fTU//PUTvnL8VmNmNX+PmVlKvFwYADRjbvyX4+nvCYD3rB1i9ex2H80lTjqV4tV9+11zbL9RE+aL8wzwoK9GPVuO2Vu92mejpy2YyRUr+hNxwlqcDLY38T97XuORZ72OGfswU+q/AB732bBH52NS+3qLOJ5RX81fnr6S0gQn+7HVXlvF5Ioy7nn0KV9NFgAbMYnQfgS87KvhKCT9unQBJkLba0RLS3VFXhzMMp7X9x/g6w/+moNj3s/HuBN4B/Bfvhu2VAHswmwd8/p9qC4t5py+OXmV5teng2NjfPmBR3jx1b2+mx4D/hoT4f2K78YttWLSa2/y3fCZC2czuTy/ljHf6s5/383u552Cm4/mReAqzFKnhKgJcyMZU0lkeREzeIvacmA30b8eKtGU3cRjt8r5mO9E1K+Hil25E3NPkhDMB54l+jddxb18lOhmoS4G9k+gjyq5XfZjZqSiEGByFkT9Gqi4l2cAr9GrcqQa4Amif7NV/BUve+wztBo4YNlfldwrBzAHPIVth2V/VeJZHsfzcrS82S6if5NV/JaXCfcgoQB4KAt/h0qyyy8JdzaqDvPZj/rvVvFbbiZBkrQnJEWyE8vI0VVgjnMNyzBmb7jIG3Vj8oiE5Rwcj5OWWLqQBN1XE9NRzLaYXD1oJt+FeeEdCvF3SbKE+dnQ5zA3NQAdUXdiopI0APCS3FliKcwlgJxL5ynehHmN0ecwd4V5PXOSpAHA81F3QLImzAyB+hzJsehzKD4k5r1N0gDgUcz2P8k9YabVvDfE3yXJos+huHoWk18iEZI0ABhDGZdy0cvAV0L8ffcBvwrx90kyPEy4N+WvEZ8shOLPZzD3qkRI0gAAzDbAJ6LuhHj1XsKdMhsDLsPs/RYB81m4jHAv3M8BN4T4+yT7HgduiboTua4HeJro93uquJePEJ13okyAKuYzsJ1oBMBfTaCPKvEvT6NMgKFpwUwbK5tbMssTxON89hWY0wmjfj1Uoik/x5wHEbVtKMNpUssBzL2o5Yh3NQGSfkxZK+Yi3oGSasTdfuC/MTfcew79Py76MPuyG4HiiPsi2bUXk7f9PuCBiPvyRmlgKdALTD70f4mvV4DHgH8mPiebioiIiIiIiIiIiIiIiIiIiIiIiIiIiIiIiIiIiIiIiIiIiIiIiIiIiIiIiIiIiIiIiIiIiIiIiIiIiIiIiIiIiIiIiIiIiIiIiIiIiIiIiIiIiIiIiIiIiIiIiIiIiIiIiIiIiIiIiIiIiIiIiIiIiIiIiIiIiIiIiIiIiIiIiIiIiIiIiIiIiIiIiIiIiIiIiIiIiIiIiIiIiIiIiIiIiIiIiIiIiIiIiIiIiIiIiIiIiIiIiIiIiIiIiIiIiIiIiIiIiIiIiIiIiIiIiIiIiIiIiIiIiIiIiIiIiIiIiIiIiIiIiIiIiIiIiIiIiIiIiIiIiIiIiIiIiIiIiIiIiIiIiIiIiIiIiIiIiIiIiIiIiIiIiIiIiIiIiIiIiIiIiIiIiIiIiIiIiIiIiIiIiIiIiIiIiIiIiIiIiIiIiIiIiIiIiEio/g+ax7WjsJSqpwAAAABJRU5ErkJggg==;" parent="1" vertex="1">
          <mxGeometry x="1500" y="758" width="232" height="232" as="geometry" />
        </mxCell>
        <mxCell id="KeBU-kHbTEerPU9ZJ03d-10" value="" style="shape=image;verticalLabelPosition=bottom;labelBackgroundColor=default;verticalAlign=top;aspect=fixed;imageAspect=0;image=data:image/png,iVBORw0KGgoAAAANSUhEUgAAAgAAAAIACAYAAAD0eNT6AAAABHNCSVQICAgIfAhkiAAAAAlwSFlzAAAOxAAADsQBlSsOGwAAABl0RVh0U29mdHdhcmUAd3d3Lmlua3NjYXBlLm9yZ5vuPBoAACAASURBVHic7N13mFXVucfx7zlnZs70wlRmhmkwM/ShSJVeRcCGBUvsJcYeY6pRE5PcmJimiaZqriXFejUaO3ZFqiAdpHdE6TD13D82JIgIM2uv03+f55kHQdba7wz77P3utdd6F4iIiIiIiIiIiIiIiIiIiIiIiIiIiIiIiIiIiIiIiIiIiIiIiIiIiIiIiIiIiIiIiIiIiIiIiIiIiIiIiIiIiIiIiIiIiIiIiIiIiIiIiIiIiIiIiIiIiIiIiIiIiIiIiIiIiIiIiIiIiIiIiIiIiIiIiIiIiIiIiIiIiIiIiIiIiIiIiIiIiIiIiIiIiIiIiIiIiIiIiIiIiIiIiIiIiIiIiIiIiIiIiIiIiIiIiIiIiIiIiIiIiIiIiIiIiIiIiIiIiIiIiIiIiIiIiIiIiIiIiIiIiIiIiIiIiIiIiIiIiIiIiIiIiIiIiIiIiIiIiIiIiIiIiIiIiIiIiIiIiIiIiIiIiIiIiIiIiIiIiIiIiIiIiIiIiIiIiIiIiIiIiIiIiIiIiIiIiIiIiIiIiIiIiIiIiIiIiIiIiIiIiIiIiIiIiIiIOU+4AxCRsPAA2Qf/ewcQCGMsIhIGSgBEYo8H6AR0BmqBmoNfHYAMIA1IPaLNPmAvsBtYDywFlh38dQmwAiUJIjFFCYBIbKgCxgBDgFFAieX+PwGmA+8ArwJzUEIgIiISFl2B/wHW4NyMQ/m1Fvgp0C3o36WIiIiQBdwAzCL0N/0v+5oD3Mh/5xSIiIiIJXnAHcCnhP+G/2Vfu4HfAMXB+RGIiIjEj/Y4N9W9hP8G39qvfcA9B2MXERGRNkjAGeo/tEQvGr/24IxaJNn90YiIiMSmfsAMwn8Dt/W1BGeFgoiIiByFH2fovIXw37Rtf7UAvwWSrf20REREYkAF8D7hv1EH+2sOUG3nRyYiIhLdpgI7Cf/NOVRfu4DzrPzkREREotS3CP8NOVxfP0XVSEVEJM74gPsJ/0043F8P4qx4EBERiXnJwFOE6abr9XkDaVkpgdyS7EBucVYgLSsl4PF4wpkEPAOkWPi5ikgbaPhNJLQScW54E4J9oPTsVDoPqqCqVyntO+ZTVJVH+455JPqP/sBdv6+BzSu3s2nlNjat+ISP565jyfRV7N9dH+xQAV4GJgMNoTiYiCgBEAklL/AwQZwAV1JTwJAze9NzZA3l3drj8br7iDc3tbBq/gbmTVvKu09+yJZV2y1FelT/xPnZtATzICLiUAIgEjr3ANfZ7jQpJZHhU09g+Ll9qexpexfg/woEAiyftZa3/jGbdx6fS2NDUzAOcx9wTTA6FpHPUwIgEhrfxtm615rUzGTGXjKIk648kczcNJtdH9dnm3bx/O/fZtrDM6jfZ33U/nvAT2x3KiKfpwRAJPiGA6/hzPx3zePxcOKZvTj/jokhv/EfacfW3fz9zhd494kPCQQCtrptAU4CXrHVoYh8kRIAkeAqAuYe/NW18u7tueznp9Oxdwcb3Vmz+P1VPHDL02xcsc1Wl1uA3sAmWx2KyOdZeSIRkaPyAk8CdTY6G/WV/tz4wAXklebY6M6q/A45jDjvBA7sqefjOetsdJkOnAA8giYFigSFEgCR4LkFuMptJ6mZyVz3h3OZ+LVh+HxeC2EFhy/BR92oWgorcpk/bRnNTa7v2xXAfuAd18GJyBfoFYBIcJQBC3GeZI1lF2Rwy6MXU9Gj2E5UIbJizjruvuB/2f3pXrdd7Qe6AyvdRyUih9MIgEhwPAT0cNNBUVUetz51JSU1BZZCCp127bPoPa4zc15ewv7dB9x0lQh0Av5mJzIROUQJgIh9pwG3u+kgtziL7z99JXkdIu99f2tl5qbRZ3wXPvjXRxzY62qpYA0wH1hiJzIRAb0CELEtAVgKVJl2kJmXzu3PXkVRVZ69qMJozYJN/OiMP7Jvl6uRgFVALdBoJyoRidwZRSLR6Xxc3PwT/Qnc8uhFMXPzB2fp4o0PXIAvwdXlphL4iqWQRAS9AhCxyQf8HTC+e1/8P6fQd3xXexFFiIKydnh9Xha+87GbbrrjlArWskARCzQCIGLPOTjD1EYGntqT0RcOsBhOZDnl+hH0Gd/FTRcdgXMthSMS95QAiNjzLdOG2YUZXPbz023GEnE8Hg+X/fx0UjOT3XRj/DMWkc9TAiBixwlAT9PGX/nhJLc3xqiQXZDB2d8Z56aLbkDsDpOIhJASABE7LjJt2GNENQNPNc4dos6YiwZS1avUTRfGP2sR+S8lACLuJQFTTRu7fCKOOh6vx+33fB6QYikckbilBEDEvckYzvzvPbYzVXWunoajUo/h1VSfUGbaPAuYZDEckbikBEDEvcmmDU+7aZTNOKLK6V939b0b/8xFxKEEQMS90SaNqupK6dSng+1YokbPkTUUVuSaNh+LKpmKuKIEQMSdLoDRGP6wqX0shxJdPB4PJ57Zy7R5ERB7FZNEQkgJgIg7Y0waJST64mrm/5cZdk5fPF7jB3mjn72IOJQAiLgz3KRRlxOryGiXZjuWqJPfIYeK7sWmzUdYDEUk7igBEHGnh0mj7sM62Y4jarn4WXS3GYdIvFECIGIuCcOd/7oPVQJwSLehHU2bVgKxXz5RJEiUAIiYqwYS2tooOd1Pebf2QQgnOtUOqMDrM7oU+YAay+GIxA0lACLmjLa2K60pcDPxLeYkJSeS3yHHtHlnm7GIxJM2P71I0CQBaUDOwV+TgJ3A3oNfu8IXmnwJo+H/4uoC23FEvZKaAras3m7S1Pj9gQRVKs51LAOncuOnwAagKZxByecpAQi9PGAozhrmzjj7x9fgfEiOpRlYDSwDFh/8dQYwD2gJUqxybMf7NzuqkholAEcqrs5nzsuLTZpm245FWs2DMwm2P841rPPBr0qOfm/ZATwF/AhYFaIY5RiUAARfEk7VsjHASJwtY03Gf304TzsdgQmH/fmnwJvA68C/cJIECQ2jBCAjV8v/jpSVl27c1GYcclwdgInAKJxlmPltaJsNXAqcg7Oj45O2g5O2UQIQPAOArwDnAu2CeJx2wOkHv34DvA08BDyB8wpBgsfo5pOaoYnrR0rNMt7cTyMAwZcOnAFciPMQ43buWBrwD2A8MM1lX+KCJgHalQhcDCwCpgPXENyb/5E8wDDgz8Am4E/oHWkwZZo0Ss1UAnAkFz8TjQAETznwW2Az8L84e17Yumck4Fyn/Jb6EwNKAOxIwbnZLwcexHB2uGUpwOXAUuARoFt4w4lJGSaN/KmJtuOIev7UJNOmRv8Gcky1ONex5TjXtWC9s6oETg1S39IKSgDcOw1YgpMpl4c5lqPxAecD84HfE9oRiViUhPNa512c4VAJrxOB93HOcT1NupMF3AMsxBnJDEWmOi4Ex5AvoQTAXBXwHPA0UBbmWFrDC1yFMyJwKdpKta2ygTuAtcDfgMFhjUYONxBnlGsN8AOcpbTSeh6cBGoJcB3OQ0OoxO9+2BFACYCZrwILcGbDRps84C/Aa4DxLixxJB34HrASuB0oDG84cgyFwG04/1a3otcDrVEAvICTQBWF/OA1BVU3TLv2vBvfulKlMcNAqwDaJhP4I84ylmg3EpiLs1Lh5TDHEom8wJXAD2nbUicJv2zgTuB6nKTtD6hWxtGMAB4ljA8CFf3LOuEJPBpoTuSG169ZjIdXWgItf7935P3TwxVTPNEIQOv1BGYTGzf/Qw5l/3eiVwKH6w28B9yPbv7RLB+4D2eOQO8wxxJJPDgjJK8SzlFAD3Qa/rlFSl0IcL0X7/vXv3HN0htev+bW6966Tp+/IFIC0DrDgLeAWNzCzYtzMXiI0Ez6iWR+4G5gJk4dh6BISjGe8R6zgrwyoj/Ov+kv0ERBH87y4DsJ7bv+L6gZUU1+p7yj/j9PgBrgTm9zy7ob37jmD19/82uaKxAESgCO71TgJWJ/vfEFwDMEb8lPpKvFeVK8mSBeGL0+r5uNb2JWQXnQF6f4gK/j1OeI1w2EUnCq710W7kDalbdj1NeHt+av+gMBrmxu8Sy/8Y2v3fWNl74Rr9enoFACcGzn43xg4qVyywTgFeJv8tTFOK93gj5MXNu/nJSMeH8I/aJ27bMoC80Wyb2AWcAloThYBEnFed0X9nX3nYZ15OzfnoE/vU2fA38g4Plmo3//shumfe3CYMUWb/Te98udDPwfIRwW96clkZTmJzElAV9SAg176mnY30jDngaam5pDFQY4ScAkoCGUBw0DH86Q/42hOuA3/3YJdaO0hf3RTH9mPvde9fdQHvLXwDdwNtqKZYk4y5VDtmrJl+AjKT2JpJREktL9pGankFuVS82IThR2trIZ1pPJTY2X3TX2j0crd16As3pnG7DbxsFilRKAoxuMcxNMDdYBstpn0qFPKe27t6ddRQ45pdlfmhG3NLewa/NuPlu3g23LtrHuw/VsWriZ5oagXrf+gTMCEquzpzNw1vNPCtUBR184gEt/dlqoDheV7r/2Md55Ym4oD/kcTmGnPaE8aAh5cMr4fiVYB/Al+WjfrYgOvUrJr8knp0M2mUUZeH3BHWAOeFgWaPGefe+oe+fhrPz4Js73WXrwr7TgrHS6D/grsXstM6YE4ItqcN4FW38pmV2SRedxtXQeU0NWsbspBU31TayesZbFLy1hzQdrgzVC8Eucd+KxpgBnXkevUBzM4/Ew7rJBXPCDiUG/KEa7psZmHvrev3jtoQ9Cedi5OBvTbAvlQUPkp8C3bHfqS/BRMbCcLuNqqRhQji8pTPMJPeyb+ejs77/3p+nfAI71DuktnKqtn4UmsOigBODzknEmCdXZ7LS0Vwn9zu9LWd8OQfmJ79uxnw+fmMe8pz+iYZ/VUfsAcCbOHt6xohCnCFLQ90bwpybRd3wXxl8+mE59o6FYZORYNnMNrzzwPnNeXsyBvSF5E7UAZ7ObraE4WIicgvMa09pVx5+WRM/TetDrzDpSs413cLTms7Wf8Y+rH6dhX2Nr/vpMYChQH9yooocSgM+7H6fKnxUF1fkMv24oxT1CU+Sqfk89s/42hzmPf0hLk7XRrh1AH2CVrQ7DqAjn5t81WAfIzE2j38Tu9BnfhW5DOpLoV60tNxrrm1j07sfMfnExM59fwK7te4N5uEU4+9xvCeZBQqQMZ2TDykimL8FH77PrOOG8vvjTImcZ62PXPsmmhZvb0uTXwE1BCifqKAH4r7OBf9roKCk1icFXDKTnKd3xeEP/I/50zWdM+9UbbJi30VaXM4EhRPekwCzgHaC77Y49Hg9dBlcy6iv96TexOwmJYV1eHbOaGpuZ+fwCpj08g8XvrSIQCATjMAtwzvWjTS6LFgk4Q96DbHRW2quEUTcNJ6csspavbl60mX9e82RbmwVwJkO+YD+i6KMEwJGLsxHG0atStEFBdT4Tbh9Pdkl4ywYEWgLMfHQ20/86g0CLlQvld3DeJ0ajJJwP/CibnXo8HvqM78IZN4+mooe2VQil1R9t5Mm7X2Xuy0uCkQi8hrMktlXjyhHoZpzVLa54vB4GXtyffuf3DcuDzPHMeGgW7z9oNFdkM84oYNzPB9CjiuM3OO+GXOk2oQuT7pwQEe/GPB4PJXXFlPYqYeW7q2lqaHLb5WCcuuHR9mTkAR7AmQBkTZfBVdz4wAVMuGoI2YXxVjYh/LILMxh8eh19xndh4/JtfLJ+h83uq3CG0J+x2WmIlAKP47LiYXJGMqfdNZku42rxeCLv5g+w+OWlbFtuNG8z/eDXv+1GFH2UADhbif4Wl6Mh/c7vy/Brh0bcLO/MogyqBlew6r3VNLibTJUIVGDpNUkIfQO4xVZnWfnpXHrXaZz/g5PJKcy01a0Yyi7MYNg5fSgob8eymWuptzcJthfOGvL3bXUYIn/BZUGrjIJ0pvzqVAprrazXD5rVH6xh6zLjhRt9gX/hjAbELSUAzgz30uP+rWM48cpBDLioX8S+UEnJTqHT8E58/M5K6ve4ukB2xtkkZ6WdyIJuEM42p1bO834Tu/Gtf1xKp75lEftUFI88Hg/l3doz4twT2LhiG5s+/sRW1yNxNsxZb6vDIBsJ3OWmg4zCDM669wyyS7IthRQ8uzbtYvWMtabNvTivAR60F1H0ifcEYAJO8Qhjfaf2ZuDF/S2FEzz+tCQqBpSz7PUVNB1w9Tqgguj40LTDuXi7ngWdlJzIRT8+hfNuO5mk5HjfLylyJaUkMui0nmTkprHonY9paXa9EsYHjMXZKGu/6wCD7wGg0rRxSnYKU351musaJaGSnpfGh0/Od6b1mSnHmRgcCyucjMR7AvAgzrs+I7Wjqxl104iIffI/UkpWMiV1xSx5eambiYHlwOvAGnuRBcX/4sxbcCUrP51v//NS+p4UtJWDYpHH46Fj7w50HdKROS8tpmG/63l8WUBHnPfqkWwwzg5/RnyJPk7/xSnkd3Q9DzpkktKS2L9zP1uWuCrdUI5TJTAuxXMCMBy4zbRxTodsTvnJJHxRtuQrPT8df1qSm6EzgBKcofVIdSouLoaHlNQU8L2nrqC0ttBCSBJKuSXZ9JvYjfmvL2fPZ/vcdtcV+BBY6j6yoLkfp4qpkeHXDqXT0CqL4YRGcY9ilr+xgvrdxrV9KoBpgKsLYrSKrBlroWW8AYwv0cfJd5xEYkp0DgfXndGTjkNcfdjHEYJKeoaygN+57aSsW3tue+Yqbd0bxQorcrntmSttJXC/BSJ11mcNzuZlRjoOraLu9B4WwwmdpNRETrp1LN4EV7cya8Xfok28JgB5uPjA9J3am7yqXIvhhN7IG4eRlOoqgQna5iIu/QRnhMJYhy5FfPfxy0jPCdpeUBIimXnpfPeJyympdj2jvRT4sYWQguFCDF9EJqUmMfKG4ZbDCa2iLoX0PtPVth5nEIS9X6JBvCYAU3GKw7RZZvtM+p3f13I4oZeWm8bAiwe46eJ8Iu/8qQWudNNBfoccvvv4ZWS0S7MUkoRbVn4633n8Mtq1dz257Sqg2kJINnlxkYwPumwAabnRn+gOuPAE0vPTTZsnAxdYDCdqRNoFPFSMPzCDLxtAQozUd687vQeZ7Y1HNUtxlh1Fkh/jlEE1kpzu5+aHLiQzz/hCIhEqpyiTmx+6EH+qqzr2iUTeKMAIDCcyZxVn0fNU65WxwyIxJZGBl7hajXW2rViiSTwmAGWA0ZmSXZJFzchIewAw503wcsK5fdx0McVWLBYMwBnKM+LxeLjmvnPo0KXIYkgSSSp6FPPVe85yW8PhTKCfpZBsMD7nTzi3T8QVLnOjy9haMouMq3IOxEIp+GgTO//6rWf81Np3au+IrIntRteTOrsZArRaW9+l7+NiQeb4KwbTZ1wXi+FIJOo/qTujLnT1pOjBOdcihdFnMC03jS4n1dqOJay8CV76nGU8F8CHUxcmrigBaKUEfwI1o4xX2UQsX6KPzmONLwS1uJxwZ0lnXEzqLOtaxNRbT7IYjkSyC+6YSHGnfDddTMTFkjuLigGjrLXLuFp8CdG1hLk1Oo+tdfOKdpzNWKKBEoBW6jS0yu2s+YjVZVxnN80jYR7AjRg+/Xt9Xr56z9kkJsXGvA45vqSURK76zZluXgV4cbGM2CLjEbgu42Pr6f8Qf4afjkOMiyG6mhUdjeItAeiA4YSZ6hh693+k3Mp2tCs3XgVzos1YDLTDWQZlZPSFAyjv3t5iOBINOvUtY9g5rua/XASEu0iEUaXLvKpcN5/3iFc12DgB6EScLQeMtwTA6FHX6/NS2iu293vv0Nd4PyRXwwcWnAMY7b+c0S6Ns7491nI4Ei2m3noSqVnJps1TCf/McaPPXoc+rvY+i3jl/ctMJzd6gBMshxPR4i0BMBr3KqjJJ8nd8qGI16GX8av8cI8lnm/acNK1w0jLMsodJAZk5qVz0hWuBrCMzz1LjBKA0t6RMG0nePzpfnIrjR/kw309CyklAK1Q2CX2a8EXdTVe/tYep/xuOFRiOAya0S6NMRcNtByORJuTrjiRlAy/afMhOLXkwyEL57PXZkVxcD0r7Gxc+bHcZhyRLt4SgE4mjXI6RP7e2G6l5aa6GeUw+rlacDaGk/9OuvJEktNie1RHji8tK4WxFw8ybe4hfK8BjD5z/nQ/qXFQ4jqvynhJf4XFMCJevCUARpN24iEBAMgpM/4+wzUZarxJI1+ij5HnR1ItFwmn0RcNcFPfw+gctEDXsmNwURAott+PHCHeEgCjsyI9Lz7qwqflGn+fxp82F9IxXIHQZ1xnsszrhkuMySvNpucI41U+JwLhuEAYfebS4uRallFg/PmOqwtDvCUARv+4iSnxMVScZD4kHo4EYASGGzoNPzeuJvpKK4w4z3hEyI9zLoaa0WcuKUq3MG8rF68z4yNDOijeEgCzD02MFgA6kouLQzgSAKM9TJPT/XQfFq4pCxKp6kbVkGheQS4c++ka7eKVGCcJQEKy8b+lEoAY4wUmA69g+N7Mlxh7JTOPxpdk/H3+D/AbnB0CQ8VoT+a6kTWq+idf4E9NotuQjqbNXVUUaqNKnM/aT00au/iMRxVvgvGtrQCYjbOtuHGRiGgRywmAH6dc52rgWWBMWKOJbRnA9cAK4C8Y1idvAw9gtOtH77HhrlskkaqX+bnRGxcbUbVSP+CfwHKcz1pcPamGWB/gD8DHwM0YFhqLBrGYAPiAi4FlwK9wyv9KaPiBS4GFwMMYrlNuhUoMR3OqTzCqBC1xoLaf8RLwdgRv+Vgl8AwwA2fJYXw8wkeGYuBunHvJ5UDMDR3GWgLQD5gFPIhhzX+xwgNcACzBGYWx/cHpatIoPTuVwspcy6FIrCipLcRvPnnM6Jw8hmTgNpxk+hTLfUvblAJ/wnk1EFPVw2IlAcjAeS/2PoZDwxIUmTijMHOxu2mQUXJX1bvUzQ5wEuN8CV4qehjv+WHzgWM8sAD4ATE8/ByFegLvAvcSnonP1sVCAtAHmIPzXsz68JjH64mbSYAJwZsc1x14A/g2dt6VGr3Wad/RuDqYxIniTvmmTW28akzAmVD7AmA8I/FYEv1xsgogeNcyL3AtzkON0UTkSBLtCcA1wHsEsRRtVvtMN1XCokpWSVBL+h+6uP0LcDsOb/S0ld8h3Lu3SqTLMz9H3I4AFAOvYS9JPqogf8YjRoI/wU1hs9boiDMacD3BnwAaNNGaACThvOf/Lc7Es6CpHFQRzO4jSnk/420022IizoiNm1q8Rjt95JfF1VbfYsBFkuhmh51ROE+Uw1z0cVzeBC/l/eJnalQIrt1+nFfPf8WwKFm4RWMCkI0zRHZxsA+U4E+g15S6YB8mYqTnpdFlXEh2wywDXsd8aabRbiaZwX0ikBjg4hwxbXg68G8Mk9q26HpSZ9JyY38joEP6nN0rVK9vLwReJHx7ohiLtgSgEHgHJ2MOuuHXDXWzqURUGnr1iaHaMCQNeA441aCt0VUsXsqgijm/eTlsk3PyK8BjBHkUEyCnLIchVxrtnB21cjpkM/Rqm3OPj2kk8DbuRoJCLpoSgAJgGtAt2AfyJfkY/Y2RdJ9oe2VP5PNn+Dnjl6dR1DUk57EfeAI4v43tjGZGu1jiJXEiOXQ15K/GGToO+try9t2KmPLLU/FnBD3PiDh1p/dg5I3DQzUS0A3nHhU1SUC0FDbIw5kgE9Q7clpuGjUjO9H7zDoyCuPryf9w6XlpnH3vFJZOW86ify9mw/yNtDS3BOtwCcBDQCPO01Br27SZ1xe1c3UkRFzMgWnLOXkZ8DuCOHnM6/NS0rOYbhO7UDOyOm4mMh9Nz1O7U9G/jLlPzmf5GyvYu31vMA/XFedeNRLYFswD2RANZ0Uyzg80KONXGYUZdB5TQ9WQSopqC6PjJxJi9bvrWT1jLUtfW8aaGWuDlQzsx3m1M70Vf3cBBiNBP3n1esq7B6s4ocSCZTPW8INTfm/SdBGtOydH48xhsv4+ypvgpaJ/GbWjayjvVxaXT/zHFYAtS7fy8TsrWfLKMnZv3R2sI72H8299IFgHsCHSRwA8OLP9rd/8KwaUU3d6D8r7lcV1dtwa/gw/taOrqR1dzd7t+5j7xDzmP/MRjfsbbR4mBafk6UBg1XH+7j6TA+zbHdGfRYkALs6R/a34O11wXnlZvfknpSbR64ye1J3Rg9Sc+JnkZ8QDhZ0LKOxcwKBLB7B6xlrmPTWfNTPX2j7SYJxXPOcCAdud2xLpCcCtwFSbHVYMKGfgxf0p7Bz0SbcxKS03lSFXDaLv1N7MffxD5j09n4Z91hKBApyJgYOBncf4e6252H6x0S4lAHJs+3YanVpw/KQ0H+fctjbD1p+WRK8pdfQ6syfJGTG/cZ11Hq+HyoHlVA4sZ/OizUz/60zbicA5OCNDP7TZqU2RnAAMB2631VlW+0xG3DCMigHGG37IYVKykhl8+UB6n1nHG/e8zbLXl9vquivOTlzHSvx2mXS8TwmAHIeLc+RYCSvAA0CVaedH6jK+M8OvGaJhfkuKuhZx2s8ms/K9Vbx579vs2mzt1cBtwJsHvyJOpCYAecAj2Cjt64Fep/fkxCsHkeCP1G83eqVkpzDhtnF0GlbF6795i/07jJ+gDncO8DTO9qdHs86k0y2rtxsHJPFh8yrjc+RY5+QlwCTTjg+XlpvK6JtHxlWBslCqGlxJWd8OvH3/u8x/ZoGNLn3Aozh71Hxio0ObInUZ4O9wdmByJTkzmck/msjw64bq5h9k1SM6ccGD51Le31qlsd/x5dsJGyUAaxdtMo9G4sK6xZuNm37Jn5fhbIjlWsehVVzw4Lm6+QdZgj+BkTcOZ9KdE2yNsJQA99noyLZITAAm4Ox77UpWcRZn/3YKVYMr3EckrZKancKp/zOJHpOtlGrIxZlEc7QZmoYJgPHFXeKEi3PkaC+PPcAfAdcF+OvO6MnEO07Su/4Q6jikiqn3n0VOqZVpG2cRgds6R1oCkA4YrcE5XFGXQqbef2aoKtrJYTxeD6O+PoIBF7kp9f8f44ApR/nzj00627b2aa/z3gAAIABJREFUMw7sqXcXkcSsHVt3s+uTPabNVx7lz87D2drXnAeGXDWYEdcN1WqlMMguyeLMe8+goMZ4l8jD3Ytzj4sYkZYAfBOXu2oVdS7ktJ+fQnKmMuVwGnhxf0Zcb2Vvkx/xxbkq84HmtnYUCARYOW+DjZgkBq2cu960aTPOOXm4JNzO/vbA2FtG0Xdqb1fdiDup2Smcfvcp5Fe7TgLKgFsshGRNJCUABcBNbjrIq8rltJ9PdlPPWyyqO72HjYtXLc4kqsPtBZaadDbn5cVu45EY5eLcWIpzTh7uClzO+h908QC6TujipguxJDkjmTPuPoWcMtf7/XydEGz81FqRlADciovhkeTMZGfSRrqWxUSSIVcOpnZ0tdtu7uCLm63MMelo9ouL3MYiMSjQEmDuK0tMm88+4vdpONczY7Wjq+n/lRPcdCGWJWcmc9pPJ5GSbbQVySHpwPcsheRapCQAhcCVpo29Pi+T7pxAVrHruTZimwfG3DLKbeGlYpzNUw7XmpLBX7B1zaesX7rFTSwSg1bMWccO87KwHxzx++uAItPOSnuVMO7bY1SWPAJlts9kwm3j8Hhc/eNcSYSMAkRKAnA1LrbE7HdBX0p6FlsMR2xK8Ccw/jtj8CW5KutwDZ8/X1827WjWvxe6iUNi0KwXXJ0Trxz2317gq6YdJaUmMu7bo/EmRMqlWY7UoXcpfc919WozmS8+0IRFJJxlrn4YRV0LNVQWBXLKchhwoauVAZXAmMN+v5yjz7w+rmmPzKS5KWi7G0qUaaxv4q1/HDmK32qrgGWH/X4cYFxudPAVg+J6J9JoMeiSAW4nBbp66LUlEhKAKRgOh3i8HkbdONzNFp4SQn2n9qbA3YfmyNdERqMA2zfsYObzVqp8SQx454m57DLfIvbIc/AK045KehbT85Tups0lhLwJXkbeMMzNa5pC4Ax7EZmJhDvneaYNu0/qZmNphoSI1+dl5NeHu+niFJx3q0XAzXx+RKBNXvjDO27ikBgRCAR48Y/vuuliHPBdnMqlRcBkk048Hg8jbxqutf5RpH23IrqO7+ymi/NtxWIq3AlAPjDWpGGCP8HtkLKEQVHnQspO6GDaPBF4HacS4N1AJ9OOVsxZx7KZa0ybS4xY8OYKt5NCK4EfA6uBtzHc6rfjkEpyK9q5iUPCYODF/fElGM9tGodzDwybcCcAZ2D4gek2sStpudr7Ohr1O7+vm+adsbSJ1bSHZ9joRqLYtEesnQM+XCSk/S7QPKZolFGYQZfxtabNEwnza4BwJwAnmTTyeDz0PbuX7VgkREp7ldC+m/EqKWtm/nshgUAg3GFImDQ2NDH3ZeO1/9aU9yuzVWpWwqDPOb3dzAUwugfaEs4EIAEYadKwrF8HzZSNcr3PrAt3CBzYU8/Obca13yXKfbpxJ40NTeEOIyI+C2Iup0O2m2XoI7E0omkinAnAAAx3yeqm8phRr2pwZUSUbA40awQgXgVawv9vn5qTSoe+rnc+lzDrPrGradMsoL/FUNoknAnAQJNGCf4EKgYaL7OVCOFL8lF5YmVYY0hKTiRbI0lxK7c0G1+iq+JUrnUaVqVlzDGgcnClm+JNA2zG0hbhPPP6mDTq0KeUxGSjeYMSYSr6u9r40bU+47to2VUcS0xKoG5UTVhjKO+vh5lY4E9LoqSH8WuAsG33GM4EwGgWX7n5EjKJMAn+sL36wuvzMuHKE8N2fIkMk64eFtYkMMFdeWyJIOX9je9NRg/DNoQrAUjE2ea1zQq7FloORcJh3lPz+fcdL4Xt+KfeMIJOfcM7AiHhVzuwgklfGxa24z/7nedZ8Lx2qIwFRV2MVzbVEqaJgOFKP8uAm9rayJfgY/h1Q/XOLIo1NzUz7e43mPno7LAswfMleDnzljGc8Q3jIoISY7oPc5bvL5uxJuQTAwMtAVa9t5oDOw9Q3r/M7S5zEkYpWcnM+vscaPsp5AUeAHZaD+o4wpUA9AQuaWujnA7Z9JqiJTPRqqm+iedve5Hlb6wI+bHbtc9i4Kk9ufp359Bvouqty+d1HVxF/0k9aGpsZvf2fezffSCkx9+yZCvbV22n4xBNCoxWvkQfi15cTP2eBpPmTwJrLYd0XOF6CWv0siSzKNN2HBIiDfsaePY7z7Nh/sagH8ufmkTXE6uoqiulomcxlT1KyGmvc0eOraSmgMvvdgqzfbZ5F6s/2siq+RtY+eF6Fr27kvp9Rhf2Vlvx9kqe/e7zTLpzgiY6R6nM9pns2rzbpGlYJreFKwEwWv+v4j/RqWFfI0/f/Cybl7iquX5MWfnp9JvYnT7jOtP1xI4khnGCoUS/nKJMcooy6T3W2eylsb6JRe9+zNyXlzDj+QVBKyC1dtY6nvnWc5z2s8lhnSQrZjIKjO9R2TbjaK1wnWFpJo0ioXCMtE1zUzPP3/5C0G7+lT1LGH/5YAadXkdCmNd0S+xK9CdQN6qWulG1XHDnJGa/uIhpD89g4dsfW5/LsmH+Rv5167855ScTw16nQNrGxT0qLBvbhCsBSDZplJCsjDiatDS38O87XmLtrHVW+/V4PPSb2I0pt4yhtFarQiS0EhJ9DJjcgwGTe7B+6Rae+NkrzPr3IquJwNpZ63jlrmmM/+4Y1aqIIokpxq9ujB6K3QrXHdUoTdLkmOjyzu/fY+W7q6z22WNENed8dzyVPUus9itiorS2kBv/cgGr5m/gnz95iY/eWG6t76WvLSOrJJNBl4StUJy0kYsRm7AMb4frjlpv0qhxf6PtOCRIlryylLlPzLPWX2ZeOl+95yy+/Y9LdfOXiFPZs4Rv/+NSrv/TeWTmpVvrd8bDs8KyakbM1O81urUB7LcZR2uFKwEw+mbr9xj/cCWEti7bxqt3v26tvyFn9ubnb9/E0LPDVjBLpFUGTO7Bz966kcFnWNquPACv/Gwa21d9aqc/CaqGvcYPqaFdd3pQuBKAfSaNGvYGdxmOuNd4oJEX73yZ5oZm130lJiVw+d1ncPVvzyY9JyxzZETaLKNdGtfcdw6X3nUaiUnu37I27m/kxR+9THOj+8+UBJeLh9S9NuNorXAlAFtNGu3dbpQ3SAi9fd+7fLZ+h+t+couz+P4zVzLygn4WohIJvdEXDeDWp6+gXXujVc+f88nK7bz35+kWopJg2rvd+D4evDXSxxCuBGC9SaNPVm23HYdYtGr6Gj7610LX/ZRUF/CD579Gx97a+EmiW6e+Zdzx/NW075jvuq+5j89j/YcbLEQlQRHAzauasPzDhisBMPpm9+/Yz75PNQoQiZrqm3jjnrdc91PRo5hb/+9KVe6TmJFbnMVtz1xJeff2rvoJBAK89os39CogQu3cvIsG82qRRg/FboUrAdiI4TuPT1ZqFCASzXx0Nrs27XLVR0WPYr73xBVk5oZlSaxI0GTmpXPrk+6TgB3rdzD3cXura8Se7eb3pj3AZouhtFq4EoAWwGiseMO84NeSl7bZsWEns/8x11Uf+R1yuOWRi0nNMqoRJRLxUrOSueWRi8ktcVf1dcbDs9i9NTiliMWci3vTApx7YsiFs7KOURq78j27hWXEvekPfuBqWDI1M5mbH7qQbO31IDEupyiTb/39EtKyUoz7aDzQyIyHZ1qMSmxY+f5q06ZhG9IJZwIw26TRJyu3s9PlULPYs33VpyybZl6oxOPxcM39U+nQpchiVCKRq6SmgKt/ezYej3mJ30UvLmHnxpBvHy9fYvvqT9lhvvppjs1Y2iKcCYBxpZiV72gUIFJM/+sMVzXQJ1x1Ir1G11qMSCTy9R7bmfGXDzZu39LUwgf/q1GASPHxOyvdNLdXNa2NwpkALMNwNcBHzy4g0GJ3By5pux3rd/Dx2+YnfmXPEs753kkWIxKJHlO/fxIVPYqN2y99bbnmAkSAluYWFvxrkWnz9YC9DSTaKJwJQCmGMx8/W7+DVdPXWA5H2mre0x8ZP/37Erxc+esztYWvxK3EpASu+OUU403OWppbmP/MR5ajkrZa8dbH7N6627T5VqDMYjhtEuoEwAuMAR4DVgF9TTua+8SHtmISAw37Gln04hLj9mMuHkhZV733l/hW0aOYUV/pb9z+o38tpPGANkkLJ5ebnvXBuRe+ApwFGO8nbCJUCUAScDWwmv9+o66KZK+fu4Htq7VBRrgsm7bMuOhFVn46Z94y1nJEItHp7O+MM659Ub+7no/fcvX+WVzYumwbmxe5ruJ7+IPxSuBrgN9tp609cDAlAlfgvO+/D7Ba23XJK0ttdidtsOSVZcZtT7l+hNb7ixyUlpXC5GuHG7df8pr5Z1HcWfyS+SjolygFfoczL+AqnIfnoAlmAjAU+BD4I1AejANsW/FJMLqV49i9dQ8bP9pk1DY9J5UR52mDH5HDjb5oABntzEYB1s1ez77PVCI9HIJ4D+oA/B6nYF7QhkuDkQDkAQ8CbwJdg9D/fxzYGZYtlOPe8teXG0/+O/mrQ0hOC2pSKxJ1/KlJjLtskFHbluYWVug1QFgc2B30e1An4CXgrzj3VqtsJwAnA4uAiwHzKhetlKaa8WGx6gOzFRiJ/gTGXDzQcjQisWHcpYOMV8WsNvxMijshugd5gIuAxTj3WGtsJQA+4A7gX4D7fS9bqaSnu401pO0aDzSyaYHZvhV9T+rqqgSqSCxLz0ml19jORm3Xz92gXQLDoKSneR0HA3nAc8BvsLRawEYCUAhMA2631F+rJPgTqB2jCnKhtm6O+YVmyFm9LUcjEluGnd3HqF3jgUbjeTlirsv4zviSQlrLxANcD7yGc+91xe0NuyPwLjDMbSBtNfjygaTlpob6sHHP9CKTmZtGzxE1lqMRiS29RteSnm12XVMCEHoZBekMusS8joMLQ3HuvZ3cdOImAeh7MICObgIw0euMnvSeUhfqwwqwebHZ8H/34dX4EsJZeFIk8vkSfXQdUmXUdssS1+vRxUDfc/rQd6rZyI1LHYHpgPHEKtMr8hDgDSwMQbRFXlUuk388keHXDQ3BFEM5UqAlwLblZsteug8NeZ4oEpW6DzN7qNuyZKvlSKRVPDDkqkFM/tHJ5Fa2C/XRc4GXgRNNGptU4+uFM9kv3eSAreVL8pHfKY+C6nwKavIpqSshuyQrmIeU49ixcadx9b/uw6stRyMSm0wTgH079rNn2x7S84N6aZYvUXViJVUnVrJz407Wz9vItmXb2Lp8G9tWfEJTfVMwD52BMzlwJE7tnVZrawJQA7wIZLexXauk5qRSdWIllYMqKOtbSoLfVbVgsWzHerP9x3PaZ5JbrORNpDUKK3LJzEtn1ydt3+lvx/qdSgDCLKs4i6ziLJjQBYCm+ibWzl7PqvdXs/LdVcEq2pSNc28eSht2F2zLHTYPpyCB3WF/D3ToXUqPyd3oOKQKr94TR6xdG80SgNLakL4pEol6pbUFLDJJADbupLR3SRAiElMJ/gSqBldQNbiCETcMZeU7q/jo2YWs+3A92N3VvhDndUA/oFXvalubAPiAvwMVRmF9iYoB5Qy6bAAF1SErHSAu7Ni4y6hdSU2B5UhEYltpbSGL3m17db+dhkm6hIYvwUf1iE5Uj+jElqVbef8vH7Bm5lqbh6gA/gZMAI67Xru1CcCPcHYrsiK3sh0jbxwe6iIK4tLe7XuN2pVUKwEQaQvTpHnvJ2afUQm9wtoCTvvZZNZ/uIHXf/0Wn66xtrvtWOCHwPeO9xdbM94+CfiW24jAWeIy8JL+nPvHs3Xzj0IHdpnVvc7SO0mRNsnKzzBqV7+n3nIkEmylvUo4709nM+DCfvgSrBUV+g7OKMAxHS8ByALux8Kiu4yCdM665wzb36SE0IHdZheX9BwVbBJpi/Qcs5LZpp9RCa9DD8fn3DeFzCKz5O8IHuDPQM6x/tLxEoC7cfYndqXshA6c96dzKOysoeBo1mD4dKEEQKRt0gyrAWoEILrlV+cz9f6zbE3kLAbuOtZfOFYCMAq4zG0EncfUcOpPJ5Gcmey2KwmzlhazKavJ6X7LkYjEthTDz0ygxXIgEnIp2Smc9rPJVI9wVeX3kMtx7uVH9WUJgBf4NS6H/ntM7sa474zB69PSvljgMTwbmhqCWgRDJOY0Ge/sZ3ddmYSHL8HHhO+Po+vBWgIueIBf8SX3+i+7M18I9HBz1JpR1Yy6aQQer2r2xjvzi5lIfDJPmnW9jRUer4ext4yi8xjXm6j1BM4/2v84WgKQDNzh5milvUoY953ROhdjjC/RbPJmU70SAJG2aG4yG8tXIbUY44Ext4yiuEd7tz39EPjCe6WjnS1XAOWmR8kozGDSDydopn8M8meYvZfct2u/5UhEYtvenWafmeRMzbeJNb4kH5PuPNltiecKjjKn78gEwANca3oEr8/LSbeONb5RSGRLzjCbyPnJ+h2WIxGJbZ+s+8yoXYomW8eklKxkTrp1rNtX6jdyxD3/yATgZJwNf4wMuLAfxd1dD1VIhDJdybHN8GImEq9Mk2a/VtzErJKexfQ7r6+bLqqBcYf/wZEJwHWmPeeU5dD3vN6mzSUKZBSYDUFpBECkbUyT5owCK0VkJEL1/8oJZLXPdNPF9Yf/5vAEoANHZAdtMeK6oXrvH+OyS8y29F23aLPlSERi25qFm4zaZZW4ujlIhPMl+Rh27VA3XYwH/lNl6PAE4EwM5+1XDCin7IQOboKSKJBlmACsWbSJhv2NlqMRiU0H9jawfskWo7amn1GJHlWDK9xUCvQCUw7/zSFnmvbY7wJX7yUkSuSUHbOs9Jdqbmxm5bz1lqMRiU0fz11HS7PBMkAP5JRk2w9IIk6/813dc/9zrz+UAJQCg0x6Kqkr1sS/OJGanWL8jnHpB6vtBiMSo0w/K9nFWVqBFSfK+nagqHOhafMTcfYJ+E8CMBbD4f+ep3Y3DUKiUFEXsw2dZr2wyHIkIrFp1gsLjdoVdS2yHIlEsh6ndDNt6gVGH/oPgCEmvSSlJlE1uNI0CIlCpjs6rpq3QasBRI5j29rPWLPAbAJgkXZbjSvVIzqRmJJo2nwouEwAakZ2IsGfYBqARKGSOrPJJ4FAgFn/NnuyEYkXM55bYNy2pK7YYiQS6RJTEuk4pMq0+X8SgEKcAgFtVjHQuGKwRKnC2gJSsswKAr35j1mWoxGJHYFAwPgzkp6XRl5VnuWIJNJVDDC+B9cC+V6cXf/a/P7f4/VQavg0KNHL4/VQdkKZUdu1izaz6N2VliMSiQ0L3lzBhmVbjdqW9y/X5mtxqEPfUtN/dw/Q3Yvh039hbYFmnMapykHmIz8v/fldi5GIxI6XH3jfuG2lRmPjUmp2CnmVuabNa7wY1v7P76ThpnhVNbiSxGSzySdzXl7ChuVmTzkisWr90i3MfXWJUVt/ut/NULBEORf34mrjBKBdRTvTg0qUS0xJpONQs8knLc0t/ONHL1qOSCS6/ePOFwm0BIzaVo/oiC9JZdjjVW6l8b24+tAkwDZrV25WFU5iQ+exxptGMuelxSydvtpeMCJRbNG7K42f/gE6j621GI1Em5wy4wSg0AsY7R6R1i7N9KASA8r6diCr2Lzu+CO3P29W7lQkhjQ3tfDI7c8Zt29X3o6SHlr+F8/S2qWaNs3yAkZXcdO94SU2eLweek3padx+5bz1PPe7tyxGJBJ9nvnN68aFfwB6n1Wn2f9xLjnTeDJ+lvEIQLJWAMS9bhO64E83Pw+euvs11i3WVsESn9Yu3MQzv37duH1KVjKdx5i/ipPYkJxh/DCe5QXMZo8o64x7iSmJrvaCaGxo4v7rHtNWwRJ36vc1cN+1j9HU2GzcR68z6lSJVcBrfDP2eYEDJi2bG/X+VqDv1N5uMlDWLNjE/dc9RiBgNgNaJNoEAgH+eNOTrka/UrJT6HVmncWoJFo1myeR+10kAOaZq8QOf7qfPuf0ctXHjOcW8Ow9b9gJSCTCPfWL15j+zHxXffT/ygkkpRpvBCMxpKXJ+GH8gHECcGCXUTOJQb2m9CQ9P91VH4/f9QpvPzbHUkQikenNv8/i6V9Mc9VHVnEWPSYbbwUrMcbFvfiAF/jMpOXuLbtNDyoxJjE5keHXGm0o+R+BFmdY9L2nPrQUlUhkeefxufzp5qdcv+4acf1QfIkq/COOXZuN78WfeYE1IT6oxKBOwzq6rkfe0tzC/dc9riRAYs47T8zlDzc+YVzt75Dq4R1V9lc+Z/fmXaZN13qB1SYtP1trNHAgMWzEDcNdv5dsaW7hvmse45nfmC+PEokUgUCAp385jd9f97jrwlf+DD/Drh1qKTKJFZ+a34vXGI8AbFqk9dvyeZlFGYy4YbjrfgKBAI/9z8v8/vrHaWxoshCZSOg1NjRx/7WP8cTPXrGyymX010eQnqcKrPJ5mxZtMW26xgusMGm5dfk2mpu0EkA+r8u4WmpGGe0w/QVvPzaH20++j/VLjU9wkbBYv2QLt024j3eftPM6q+uELlSP6GSlL4kdjQca2b5yu2nzFV5gpknL5oZmNi/UhVm+aNRNw8kuzbbS15oFm7h13G958U/vqlaARLxAIMALf3iHW8f/lrULzUv8Hq5deTtGXKehf/mijfM3uXm1NMMH7AYuw2BPgKTUJE1IkS9ISEqgvF8ZS15ZRnOD+1GiluYW5r++jA9fXUpJTQF5lpILEZtWfriee6/8O68/OtPaRlfJGcmc8ctT3Wz4IjFs9t/nsHX5NpOmq4EfH1pLMhjo2tYe9m7fS+8ze6kssHxBSlYyeR1zWTZtOVh6cP9syy7e+uccNq/6hMq6UlK1IZVEgG1rP+PBbz3Dw99/ju0bdljr1+vzMulHEyisLbDWp8SOQEuAV+9+naYDRvOkXgKeOJQAlALj29pDw94GSutKyGxvtJ+QxLjs0mxSc1JY9YHRPNMvtW7xZl554H02Lt9GQXk7sgszrPYv0hqr5m/gkdue58Fv/x9rbU+K9sDom0dQPVzv/eXoVk9fw8LnF5k2/xPwwaEEYDtwnUkvDXsbrE36kthTWFtAoj+BtbPXW+030BJg3ZItTHt4BovfXUlzUwv5ZTkkJas8qgTPns/28fbjc3jktud5/Kcvs37pFtdr+49m2DVD6HlqD+v9Sux445632LnRuAbAtcBnhw/eL8TgNYDH6+HiRy7QKIAc0/sPfMCMh2cF9Ri+RB89h1fTc1QNXQZVUlpbiMd8pywRJ9FcvJnF769i3rRlLHh7RdD3QRl06QD6f+WEoB5Dotunaz7j4Uv+Zvp6dT5QB3D4XpLPYJAABFoCfPDwLMZ+c5RRJBIfBl06gMTkRN798/vW5gQcqbmxmbmvLmHuq0sASM9OpVPfDhRX51NYkUthZS7t2mfhT00iJcNPSrofr88bnGAkKrQ0t7B/Tz37d9dTv6+BTzftZPOq7WxZtZ2Ny7exYvZa9u7cH5pgPDDs6iH0Pku7/MmxffC/M91cR5859B+HPx71BYwe0TxeD+f96RzyqnKNI5L4sOC5hUz71ZtBGTYViVZen5fR3xhJ15M6hzsUiXCbl2zhn197wk0C0AuYB3D4jhKbgMlAcZu7C8DOjTvpMq7WOCKJDwU1BeRX57F6+hptKS2Cs6X2xB+cpEI/clyBlgAv3vkyu7fsMe1iOvDjQ785ckupZuAUk153btxFZmEG+dX5poFJnMjpkEOn4R1ZN2c9+3dqW2mJXzml2Zx+96m071YU7lAkCsx7+iMW/Guhmy6+izMHAPjiCv5UYANgVGnFn5bE+Q+cS0aBu73hJT7U76nn1Z+/zoq3Pg53KCIhVzOqmtE3jyApNSncoUgU2LFhJ3+7/J80Hmg07WI7zpL//zx1HTkC0Ai0A0406b25sZnNi7fQeVwtXq8mV8mxJSQlUDOyE5lFmayfu57mRjvV00QimT8tiTG3jGTQJQPwJR55CRb5oqb6Jp751nPs3rrbTTe/BF45/A+OdvbNBb4K+E2OsGfbHvZu30fViZUmzSUO5XfKo3ZUNZ+u+czNulaRiFfev4xTfzqJkp5tn2olcSoAL/3kVdbOXuemlx3AVA57+oejJwD7gWRghOmRti3fRmJyAsXd25t2IXHGn+Gny7hacivasWnRFhr2NYQ7JBFrMgoyGPut0Qy+bCD+dKNnK4lT7//1A+Y/s8BtNz8CXj7yD7+sSkomsBJwta5v+LVD6DVFa1qlbRr3NzL7n3OZ+/g8JQIS1fzpfnqfVUefs3uRqCqV0kYzH53Ne3+e7rabbUAV8IWlA1/2Aqoe+BTDFQGHrJm5Fn+an/ZdNcNVWs+X6KO0Vwk9TumGx+Nh2/JPaGnS/ACJHokpifQ9pzcn3z6e8v5l+BL0rl/aZsYjs3j/Lx/Y6OpaYMbR/sex6qR6gFcB1yX+uk/qxsgbhuFN0MRAabuGfQ0semExc5+Yx67NribBiARVZvtMekzuRvdJXUnO0G6V0nYtzS28ee/bNob9Ad7AuYcftWzQ8Qql1wIf4swJcKW8XxnjvjuG1OwUt11JnAq0BFj1/moWv7SEVR+soblBhYQk/HxJPioHVtBlfC2VAyu0/4QY27NtDy/+6BU2zN9oo7t9QE/gS9dZt+ZM/QbwcxvRpOakMuaWkVQOqrDRncSx+r0NLHx+Ee/8/j0CAZUVltDzeDwM+epguk3sij9Na/nFneVvrOC1X75B/e56W13eANxzrL/QmhdT7wO9cUYDXGk80MjS15azc8NOiroUkqQPjZgIwLJpy5n+4Ac0HmgKdzQSx7Yt3+ZUQO2Y17rHKZEj7Ny0i9d+Po0PHpplc1TzCZyH92Nq7SmbDczGmUloRWJyIn2n9qbXlJ5aFiOttmbGWt7783S2Lt8W7lBE/qOgJp/Blw+kvF9ZuEORKLF/5wHm/HMuc5+YZ3tflGVAP+C4RVXakrP2Bt4CrNb5TUpNpPvEbvSa0pOMwgybXUuMaG5qZvm0FXz41Hy2LN0ajEPcymEbZITZHcDtbW102cAeXDaoh/1ojuIv73/EX6Z/ZNL0BzgPeCpbAAAda0lEQVTfXyT4IfB9250Wdi6g15Q6qkd01Mx/OaodG3Yy9/EPWfTiEprqrY9g7gKGAK36gCa0oeO5wJnAs4C1sfuGfY3MefxD5j4xj+Ke7akdVU2nYR1J0WTBuNbS1MLGBZtYNm05y9/8mAO7grZp0D1Ezs1fQud2oCNwns1OtyzZyks/foU3732b6hGdqBnZieLu7bUCKs7t+WQvK976mGXTlrNp0WY3W/keSz1wGq28+UPbEgCAl4CLgUcAq2d0IBBgw7yNbJi3kWm/fpPcinaU1pVQ1K2InA7ZZJdma6JNjGppbmHv9r1sX/UpW5dvY/PCzayft5HG/cabXrTW34Cbgn0QiUgB4BIgB5hgu/MDuw7w0bML+OjZBSSmJFJaV0xRtyLyO+WTV9mOtLw0vD4lBbHowK4D7Fi/g0/X7mDTwk1smLeRz9btCPZhm4Hzgdfb0qitCQDA33HmBPyOYE17CcD2VZ+yfdWnzPu//yYz/gw/yel+ktKSSExOJMFvEr6EWyAQoH5PPS1NLRzYXc++T/fR0hzyQj8v4iSzqjAUvxqAKcBzWKh38mUa9zeyavoaVk1f858/83g9pLVLJSktSdexGNDc0EzjgUYO7DpAw76gP7gcqQW4CniyrQ1Nz7z7gZ3AX4GQ1bes311vc4mExK8ngQtwdr+U+LYfOBnnWjY1VAcNtATY88le+GRvqA4psakBuBD4p0ljN2NQfwNOxyk2IBIt7gHO5ohdsSSu1ePMBfhBuAMRaYN9OO/8jW7+4P49/vPAaGCDy35Egq0Zpyb2DWjYX74ogLNC4UZ0fkjkW4uzY+8LbjqxMQtlOtAHmGahL5Fg2AJMxpm3InIsvwFOxdlBTSQSvQT0BWa67cjWNNStwDjgf3CetEQixbM49bBdZcoSV54DeuCMcIpEiiacUaqTgU9sdGhzHUoz8F3gBGCOxX5FTOzHGc49FSdBFWmLLcAk4CKOso+6SIjNBwbhzFOx9ooqGAtRPwQGArehiVYSegHgcaA7znCuiBsP4VRBfSrcgUhc2gd8G2fIf5btzoNViaIRuBOoBv6IM3QhEmzTgeE4s/xXhjkWiR0rcOoFDMAphy4SbI04985q4C6CdA8Ndimq9TgFCnoAj6H5ARIcH+IsSR0EvB3mWCR2zcBJMKfgDMmK2NYEPAp0xbl3bgzmwUJVi3IJcA5QhvMOw8oEBolr9ThD/WNxhmj/L7zhSBx5CqjDme/0R5z5JiJubMV50u+IU6RsRSgOGupi1BtxZjF2wKle9Az68EjrBXDeg30TKMUZ6n81rBFJPJuN85RWjvOedg7B2uZFYtE+nKqk5+I8HH8bZ31/yISrCPUB4OGDX+k4m3FMBgbjZEAih+wAXsZZxvcCzuxskUiyDefp7S6gPc71bALO6FRWGOOSyBIAlgLv4Sw1fZEwPwBHwi4Ue3CGch8/+PsinHe5/XCSgaqDv+aEJToJlb04FSU/AhYCCw7+ugxNIpXosQl44OBXAlCLsyKlO9Dt4K8lQGq4ApSQ2AZ8jDMZeQXOyOX7RNjr70hIAI60GXj64NfhMnCy6dSD/51B+OK/BIN9xCd168jYzuXWg7npqddpCRiNPJ5EeCZmBnCe7A997UQ3eYk9TThJ7EK+WK89Eed6loWzu2o2wdpd9dj8OE+jbZLg9fKL00dYD+blJat5fqHRAp6/4yRd4bAfZzh/J86DzJ6Dv0a8SEwAvszug1+RYIRJo5LsdPqVFVkOBTweTN88voZuvCLh0IjzNBjuJ0KjkQiPh6BcyxZsMv5xrELzgdos1JMARUREJAIoARAREYlDSgBERETikBIAERGROKQEQEREJA4pARAREYlDSgBERETikBIAERGROKQEQEREJA4pARAREYlDSgBERETikBIAERGROKQEQEREJA4pARAREYlDSgBERETikBIAERGROKQEQEREJA4pARAREYlDSgBERETikBIAERGROKQEQEREJA4pARAREYlDSgBERETikBIAERGROKQEQEREJA4pARAREYlDSgBERETikBIAERGROKQEQEREJA4pARAREYlDSgBERETikBIAkVjgidFjiUjQKAEQiSxJJo18ntB9lH0e4wwgwWYcIuKOEgCRyOI3aZToC91HOcFrfKxkm3GIiDtKAEQii9FNMpQJgM88ATBKbkQkOJQAiEQWowTAxVN5m7lINpQAiEQQJQAikcUoAfAn+GzHEYxj6RWASARRAiASWfJMGmUmG80dNOLiWLk24xARd5QAiESWIpNGmcmhG113caz2NuMQEXeUAIhEFqMEICsllAmA8QiA0fcmIsGhBEAkciRg+Aogwx+6VwBZ5iMA+UDoJiuIyDEpATBj9HPzmhdQOaZEr9E1tQlothyKuFOAwbmV4PWSkxq6EYB2acn4vEbncgJOEiCRw+ha5gnStcxjXmZS9zID+qGZMVyqFZwPTUFGikmzDUDAcijiTrVJo4KM1KAll0fj9XgoSE81bW70PUrQGGWOwVp26uIaqSWmBpQAmDFLAHzBGf3s06HQpNlrtuMQ17qYNGqfmWY7juMqzDA+ZmebcYhrZoWngpQAGI4sgRIAI0oAzBhmzcF5SptSV9PWJ8AAcF9QghE3jBKAojAkAC6OqQQgshg+zARrBEBFpkJJCYAZozH35ITg7IXSMS+bc/u26br6G2B2UIIRN4xujiVZ6bbjOP4xs42P2dVmHOKa0bUsWIWn/InG10ij7yPeKQEwU2DSKJjFWq4e0ovTenZqzV99ALglaIGIG91MGlXmZtmO47g65mabNlUCEFmMJmUG61rmol9NLjWgBMCM0XrmjCAmAF6Ph2+O7s9dpwyjS2Hu0ebSzgbOAC7DWQEgkaUUKDFpWJVnfDM2VpVnnHSUoYJAkSSiCk+pxkRoaX9uMxH1oTnc0I6lDO1Yyva9B1i/YzfLtn76i1+9MfuXwMagH1zcGGTSKDkhISyvAEqzM0hK8NHQZLSSdDDwpOWQxIzhtSxIIwDm9SyUABjQCEDbJQHtTBrmpYVuL5TctGTqSvI5q3fnvejmHw0GmzSqyM0M6RLAQ7weD5XtjEcBjL5XCQqjG2duWnBeubvoNxdItBhKXFAC0HYdoe3VKtKSEkkPYbW2Qzy0aLg1OhjdFLsWhW9/HRfHNhrtkKBo1cShIxVmGNeBOKbs1GTTCYZeoNJyODHv/9u78+C8i/uO4+/fo0f3YV2WrMuSfFuWZVmSZcm25PvmvjGOIVAnNNwmpaQQmsQETNOUkjRNk0wScjTkTjtNSkMOmk5IgKaETCClyRRzlAApUAjUYHyof6w9BWzLenb3+R3P83nN7Hg8o12tnuP329/ud7+rAUDmrCK1HfZNOxlT4pUkqAB6bSrOb4ou9qm7ySprMUA/EM0XQt7K6no2JUvXswCnwYXVNtp8pgFA5iz3amdnxHx8gaKu428NZmkpYw43YWfdzda/uwjzN0u0CrGcAchm7gmHhyUNADKkAUDmrD5k7bVVvvsxUQ0/u/rc6O4SMhGbbSrVlpW47Md31lpdSbX9KYRWf7N4NR2LgWcAtNVU+u/NIVNrrK+VSjKVIQ0AMtdnU6nDPmDK2X59MeIswPJm2NtqlY7CmwDobbHuwyYsYmnEK6trWUNlGeVF2Yu3c8hrYfX35DMNADJTjeXNdFoEyVoOO3CQnsh+uRxPP5b74he3Rx/fOWjfhxYs4x7EG6vA02wnnnJofx5Q47ErOU8DgMwMY/GapYKAjggHAASBtl3F12m2FR1uvt4s7nDqw+m++iFWrHZjdNpngZyQafWTbKeGUsCg187kOA0AMmN1I22vrcrqlNnxBGMsjeyXy3hSwFabip11k7K2FSsTTVXlTLVfD96KrkFRKQe7mcF5Wd56OqmkmGb72BY97GRAX77MrLSpFOVe7THg/sef7qgqKfos8D3gX4BPA6egxBlRWw602VQccnvy9mq40yqDMUA7MOKxKzJxo1hmgg3jetY9xTpu2eoana80AJi4WmDIpmJUW7WefPFltt/xXa785t38/rXXL8BsvRoBLgS+BfwcGIikcwKwzbbiqplTffbDyYoZVmOYw97mqx+SkRNsKtWVl4Zy/HSX/TVzCSYroEyABgATtwmwSlE1P4IBwO7nX+Idd9zFr555frwfmwfcDSwLp1fyBuVYrv83VJS5XCC9m99cT32FdQrXM4Do1zLyzyabSj3N4SSe6rHPMVEArPfYlZymAcDEWY2Ya8tK6Az5tLZ9Bw5y/Xd+zEuv7Z3Ij1cAX8bscJDwXABYbXheNWtqrPbPpYKAlfazAJNwmAkRK91Ah03FgamNfntyDDMn1yjHRAg0AJiYUmCjTcVF7VNCv1h/95Hd7H7+pUyqtADvylJ35EgBcJlt5ZUxmv4/bNUspz5djnIChMl658miqeEcupcKAvrbrAcbm4DwTl5LMA0AJuZkLJ/WBtrCP6Xy+//xhE21P0THQ4dlEzDbpuLUmkqXFLxZ09PSQGu19W6AuWjaNiwBlnEXTVXlLu9xxhwGG9XAiR67krM0AJgYqynKVBCwpLPZd1+O69HnX7Sp1orluqBk7CrbiifMmx7LR+UA2DxvmksTV3rqioxvGMv8/8umWe/2sLKks8Xls67g0gnQAOD4GoG1NhV7midTUxb+TNT+Awdtq2732Q85qgFglU3FglTAxq74nni6uWsaBSnrS/Y6lMo1DNY3xlG33R4Zq68oddlyuAGI7qjMhNAA4PguwnJqfPmMVs9dmZjJFdZB1RuB+C0w55adWK53D3c0U1duHW2fdfUVpQx1WM94BcAHPHZHjlQJnGtTcVJJscu5D9aW2w86CjHbnWUcGgCMrxDL4LgApw+vE4fgmQLMgEeyYxnmycTKGb1WYQOhOqN3lkv1zSiTWza9HbPrImMj01tdZnesLZ/pdA29BCU7G5cGAOM7GxMhn7GFrY2hJMw4mnVzOlyqX4hlvgM5Lusn3Gl11SxqDz+gNFOL25uY4bbt9WZffZE3SWF2W1jZ0NXhrycZaKuudEmk1obOmxiXBgDju8K2YpRrtXMaa5lufxFuRelZs2E9DmlKz+2fE8vgv6M5c6HTTMUoJh5A/DoRmG5TcUpVeSTT/4cpuDR7NAA4to1YpsktSadZ6TZ15Wz93A6X6soM6FcRcJtt5bryEtdZnVCtn9PhGvx6G+Y1Ez8C4HrbyhvmdpIKoht+rp41laK09aTkYjSgPCYNAI7tfbYV181ppyzC0//ARGQXFli/vdEN93PTu7Hc9w+wpX+uy3sZuqJ0Aef2zXFpYg56cvPpFCwfZlJBwAluT+DOKoqLWO2WaOqDKNHUUSXnqhKuU3E4V9oxEMqLmrIS1s7usK1ulUhAjqoN+BPbyrVlJZy6YKbH7oTj9N5ZrrMAf4o5LVDcpDCvpZWR6a00T7I+mtebs9yWlQaAkzx1JadoAHCkAhyCtXpbGpgxucZjd+w5fGnu89mPPHcb5uAfK1sXdVGSTl6CxtLCNFv657o0UQb8uafu5LNzgQW2lePwMAMwu6GWeW4HYO1Ewc1H0ADgSJdgDsuwclZffLZqzWqosdkS+BTwgyx0Jx+dh5lNslJXXsqpPcl7+j/stAUzqXWbBTgDOMdTd/JRJXCLbeXp9dX02W8p9s5xFmA+Ou/kCBoAvFkj8H7byh21VYxOjyb5z7Fcvrwv0/XjPwZey1J38kkL8BGXBrYPz6fYPvgpcqWFaS4cmu/azMcxyyiSuRuw3MYMsG1wXqwWzlfPmkqb21kENwJNnrqTEzQAeLMP4XAs7vmD3ZFGyx7NzMk1vHf9MOnUhN7qm4C/zXKX8kEAfAqotW1gxuQaTui22rUVK6f0zHDZkgrm+/hpFMSVqS4ctjG3VFewKmanTqaCgPMWdbk0UYW5xskhGgD8v3XAVtvKzZMqWDM7njFLa2a387Ez1zDzGLEJVcVFe4AtwHWhdix3XYrl8dGHXbG8L3aDSRupIOCy0YWuzaxF07eZKMAMQK23Ip0/OC+SzH/Hs3FuJ42VTgnWzgfWeOpO4iUvuig7aoDP4PCUsX24J5ZfmMPmN9dz+9aNPPz0czz41O94cc9eKoqLmDullv62xtJ0KvjtklvviLqbuWAIx+C1kemtLumcY2ewvYklnc38ZPdvXZr5MPAzFKA6EdfgkFJ5ak0VG+bG89CpwoIUFw13c9Nd1h+DAHOt70G7nTStdsgdOAQbzZhcw+3nbUj2E9vY2ENFeyr7Bj75yX1RdyXBGjE3KetAkJJ0mi9u2xSLrVc+PfP7/+W8z3+HV/ftd2nmaaD/0L9ydL2YQZJ1IqWbTxyJ7ByTiTg4Nsa2L9xpe+z5YV9ERwZrCQAz9e0UaXzpSG+yb/4AQdD9evkrmma1Vwh8FYebP8A7lvbk3M0fTDrZi4adAwKbgC+hmctjKQO+gMPNv7upPvRjfzOVCgLeNdLr2sxWzFkveS3fBwDdwCdcGhjubGawPWcCSz947+VbkrvvLFq3YvLYW5vTWOu61SnWzl44h9kN1nGRh63ALAfIkT6BwxbmVBBw+fK+REwLL+lsZtFU58OxPoUJlsxb+TwAqAa+CVg/bhWlC9ixwirDZlyVHyzgc18988zk7j2LxjWY/BHW0qkU71m7OPkzSeMoSAVcu3ZwojtSxnM5cLWHLuWSy3AIYgZz6I7DyXuhu3rVgGuK7ErMPaDKT4+SJ18v9CngK8CwSyMXLO6O9VqZpbaqqtSrn773oR9H3ZGE2Ap8DMd4mncuXcDKmG27yob68lKCIODfnnzWtam1wG+AX7r3KvFGMNt3ra/nk0qK2XXSKCWFyVldmVRazL4DB3nwqd+5NFMPzAW+Box56ViC5OsMwK2Y4zGtTa2p5G0DuTp7FLz/niu3OC+y5YF1OO4eAVjY2sB5A05pcxNl22AXC1omuzYTAJ9FW7pmA9/CYcsfwLtGeqkuLfbToxCdPziPlmrnmJlTMDlg8k4+DgCuwUwhWksFAdevH3Y5ojLuioKAb913yba6Q/+fC/wFcD/wn8ADmPVG661GOWAU+AaOF96K4iJu2DCc01P/b5UKAm7YsIRy9xMzizBTuCPuvUqkJuCfgLrj/eB4hjqaEpt0qjhdwPXrhnx8f3aQh8tKOXsHOwYv07XnDXSxOeIjMkNQvXfsQN/n739owZiJLF6CSStag7nw9AMXYY5u/S7wemQ9Dd8q4Ns4xI+A+RC+b+OSRK27+lJZXETzpAru/s2Trk0VA2cBPwEec20sQaqA72O+f9Yqiou49bSVPgZjkZlSVc4re/fx0NPPuTaVd8tK+TQDcDZmytDp5j+trprtS3r89CjGDo6NcdP3frrmoBkVj/c5OQf4EY5PIQmyHnPzd0pHBrBlYC4rZuZcDMmErZndztl9Tvevw8qB75A/ywGTME/+zst0O1b2M7mizL1HEXvn0gW01zrH8gXA7cCZzh1KiHwZAGzFBMk4RbiUFqbZuXmpa+RpInz74Ue565HHJvrjfcAPgYasdSgeTgL+Dih1baivrZGLlyrM4pKRXnpbvHxsyoB/ADb7aCzGaoC7cAxgBtjY1RnbjH+ZKk4XsHPzMh+HZxVick1sce9V/OX+nQzeDnwOD8sdO1YO0Fk3yb1HMXdwbIzP3pvxLFgPcDfgvDk3pi7FrDc7nW8L0FBRxs5NS2OdOjos6VSKnZuX+XoKLQH+ntw9N6AOM+0/6NpQR20V7161yL1HMTKjvpqrVvT7aCoNfB5zbkBOy/UBwHWYk8Sc/85NXdPyYd0fgEeefYFnX95jU7UL+DGO65Ixk8LsGvkoHgaRZUWFfOiU5dSUOY8jckZdeQl/dvIopX62oBVg4nw+TG5d36YD92Bm25yUpNPs3LzM1+sdKyfNn8G6OR0+mirALBlf66OxuMqlL8gbFWJu/Dfi4byDril1/NHq3Botj+exF15yqX74QrXCS2eiVY6J9L/SR2MFqYAbNy875qmM+Wx2Qy03bl7mc1ZkB/B1PMRqxMAw8FPMlj8nAXDd+iHXI5pj7dq1gz4yToJ5uW7G8WTFOMvFAUAt8I/AhT4aq68oZdeJoz7WlhLjwEHnfBi1mJ0BSZ5C68JsezzFV4PvXrWIoY6cSRvt3XBnMztWes2seSrmYJwkJ1k4G/gB4Jw4AeDtQ92snpXbCadK0ml2nTRKXbm3WbY/wASZ5tzIPdcGAIsxe9S9RAOXpNPcctIo9RXOMV+J0uLnMJoiTETtx/Gwbh6ybZibv7dMTxcNzefk+TN8NZezTu2ZyQWLrdPZH8084F9J3slvxZhlpy/jIegUYMXMNi4azv0dTACNlWXcfOKoz1wtazH3Fuf4izjJlcfaADNN+yU8bUcrSAXcdMIIfTl0LvtE1ZSX8I1f/IbXDxzw0dwAJjL7B8ALPhrMojLgb4AP4HCi2ltt6Z/LxcsW+Gou5/W3NbJnn5d93YcVYWYDWjGfw7gfed0J3InH2afelgZ2nTjq4xyGxGioLGN6fTU//PUTvnL8VmNmNX+PmVlKvFwYADRjbvyX4+nvCYD3rB1i9ex2H80lTjqV4tV9+11zbL9RE+aL8wzwoK9GPVuO2Vu92mejpy2YyRUr+hNxwlqcDLY38T97XuORZ72OGfswU+q/AB732bBH52NS+3qLOJ5RX81fnr6S0gQn+7HVXlvF5Ioy7nn0KV9NFgAbMYnQfgS87KvhKCT9unQBJkLba0RLS3VFXhzMMp7X9x/g6w/+moNj3s/HuBN4B/Bfvhu2VAHswmwd8/p9qC4t5py+OXmV5teng2NjfPmBR3jx1b2+mx4D/hoT4f2K78YttWLSa2/y3fCZC2czuTy/ljHf6s5/383u552Cm4/mReAqzFKnhKgJcyMZU0lkeREzeIvacmA30b8eKtGU3cRjt8r5mO9E1K+Hil25E3NPkhDMB54l+jddxb18lOhmoS4G9k+gjyq5XfZjZqSiEGByFkT9Gqi4l2cAr9GrcqQa4Amif7NV/BUve+wztBo4YNlfldwrBzAHPIVth2V/VeJZHsfzcrS82S6if5NV/JaXCfcgoQB4KAt/h0qyyy8JdzaqDvPZj/rvVvFbbiZBkrQnJEWyE8vI0VVgjnMNyzBmb7jIG3Vj8oiE5Rwcj5OWWLqQBN1XE9NRzLaYXD1oJt+FeeEdCvF3SbKE+dnQ5zA3NQAdUXdiopI0APCS3FliKcwlgJxL5ynehHmN0ecwd4V5PXOSpAHA81F3QLImzAyB+hzJsehzKD4k5r1N0gDgUcz2P8k9YabVvDfE3yXJos+huHoWk18iEZI0ABhDGZdy0cvAV0L8ffcBvwrx90kyPEy4N+WvEZ8shOLPZzD3qkRI0gAAzDbAJ6LuhHj1XsKdMhsDLsPs/RYB81m4jHAv3M8BN4T4+yT7HgduiboTua4HeJro93uquJePEJ13okyAKuYzsJ1oBMBfTaCPKvEvT6NMgKFpwUwbK5tbMssTxON89hWY0wmjfj1Uoik/x5wHEbVtKMNpUssBzL2o5Yh3NQGSfkxZK+Yi3oGSasTdfuC/MTfcew79Py76MPuyG4HiiPsi2bUXk7f9PuCBiPvyRmlgKdALTD70f4mvV4DHgH8mPiebioiIiIiIiIiIiIiIiIiIiIiIiIiIiIiIiIiIiIiIiIiIiIiIiIiIiIiIiIiIiIiIiIiIiIiIiIiIiIiIiIiIiIiIiIiIiIiIiIiIiIiIiIiIiIiIiIiIiIiIiIiIiIiIiIiIiIiIiIiIiIiIiIiIiIiIiIiIiIiIiIiIiIiIiIiIiIiIiIiIiIiIiIiIiIiIiIiIiIiIiIiIiIiIiIiIiIiIiIiIiIiIiIiIiIiIiIiIiIiIiIiIiIiIiIiIiIiIiIiIiIiIiIiIiIiIiIiIiIiIiIiIiIiIiIiIiIiIiIiIiIiIiIiIiIiIiIiIiIiIiIiIiIiIiIiIiIiIiIiIiIiIiIiIiIiIiIiIiIiIiIiIiIiIiIiIiIiIiIiIiIiIiIiIiIiIiIiIiIiIiIiIiIiIiIiIiIiIiIiIiIiIiIiIiIiIiEio/g+ax7WjsJSqpwAAAABJRU5ErkJggg==;" parent="1" vertex="1">
          <mxGeometry x="980" y="800" width="242" height="242" as="geometry" />
        </mxCell>
        <mxCell id="KeBU-kHbTEerPU9ZJ03d-11" value="" style="sketch=0;outlineConnect=0;fontColor=#232F3E;gradientColor=none;fillColor=#3F8624;strokeColor=none;dashed=0;verticalLabelPosition=bottom;verticalAlign=top;align=center;html=1;fontSize=12;fontStyle=0;aspect=fixed;pointerEvents=1;shape=mxgraph.aws4.iot_thing_temperature_humidity_sensor;" parent="1" vertex="1">
          <mxGeometry x="1210" y="950" width="70" height="70" as="geometry" />
        </mxCell>
        <mxCell id="KeBU-kHbTEerPU9ZJ03d-12" value="" style="sketch=0;outlineConnect=0;fontColor=#232F3E;gradientColor=none;fillColor=#3F8624;strokeColor=none;dashed=0;verticalLabelPosition=bottom;verticalAlign=top;align=center;html=1;fontSize=12;fontStyle=0;aspect=fixed;pointerEvents=1;shape=mxgraph.aws4.iot_thing_temperature_humidity_sensor;" parent="1" vertex="1">
          <mxGeometry x="1430" y="890" width="70" height="70" as="geometry" />
        </mxCell>
        <mxCell id="KeBU-kHbTEerPU9ZJ03d-14" value="" style="verticalLabelPosition=bottom;html=1;verticalAlign=top;align=center;strokeColor=none;fillColor=#FF8000;shape=mxgraph.azure.cloud;" parent="1" vertex="1">
          <mxGeometry x="60" y="168" width="720" height="370" as="geometry" />
        </mxCell>
        <mxCell id="KeBU-kHbTEerPU9ZJ03d-16" value="&lt;span style=&quot;font-size: 43px;&quot;&gt;Cloud Native System&lt;/span&gt;" style="text;html=1;align=center;verticalAlign=middle;resizable=0;points=[];autosize=1;strokeColor=none;fillColor=none;fontSize=43;" parent="1" vertex="1">
          <mxGeometry x="200" y="379" width="420" height="70" as="geometry" />
        </mxCell>
        <mxCell id="KeBU-kHbTEerPU9ZJ03d-19" value="" style="pointerEvents=1;shadow=0;dashed=0;html=1;strokeColor=none;fillColor=#4495D1;labelPosition=center;verticalLabelPosition=bottom;verticalAlign=top;align=center;outlineConnect=0;shape=mxgraph.veeam.laptop;" parent="1" vertex="1">
          <mxGeometry x="500" y="840" width="240" height="160" as="geometry" />
        </mxCell>
        <mxCell id="KeBU-kHbTEerPU9ZJ03d-20" value="" style="sketch=0;pointerEvents=1;shadow=0;dashed=0;html=1;strokeColor=none;fillColor=#505050;labelPosition=center;verticalLabelPosition=bottom;verticalAlign=top;outlineConnect=0;align=center;shape=mxgraph.office.devices.workstation;" parent="1" vertex="1">
          <mxGeometry x="220" y="840" width="176.5" height="220" as="geometry" />
        </mxCell>
        <mxCell id="KeBU-kHbTEerPU9ZJ03d-22" style="edgeStyle=orthogonalEdgeStyle;rounded=0;orthogonalLoop=1;jettySize=auto;html=1;elbow=vertical;curved=1;startArrow=classic;startFill=1;endArrow=none;endFill=0;" parent="1" source="KeBU-kHbTEerPU9ZJ03d-21" target="KeBU-kHbTEerPU9ZJ03d-20" edge="1">
          <mxGeometry relative="1" as="geometry" />
        </mxCell>
        <mxCell id="KeBU-kHbTEerPU9ZJ03d-21" value="" style="sketch=0;outlineConnect=0;fontColor=#232F3E;gradientColor=none;fillColor=#3F8624;strokeColor=none;dashed=0;verticalLabelPosition=bottom;verticalAlign=top;align=center;html=1;fontSize=12;fontStyle=0;aspect=fixed;pointerEvents=1;shape=mxgraph.aws4.iot_thing_temperature_humidity_sensor;" parent="1" vertex="1">
          <mxGeometry x="60" y="972" width="70" height="70" as="geometry" />
        </mxCell>
        <mxCell id="KeBU-kHbTEerPU9ZJ03d-25" value="" style="endArrow=classic;startArrow=none;html=1;rounded=0;startFill=0;strokeWidth=2;" parent="1" edge="1">
          <mxGeometry width="50" height="50" relative="1" as="geometry">
            <mxPoint x="1240" y="920" as="sourcePoint" />
            <mxPoint x="1309" y="710" as="targetPoint" />
          </mxGeometry>
        </mxCell>
        <mxCell id="KeBU-kHbTEerPU9ZJ03d-26" value="" style="endArrow=classic;startArrow=none;html=1;rounded=0;startFill=0;strokeWidth=2;" parent="1" edge="1">
          <mxGeometry width="50" height="50" relative="1" as="geometry">
            <mxPoint x="1470" y="880" as="sourcePoint" />
            <mxPoint x="1390" y="710" as="targetPoint" />
          </mxGeometry>
        </mxCell>
        <mxCell id="KeBU-kHbTEerPU9ZJ03d-29" value="LoRaWAN&lt;br style=&quot;font-size: 20px;&quot;&gt;Gateway" style="text;html=1;align=center;verticalAlign=middle;resizable=0;points=[];autosize=1;strokeColor=none;fillColor=none;fontSize=20;" parent="1" vertex="1">
          <mxGeometry x="1190" y="630" width="120" height="60" as="geometry" />
        </mxCell>
        <mxCell id="KeBU-kHbTEerPU9ZJ03d-30" value="" style="endArrow=classic;startArrow=none;html=1;rounded=0;startFill=0;strokeWidth=2;" parent="1" edge="1">
          <mxGeometry width="50" height="50" relative="1" as="geometry">
            <mxPoint x="1340.66" y="620" as="sourcePoint" />
            <mxPoint x="1340.66" y="480" as="targetPoint" />
          </mxGeometry>
        </mxCell>
        <mxCell id="KeBU-kHbTEerPU9ZJ03d-31" value="TCP/IP" style="text;html=1;align=center;verticalAlign=middle;resizable=0;points=[];autosize=1;strokeColor=none;fillColor=none;fontSize=20;" parent="1" vertex="1">
          <mxGeometry x="1340" y="533" width="90" height="40" as="geometry" />
        </mxCell>
        <mxCell id="KeBU-kHbTEerPU9ZJ03d-34" value="REST API" style="text;html=1;align=center;verticalAlign=middle;resizable=0;points=[];autosize=1;strokeColor=none;fillColor=none;fontSize=20;" parent="1" vertex="1">
          <mxGeometry x="905" y="355" width="110" height="40" as="geometry" />
        </mxCell>
        <mxCell id="KeBU-kHbTEerPU9ZJ03d-36" value="" style="endArrow=classic;startArrow=classic;html=1;rounded=0;strokeWidth=2;" parent="1" edge="1">
          <mxGeometry width="50" height="50" relative="1" as="geometry">
            <mxPoint x="620" y="820" as="sourcePoint" />
            <mxPoint x="620" y="560" as="targetPoint" />
          </mxGeometry>
        </mxCell>
        <mxCell id="KeBU-kHbTEerPU9ZJ03d-37" value="&lt;font style=&quot;font-size: 17px;&quot;&gt;Data Analyst&lt;/font&gt;" style="text;html=1;align=center;verticalAlign=middle;resizable=0;points=[];autosize=1;strokeColor=none;fillColor=none;fontSize=17;fontStyle=1" parent="1" vertex="1">
          <mxGeometry x="555" y="1080" width="130" height="30" as="geometry" />
        </mxCell>
        <mxCell id="KeBU-kHbTEerPU9ZJ03d-38" value="" style="endArrow=classic;startArrow=classic;html=1;rounded=0;strokeWidth=2;" parent="1" edge="1">
          <mxGeometry width="50" height="50" relative="1" as="geometry">
            <mxPoint x="290" y="820" as="sourcePoint" />
            <mxPoint x="290" y="560" as="targetPoint" />
          </mxGeometry>
        </mxCell>
        <mxCell id="KeBU-kHbTEerPU9ZJ03d-39" value="&lt;font style=&quot;font-size: 17px;&quot;&gt;Researcher&lt;/font&gt;" style="text;html=1;align=center;verticalAlign=middle;resizable=0;points=[];autosize=1;strokeColor=none;fillColor=none;fontSize=17;fontStyle=1" parent="1" vertex="1">
          <mxGeometry x="240" y="1080" width="120" height="30" as="geometry" />
        </mxCell>
        <mxCell id="KeBU-kHbTEerPU9ZJ03d-40" value="WebApp / REST" style="text;html=1;align=center;verticalAlign=middle;resizable=0;points=[];autosize=1;strokeColor=none;fillColor=none;fontSize=20;" parent="1" vertex="1">
          <mxGeometry x="300" y="675" width="170" height="40" as="geometry" />
        </mxCell>
        <mxCell id="KeBU-kHbTEerPU9ZJ03d-41" value="WebApp / InfluxDB" style="text;html=1;align=center;verticalAlign=middle;resizable=0;points=[];autosize=1;strokeColor=none;fillColor=none;fontSize=20;" parent="1" vertex="1">
          <mxGeometry x="630" y="675" width="190" height="40" as="geometry" />
        </mxCell>
        <mxCell id="KeBU-kHbTEerPU9ZJ03d-42" value="" style="endArrow=none;html=1;rounded=0;strokeWidth=2;startArrow=classic;startFill=1;endFill=0;" parent="1" edge="1">
          <mxGeometry width="50" height="50" relative="1" as="geometry">
            <mxPoint x="1140" y="400" as="sourcePoint" />
            <mxPoint x="760" y="400" as="targetPoint" />
          </mxGeometry>
        </mxCell>
        <mxCell id="lOvwiRjOcH_fckKO31xc-1" value="MQTT" style="text;html=1;align=center;verticalAlign=middle;resizable=0;points=[];autosize=1;strokeColor=none;fillColor=none;fontSize=20;" vertex="1" parent="1">
          <mxGeometry x="920" y="290" width="80" height="40" as="geometry" />
        </mxCell>
        <mxCell id="lOvwiRjOcH_fckKO31xc-2" value="" style="endArrow=classic;html=1;rounded=0;strokeWidth=2;" edge="1" parent="1">
          <mxGeometry width="50" height="50" relative="1" as="geometry">
            <mxPoint x="1140" y="335" as="sourcePoint" />
            <mxPoint x="760" y="335" as="targetPoint" />
          </mxGeometry>
        </mxCell>
      </root>
    </mxGraphModel>
  </diagram>
</mxfile>
